M48
; DRILL file {KiCad 9.0.5} date 2026-03-27T19:00:29+0300
; FORMAT={-:-/ absolute / metric / decimal}
; #@! TF.CreationDate,2026-03-27T19:00:29+03:00
; #@! TF.GenerationSoftware,Kicad,Pcbnew,9.0.5
; #@! TF.FileFunction,Plated,1,2,PTH
FMAT,2
METRIC
; #@! TA.AperFunction,Plated,PTH,ViaDrill
T1C0.300
; #@! TA.AperFunction,Plated,PTH,ComponentDrill
T2C0.600
; #@! TA.AperFunction,Plated,PTH,ComponentDrill
T3C0.800
; #@! TA.AperFunction,Plated,PTH,ComponentDrill
T4C1.000
; #@! TA.AperFunction,Plated,PTH,ComponentDrill
T5C1.100
%
G90
G05
T1
X136.2Y-92.6
X139.4Y-92.2
X152.3Y-103.7
X157.8Y-104.0
X161.6Y-103.6
X162.5Y-106.5
X162.8Y-112.0
X162.825Y-56.925
X165.5Y-122.0
X167.9Y-105.5
X169.0Y-100.6
T2
X133.0Y-95.4
X133.0Y-99.0
X133.0Y-102.6
X149.0Y-94.9
X149.0Y-98.5
X149.0Y-102.1
X152.0Y-122.0
X155.082Y-94.888
X155.082Y-98.488
X155.082Y-102.088
X159.0Y-122.0
X161.0Y-94.9
X161.0Y-98.5
X161.0Y-102.1
X177.0Y-96.7
X177.0Y-100.3
T3
X132.19Y-58.5
X132.19Y-63.5
X132.19Y-68.5
X133.25Y-73.0
X133.25Y-78.0
X133.25Y-82.44
X133.25Y-90.06
X133.679Y-116.98
X133.679Y-121.98
X133.73Y-107.96
X133.73Y-113.04
X136.27Y-110.5
X137.5Y-50.3
X137.5Y-52.8
X137.5Y-82.44
X137.5Y-90.06
X138.5Y-94.94
X138.5Y-102.56
X139.369Y-116.98
X139.369Y-121.98
X139.44Y-107.25
X139.44Y-112.0
X139.5Y-73.0
X139.5Y-78.0
X139.81Y-58.5
X139.81Y-63.5
X139.81Y-68.5
X142.71Y-85.73
X143.75Y-96.0
X143.75Y-101.0
X144.5Y-50.1
X144.5Y-52.6
X145.25Y-88.27
X145.75Y-71.69
X145.75Y-79.31
X146.989Y-116.98
X146.989Y-121.98
X147.06Y-107.25
X147.06Y-112.0
X147.79Y-85.73
X149.88Y-117.0
X151.5Y-107.5
X151.5Y-112.5
X152.25Y-59.94
X152.25Y-67.56
X152.25Y-71.69
X152.25Y-79.31
X153.0Y-84.75
X153.0Y-89.75
X156.0Y-107.5
X156.0Y-112.5
X157.25Y-59.94
X157.25Y-67.56
X157.25Y-71.69
X157.25Y-79.31
X157.5Y-117.0
X159.0Y-84.75
X159.0Y-89.75
X160.44Y-117.0
X160.5Y-107.5
X160.5Y-112.5
X162.0Y-71.69
X162.0Y-79.31
X162.25Y-59.94
X162.25Y-67.56
X163.25Y-49.25
X163.25Y-54.25
X165.0Y-107.5
X165.0Y-112.5
X165.5Y-83.44
X165.5Y-91.06
X166.5Y-95.69
X166.5Y-103.31
X167.25Y-59.94
X167.25Y-67.56
X168.06Y-117.0
X168.42Y-51.25
X168.69Y-71.19
X168.69Y-73.73
X168.69Y-76.27
X168.69Y-78.81
X170.44Y-107.0
X170.44Y-111.75
X170.94Y-65.75
X170.96Y-53.79
X171.25Y-95.75
X171.25Y-103.37
X171.5Y-84.75
X171.5Y-89.75
X173.205Y-59.25
X173.5Y-51.25
X175.705Y-59.25
X176.31Y-71.19
X176.31Y-73.73
X176.31Y-76.27
X176.31Y-78.81
X177.25Y-83.69
X177.25Y-91.31
X178.06Y-107.0
X178.06Y-111.75
X178.56Y-65.75
T4
X172.95Y-116.867
X175.45Y-116.867
T5
X145.75Y-58.42
X145.75Y-68.58
T4
X150.214Y-51.664G85X150.214Y-53.664
G05
X155.914Y-49.664G85X153.914Y-49.664
G05
X155.914Y-55.664G85X153.914Y-55.664
G05
M30
