%TF.GenerationSoftware,KiCad,Pcbnew,9.0.5*%
%TF.CreationDate,2026-03-27T18:59:20+03:00*%
%TF.ProjectId,Boss DS-1,426f7373-2044-4532-9d31-2e6b69636164,rev?*%
%TF.SameCoordinates,Original*%
%TF.FileFunction,Copper,L1,Top*%
%TF.FilePolarity,Positive*%
%FSLAX46Y46*%
G04 Gerber Fmt 4.6, Leading zero omitted, Abs format (unit mm)*
G04 Created by KiCad (PCBNEW 9.0.5) date 2026-03-27 18:59:20*
%MOMM*%
%LPD*%
G01*
G04 APERTURE LIST*
G04 Aperture macros list*
%AMRoundRect*
0 Rectangle with rounded corners*
0 $1 Rounding radius*
0 $2 $3 $4 $5 $6 $7 $8 $9 X,Y pos of 4 corners*
0 Add a 4 corners polygon primitive as box body*
4,1,4,$2,$3,$4,$5,$6,$7,$8,$9,$2,$3,0*
0 Add four circle primitives for the rounded corners*
1,1,$1+$1,$2,$3*
1,1,$1+$1,$4,$5*
1,1,$1+$1,$6,$7*
1,1,$1+$1,$8,$9*
0 Add four rect primitives between the rounded corners*
20,1,$1+$1,$2,$3,$4,$5,0*
20,1,$1+$1,$4,$5,$6,$7,0*
20,1,$1+$1,$6,$7,$8,$9,0*
20,1,$1+$1,$8,$9,$2,$3,0*%
G04 Aperture macros list end*
%TA.AperFunction,ComponentPad*%
%ADD10RoundRect,0.250000X-0.550000X0.550000X-0.550000X-0.550000X0.550000X-0.550000X0.550000X0.550000X0*%
%TD*%
%TA.AperFunction,ComponentPad*%
%ADD11C,1.600000*%
%TD*%
%TA.AperFunction,ComponentPad*%
%ADD12RoundRect,0.250000X-0.550000X-0.550000X0.550000X-0.550000X0.550000X0.550000X-0.550000X0.550000X0*%
%TD*%
%TA.AperFunction,ComponentPad*%
%ADD13RoundRect,0.250000X0.600000X0.750000X-0.600000X0.750000X-0.600000X-0.750000X0.600000X-0.750000X0*%
%TD*%
%TA.AperFunction,ComponentPad*%
%ADD14O,1.700000X2.000000*%
%TD*%
%TA.AperFunction,ComponentPad*%
%ADD15RoundRect,0.250000X0.550000X-0.550000X0.550000X0.550000X-0.550000X0.550000X-0.550000X-0.550000X0*%
%TD*%
%TA.AperFunction,ComponentPad*%
%ADD16RoundRect,0.250000X0.550000X0.550000X-0.550000X0.550000X-0.550000X-0.550000X0.550000X-0.550000X0*%
%TD*%
%TA.AperFunction,ComponentPad*%
%ADD17R,3.500000X3.500000*%
%TD*%
%TA.AperFunction,ComponentPad*%
%ADD18RoundRect,0.750000X-1.000000X0.750000X-1.000000X-0.750000X1.000000X-0.750000X1.000000X0.750000X0*%
%TD*%
%TA.AperFunction,ComponentPad*%
%ADD19RoundRect,0.875000X-0.875000X0.875000X-0.875000X-0.875000X0.875000X-0.875000X0.875000X0.875000X0*%
%TD*%
%TA.AperFunction,ComponentPad*%
%ADD20R,1.500000X1.500000*%
%TD*%
%TA.AperFunction,ComponentPad*%
%ADD21C,1.500000*%
%TD*%
%TA.AperFunction,ComponentPad*%
%ADD22RoundRect,0.249999X0.850001X-0.850001X0.850001X0.850001X-0.850001X0.850001X-0.850001X-0.850001X0*%
%TD*%
%TA.AperFunction,ComponentPad*%
%ADD23C,2.200000*%
%TD*%
%TA.AperFunction,ComponentPad*%
%ADD24RoundRect,0.250000X-0.950000X-0.550000X0.950000X-0.550000X0.950000X0.550000X-0.950000X0.550000X0*%
%TD*%
%TA.AperFunction,ComponentPad*%
%ADD25O,2.400000X1.600000*%
%TD*%
%TA.AperFunction,ViaPad*%
%ADD26C,0.600000*%
%TD*%
%TA.AperFunction,Conductor*%
%ADD27C,0.300000*%
%TD*%
%TA.AperFunction,Conductor*%
%ADD28C,0.500000*%
%TD*%
G04 APERTURE END LIST*
D10*
%TO.P,J2,1,Pin_1*%
%TO.N,/Jack_IN*%
X133000000Y-95400000D03*
D11*
%TO.P,J2,2,Pin_2*%
%TO.N,/BAT_NEG*%
X133000000Y-99000000D03*
%TO.P,J2,3,Pin_3*%
%TO.N,GND*%
X133000000Y-102600000D03*
%TD*%
%TO.P,C7,1*%
%TO.N,Net-(C7-Pad1)*%
X159000000Y-89750000D03*
%TO.P,C7,2*%
%TO.N,/Opamp_Gain*%
X159000000Y-84750000D03*
%TD*%
D12*
%TO.P,J1,1,Pin_1*%
%TO.N,/Effect_IN*%
X152000000Y-122000000D03*
%TD*%
D11*
%TO.P,R8,1*%
%TO.N,Net-(C8-Pad2)*%
X157250000Y-79310000D03*
%TO.P,R8,2*%
%TO.N,Net-(D3-K)*%
X157250000Y-71690000D03*
%TD*%
%TO.P,C3,1*%
%TO.N,Net-(C3-Pad1)*%
X171500000Y-84750000D03*
%TO.P,C3,2*%
%TO.N,Net-(C3-Pad2)*%
X171500000Y-89750000D03*
%TD*%
D10*
%TO.P,RV2,1,1*%
%TO.N,Net-(C13-Pad2)*%
X155081720Y-94887522D03*
D11*
%TO.P,RV2,2,2*%
%TO.N,Net-(RV2-Pad2)*%
X155081720Y-98487522D03*
%TO.P,RV2,3,3*%
%TO.N,Net-(R21-Pad2)*%
X155081720Y-102087522D03*
%TD*%
D13*
%TO.P,J6,1,Pin_1*%
%TO.N,Net-(J6-Pin_1)*%
X175450000Y-116867500D03*
D14*
%TO.P,J6,2,Pin_2*%
%TO.N,/BAT_NEG*%
X172950000Y-116867500D03*
%TD*%
D10*
%TO.P,RV1,1,1*%
%TO.N,Net-(C3-Pad1)*%
X149000000Y-94900000D03*
D11*
%TO.P,RV1,2,2*%
%TO.N,Net-(C3-Pad2)*%
X149000000Y-98500000D03*
%TO.P,RV1,3,3*%
%TO.N,Net-(R2-Pad1)*%
X149000000Y-102100000D03*
%TD*%
%TO.P,C1,1*%
%TO.N,GND*%
X151500000Y-112500000D03*
%TO.P,C1,2*%
%TO.N,Net-(C1-Pad2)*%
X151500000Y-107500000D03*
%TD*%
%TO.P,R10,1*%
%TO.N,Net-(C5-Pad2)*%
X139810000Y-68500000D03*
%TO.P,R10,2*%
%TO.N,/+4.5V*%
X132190000Y-68500000D03*
%TD*%
%TO.P,C8,1*%
%TO.N,/Trans_boost*%
X153000000Y-89750000D03*
%TO.P,C8,2*%
%TO.N,Net-(C8-Pad2)*%
X153000000Y-84750000D03*
%TD*%
D15*
%TO.P,D2,1,K*%
%TO.N,/+4.5V*%
X166500000Y-103310000D03*
D11*
%TO.P,D2,2,A*%
%TO.N,/Opamp_Gain*%
X166500000Y-95690000D03*
%TD*%
D16*
%TO.P,C12,1*%
%TO.N,/Effect_OUT*%
X175705113Y-59250000D03*
D11*
%TO.P,C12,2*%
%TO.N,Net-(C12-Pad2)*%
X173205113Y-59250000D03*
%TD*%
%TO.P,C6,1*%
%TO.N,Net-(C5-Pad2)*%
X133250000Y-73000000D03*
%TO.P,C6,2*%
%TO.N,Net-(Q2-B)*%
X133250000Y-78000000D03*
%TD*%
D10*
%TO.P,C14,1*%
%TO.N,GND*%
X144500000Y-50100000D03*
D11*
%TO.P,C14,2*%
%TO.N,+9V*%
X144500000Y-52600000D03*
%TD*%
%TO.P,R24,1*%
%TO.N,Net-(R21-Pad2)*%
X170440000Y-111750000D03*
%TO.P,R24,2*%
%TO.N,/+4.5V*%
X178060000Y-111750000D03*
%TD*%
%TO.P,R12,1*%
%TO.N,Net-(Q2-E)*%
X145750000Y-79310000D03*
%TO.P,R12,2*%
%TO.N,GND*%
X145750000Y-71690000D03*
%TD*%
D10*
%TO.P,RV3,1,1*%
%TO.N,Net-(RV2-Pad2)*%
X161000000Y-94900000D03*
D11*
%TO.P,RV3,2,2*%
%TO.N,Net-(R22-Pad1)*%
X161000000Y-98500000D03*
%TO.P,RV3,3,3*%
%TO.N,/+4.5V*%
X161000000Y-102100000D03*
%TD*%
D12*
%TO.P,J5,1,Pin_1*%
%TO.N,/Effect_OUT*%
X159000000Y-122000000D03*
%TD*%
D11*
%TO.P,C2,1*%
%TO.N,Net-(Q2-B)*%
X143750000Y-96000000D03*
%TO.P,C2,2*%
%TO.N,/Trans_boost*%
X143750000Y-101000000D03*
%TD*%
D10*
%TO.P,J3,1,Pin_1*%
%TO.N,/Jack_OUT*%
X177000000Y-96700000D03*
D11*
%TO.P,J3,2,Pin_2*%
%TO.N,GND*%
X177000000Y-100300000D03*
%TD*%
%TO.P,R9,1*%
%TO.N,/input_buff*%
X139440000Y-112000000D03*
%TO.P,R9,2*%
%TO.N,GND*%
X147060000Y-112000000D03*
%TD*%
%TO.P,R21,1*%
%TO.N,Net-(C11-Pad1)*%
X157500000Y-117000000D03*
%TO.P,R21,2*%
%TO.N,Net-(R21-Pad2)*%
X149880000Y-117000000D03*
%TD*%
%TO.P,C10,1*%
%TO.N,Net-(Q3-B)*%
X163250000Y-49250000D03*
%TO.P,C10,2*%
%TO.N,/Tone_Level*%
X163250000Y-54250000D03*
%TD*%
%TO.P,R23,1*%
%TO.N,/+4.5V*%
X132190000Y-63500000D03*
%TO.P,R23,2*%
%TO.N,GND*%
X139810000Y-63500000D03*
%TD*%
%TO.P,C4,1*%
%TO.N,Net-(C4-Pad1)*%
X133678555Y-121979736D03*
%TO.P,C4,2*%
%TO.N,Net-(Q1-B)*%
X133678555Y-116979736D03*
%TD*%
D10*
%TO.P,D1,1,K*%
%TO.N,/Opamp_Gain*%
X171250000Y-95750000D03*
D11*
%TO.P,D1,2,A*%
%TO.N,/+4.5V*%
X171250000Y-103370000D03*
%TD*%
%TO.P,R14,1*%
%TO.N,/+4.5V*%
X152250000Y-67560000D03*
%TO.P,R14,2*%
%TO.N,/Tone_Level*%
X152250000Y-59940000D03*
%TD*%
%TO.P,R19,1*%
%TO.N,GND*%
X170940000Y-65750000D03*
%TO.P,R19,2*%
%TO.N,/Effect_OUT*%
X178560000Y-65750000D03*
%TD*%
D17*
%TO.P,J4,1*%
%TO.N,GND*%
X154914419Y-55664029D03*
D18*
%TO.P,J4,2*%
%TO.N,+9V*%
X154914419Y-49664029D03*
D19*
%TO.P,J4,3*%
%TO.N,Net-(J6-Pin_1)*%
X150214419Y-52664029D03*
%TD*%
D11*
%TO.P,R11,1*%
%TO.N,Net-(Q2-B)*%
X133250000Y-82440000D03*
%TO.P,R11,2*%
%TO.N,GND*%
X133250000Y-90060000D03*
%TD*%
D10*
%TO.P,C15,1*%
%TO.N,GND*%
X137500000Y-50300000D03*
D11*
%TO.P,C15,2*%
%TO.N,/+4.5V*%
X137500000Y-52800000D03*
%TD*%
D20*
%TO.P,Q2,1,E*%
%TO.N,Net-(Q2-E)*%
X147790000Y-85730000D03*
D21*
%TO.P,Q2,2,B*%
%TO.N,Net-(Q2-B)*%
X145250000Y-88270000D03*
%TO.P,Q2,3,C*%
%TO.N,/Trans_boost*%
X142710000Y-85730000D03*
%TD*%
D11*
%TO.P,C11,1*%
%TO.N,Net-(C11-Pad1)*%
X160500000Y-112500000D03*
%TO.P,C11,2*%
%TO.N,/Opamp_Gain*%
X160500000Y-107500000D03*
%TD*%
%TO.P,C9,1*%
%TO.N,/Opamp_Gain*%
X156000000Y-107500000D03*
%TO.P,C9,2*%
%TO.N,GND*%
X156000000Y-112500000D03*
%TD*%
%TO.P,R3,1*%
%TO.N,Net-(Q1-B)*%
X139368555Y-116979736D03*
%TO.P,R3,2*%
%TO.N,/+4.5V*%
X146988555Y-116979736D03*
%TD*%
%TO.P,R15,1*%
%TO.N,/+4.5V*%
X157250000Y-67560000D03*
%TO.P,R15,2*%
%TO.N,Net-(Q3-B)*%
X157250000Y-59940000D03*
%TD*%
D22*
%TO.P,D4,1,K*%
%TO.N,GND*%
X145750000Y-68580000D03*
D23*
%TO.P,D4,2,A*%
%TO.N,+9V*%
X145750000Y-58420000D03*
%TD*%
D11*
%TO.P,R5,1*%
%TO.N,Net-(Q2-B)*%
X137500000Y-82440000D03*
%TO.P,R5,2*%
%TO.N,/Trans_boost*%
X137500000Y-90060000D03*
%TD*%
%TO.P,R7,1*%
%TO.N,Net-(C3-Pad1)*%
X165500000Y-83440000D03*
%TO.P,R7,2*%
%TO.N,Net-(C7-Pad1)*%
X165500000Y-91060000D03*
%TD*%
D10*
%TO.P,D3,1,K*%
%TO.N,Net-(D3-K)*%
X162000000Y-71690000D03*
D11*
%TO.P,D3,2,A*%
%TO.N,GND*%
X162000000Y-79310000D03*
%TD*%
D20*
%TO.P,Q3,1,E*%
%TO.N,Net-(Q3-E)*%
X173500000Y-51250000D03*
D21*
%TO.P,Q3,2,C*%
%TO.N,+9V*%
X170960000Y-53790000D03*
%TO.P,Q3,3,B*%
%TO.N,Net-(Q3-B)*%
X168420000Y-51250000D03*
%TD*%
D11*
%TO.P,R6,1*%
%TO.N,/Effect_IN*%
X146988555Y-121979736D03*
%TO.P,R6,2*%
%TO.N,Net-(C4-Pad1)*%
X139368555Y-121979736D03*
%TD*%
D24*
%TO.P,U1,1*%
%TO.N,Net-(U1A--)*%
X168690000Y-71190000D03*
D25*
%TO.P,U1,2,-*%
X168690000Y-73730000D03*
%TO.P,U1,3,+*%
%TO.N,Net-(D3-K)*%
X168690000Y-76270000D03*
%TO.P,U1,4,V-*%
%TO.N,GND*%
X168690000Y-78810000D03*
%TO.P,U1,5,+*%
%TO.N,Net-(U1A--)*%
X176310000Y-78810000D03*
%TO.P,U1,6,-*%
%TO.N,Net-(U1B--)*%
X176310000Y-76270000D03*
%TO.P,U1,7*%
%TO.N,Net-(C3-Pad1)*%
X176310000Y-73730000D03*
%TO.P,U1,8,V+*%
%TO.N,+9V*%
X176310000Y-71190000D03*
%TD*%
D11*
%TO.P,R18,1*%
%TO.N,GND*%
X162250000Y-67560000D03*
%TO.P,R18,2*%
%TO.N,Net-(Q3-E)*%
X162250000Y-59940000D03*
%TD*%
%TO.P,R13,1*%
%TO.N,Net-(C8-Pad2)*%
X152250000Y-79310000D03*
%TO.P,R13,2*%
%TO.N,/+4.5V*%
X152250000Y-71690000D03*
%TD*%
D20*
%TO.P,Q1,1,E*%
%TO.N,/input_buff*%
X133730000Y-107960000D03*
D21*
%TO.P,Q1,2,B*%
%TO.N,Net-(Q1-B)*%
X136270000Y-110500000D03*
%TO.P,Q1,3,C*%
%TO.N,+9V*%
X133730000Y-113040000D03*
%TD*%
D11*
%TO.P,R22,1*%
%TO.N,Net-(R22-Pad1)*%
X170440000Y-107000000D03*
%TO.P,R22,2*%
%TO.N,/Tone_Level*%
X178060000Y-107000000D03*
%TD*%
%TO.P,R1,1*%
%TO.N,+9V*%
X138500000Y-102560000D03*
%TO.P,R1,2*%
%TO.N,/Trans_boost*%
X138500000Y-94940000D03*
%TD*%
%TO.P,R20,1*%
%TO.N,+9V*%
X139810000Y-58500000D03*
%TO.P,R20,2*%
%TO.N,/+4.5V*%
X132190000Y-58500000D03*
%TD*%
%TO.P,R17,1*%
%TO.N,Net-(C12-Pad2)*%
X167250000Y-67560000D03*
%TO.P,R17,2*%
%TO.N,Net-(Q3-E)*%
X167250000Y-59940000D03*
%TD*%
%TO.P,C5,1*%
%TO.N,/input_buff*%
X139500000Y-78000000D03*
%TO.P,C5,2*%
%TO.N,Net-(C5-Pad2)*%
X139500000Y-73000000D03*
%TD*%
%TO.P,R2,1*%
%TO.N,Net-(R2-Pad1)*%
X139440000Y-107250000D03*
%TO.P,R2,2*%
%TO.N,Net-(C1-Pad2)*%
X147060000Y-107250000D03*
%TD*%
%TO.P,R4,1*%
%TO.N,Net-(U1B--)*%
X177250000Y-83690000D03*
%TO.P,R4,2*%
%TO.N,Net-(C3-Pad2)*%
X177250000Y-91310000D03*
%TD*%
%TO.P,C13,1*%
%TO.N,/+4.5V*%
X165000000Y-107500000D03*
%TO.P,C13,2*%
%TO.N,Net-(C13-Pad2)*%
X165000000Y-112500000D03*
%TD*%
%TO.P,R16,1*%
%TO.N,/Opamp_Gain*%
X160440000Y-117000000D03*
%TO.P,R16,2*%
%TO.N,Net-(C13-Pad2)*%
X168060000Y-117000000D03*
%TD*%
D26*
%TO.N,/input_buff*%
X136200000Y-92600000D03*
X139400000Y-92200000D03*
%TO.N,/Opamp_Gain*%
X161600000Y-103600000D03*
X157800000Y-104000000D03*
X162800000Y-112000000D03*
%TO.N,/Tone_Level*%
X162825000Y-56925000D03*
%TO.N,/Effect_OUT*%
X165500000Y-122000000D03*
%TO.N,Net-(J6-Pin_1)*%
X152300000Y-103700000D03*
X167900000Y-105500000D03*
%TO.N,Net-(R21-Pad2)*%
X162500000Y-106500000D03*
%TO.N,Net-(R22-Pad1)*%
X169000000Y-100600000D03*
%TD*%
D27*
%TO.N,Net-(C1-Pad2)*%
X147060000Y-107250000D02*
X151250000Y-107250000D01*
X151250000Y-107250000D02*
X151500000Y-107500000D01*
%TO.N,Net-(Q2-B)*%
X145250000Y-84050000D02*
X145250000Y-88270000D01*
X137500000Y-82440000D02*
X133250000Y-82440000D01*
X145300000Y-87769000D02*
X145250000Y-87769000D01*
X137500000Y-82440000D02*
X143640000Y-82440000D01*
X145250000Y-88270000D02*
X145430000Y-88270000D01*
X143640000Y-82440000D02*
X145250000Y-84050000D01*
%TO.N,/Trans_boost*%
X142710000Y-87390000D02*
X142710000Y-85730000D01*
X140040000Y-90060000D02*
X141550000Y-88550000D01*
X141550000Y-88550000D02*
X142710000Y-87390000D01*
X153000000Y-89750000D02*
X142750000Y-89750000D01*
X142750000Y-89750000D02*
X141550000Y-88550000D01*
X137500000Y-90060000D02*
X140040000Y-90060000D01*
X138500000Y-95750000D02*
X138500000Y-94940000D01*
X143750000Y-101000000D02*
X138500000Y-95750000D01*
%TO.N,Net-(C3-Pad1)*%
X165500000Y-83440000D02*
X170190000Y-83440000D01*
X150600000Y-91600000D02*
X149000000Y-93200000D01*
X156100000Y-91100000D02*
X155600000Y-91600000D01*
X156760000Y-83440000D02*
X156100000Y-84100000D01*
X156100000Y-84100000D02*
X156100000Y-91100000D01*
X165500000Y-83440000D02*
X156760000Y-83440000D01*
X155600000Y-91600000D02*
X150600000Y-91600000D01*
X170190000Y-83440000D02*
X171500000Y-84750000D01*
X149000000Y-93200000D02*
X149000000Y-94900000D01*
%TO.N,Net-(C3-Pad2)*%
X173060000Y-91310000D02*
X171500000Y-89750000D01*
X150800000Y-96700000D02*
X149000000Y-98500000D01*
X177250000Y-91310000D02*
X173060000Y-91310000D01*
X171500000Y-89750000D02*
X168450000Y-92800000D01*
X150800000Y-95700000D02*
X150800000Y-96700000D01*
X168450000Y-92800000D02*
X153700000Y-92800000D01*
X153700000Y-92800000D02*
X150800000Y-95700000D01*
%TO.N,Net-(C4-Pad1)*%
X133678555Y-121979736D02*
X139368555Y-121979736D01*
%TO.N,Net-(Q1-B)*%
X133678555Y-116979736D02*
X139368555Y-116979736D01*
%TO.N,Net-(C5-Pad2)*%
X133250000Y-73000000D02*
X139500000Y-73000000D01*
%TO.N,/input_buff*%
X139000000Y-92600000D02*
X136200000Y-92600000D01*
X139400000Y-92200000D02*
X139000000Y-92600000D01*
X139440000Y-110840000D02*
X139440000Y-112000000D01*
X133730000Y-107960000D02*
X136560000Y-107960000D01*
X136560000Y-107960000D02*
X139440000Y-110840000D01*
%TO.N,/Opamp_Gain*%
X160500000Y-109100000D02*
X160500000Y-107500000D01*
X158200000Y-103600000D02*
X157800000Y-104000000D01*
X162800000Y-111400000D02*
X160500000Y-109100000D01*
X156000000Y-107500000D02*
X160500000Y-107500000D01*
X162800000Y-112000000D02*
X162800000Y-111400000D01*
X171190000Y-95690000D02*
X171250000Y-95750000D01*
X166500000Y-95690000D02*
X171190000Y-95690000D01*
X161600000Y-103600000D02*
X158200000Y-103600000D01*
%TO.N,Net-(C7-Pad1)*%
X164190000Y-89750000D02*
X165500000Y-91060000D01*
X159000000Y-89750000D02*
X164190000Y-89750000D01*
%TO.N,Net-(C8-Pad2)*%
X152250000Y-79310000D02*
X157250000Y-79310000D01*
D28*
%TO.N,/+4.5V*%
X151450001Y-66760001D02*
X152250000Y-67560000D01*
X163270000Y-103310000D02*
X166500000Y-103310000D01*
X132190000Y-68500000D02*
X133929999Y-66760001D01*
X171190000Y-103310000D02*
X171250000Y-103370000D01*
X152250000Y-67560000D02*
X157250000Y-67560000D01*
X162060000Y-102100000D02*
X161000000Y-102100000D01*
X166500000Y-103310000D02*
X171190000Y-103310000D01*
X133929999Y-66760001D02*
X151450001Y-66760001D01*
X163270000Y-103310000D02*
X162060000Y-102100000D01*
D27*
%TO.N,Net-(Q3-B)*%
X163250000Y-49250000D02*
X165420000Y-49250000D01*
X165420000Y-49250000D02*
X167420000Y-51250000D01*
X167420000Y-51250000D02*
X168420000Y-51250000D01*
%TO.N,/Tone_Level*%
X162825000Y-56925000D02*
X161550000Y-58200000D01*
X163250000Y-56500000D02*
X162825000Y-56925000D01*
X153990000Y-58200000D02*
X152250000Y-59940000D01*
X163250000Y-54250000D02*
X163250000Y-56500000D01*
X161550000Y-58200000D02*
X153990000Y-58200000D01*
D28*
%TO.N,+9V*%
X169960000Y-53790000D02*
X170960000Y-53790000D01*
X144900000Y-52600000D02*
X147835971Y-49664029D01*
X144500000Y-52600000D02*
X144900000Y-52600000D01*
X166000000Y-52000000D02*
X167770000Y-53770000D01*
X167770000Y-53770000D02*
X169940000Y-53770000D01*
X139890000Y-58420000D02*
X139810000Y-58500000D01*
X147835971Y-49664029D02*
X154914419Y-49664029D01*
X169940000Y-53770000D02*
X169960000Y-53790000D01*
X157250390Y-52000000D02*
X166000000Y-52000000D01*
X154914419Y-49664029D02*
X157250390Y-52000000D01*
X145750000Y-58420000D02*
X139890000Y-58420000D01*
D27*
%TO.N,/Effect_OUT*%
X165500000Y-122000000D02*
X159000000Y-122000000D01*
X178560000Y-65750000D02*
X178560000Y-62104887D01*
X178560000Y-62104887D02*
X175705113Y-59250000D01*
%TO.N,Net-(D3-K)*%
X167670000Y-76270000D02*
X168690000Y-76270000D01*
X162000000Y-71690000D02*
X163090000Y-71690000D01*
X163090000Y-71690000D02*
X167670000Y-76270000D01*
X157250000Y-71690000D02*
X162000000Y-71690000D01*
%TO.N,/BAT_NEG*%
X130700000Y-113300000D02*
X132100000Y-114700000D01*
X172950000Y-115350000D02*
X172950000Y-116867500D01*
X132100000Y-114700000D02*
X172300000Y-114700000D01*
X133000000Y-99000000D02*
X131300000Y-99000000D01*
X172300000Y-114700000D02*
X172950000Y-115350000D01*
X131300000Y-99000000D02*
X130700000Y-99600000D01*
X130700000Y-99600000D02*
X130700000Y-113300000D01*
%TO.N,Net-(Q3-E)*%
X173500000Y-53690000D02*
X167250000Y-59940000D01*
X167250000Y-59940000D02*
X162250000Y-59940000D01*
X173500000Y-51250000D02*
X173500000Y-53690000D01*
%TO.N,Net-(U1A--)*%
X168690000Y-73730000D02*
X170630000Y-73730000D01*
X170630000Y-73730000D02*
X175710000Y-78810000D01*
X175710000Y-78810000D02*
X176310000Y-78810000D01*
%TO.N,Net-(C13-Pad2)*%
X154800000Y-114000000D02*
X153900000Y-113100000D01*
X153900000Y-113100000D02*
X153900000Y-107300000D01*
X155081720Y-95018280D02*
X155081720Y-94887522D01*
X151400000Y-98700000D02*
X155081720Y-95018280D01*
X165000000Y-112500000D02*
X163500000Y-114000000D01*
X153900000Y-107300000D02*
X151400000Y-104800000D01*
X163500000Y-114000000D02*
X154800000Y-114000000D01*
X151400000Y-104800000D02*
X151400000Y-98700000D01*
%TO.N,/Effect_IN*%
X152729736Y-121979736D02*
X152750000Y-122000000D01*
X146988555Y-121979736D02*
X152729736Y-121979736D01*
%TO.N,Net-(J6-Pin_1)*%
X167600000Y-105200000D02*
X153800000Y-105200000D01*
X167900000Y-105500000D02*
X167600000Y-105200000D01*
X153800000Y-105200000D02*
X152300000Y-103700000D01*
%TO.N,Net-(R21-Pad2)*%
X170440000Y-111750000D02*
X167450000Y-111750000D01*
X149880000Y-117000000D02*
X153600000Y-117000000D01*
X178000000Y-115700000D02*
X178000000Y-118700000D01*
X156000000Y-119400000D02*
X153600000Y-117000000D01*
X174050000Y-111750000D02*
X178000000Y-115700000D01*
X162500000Y-106800000D02*
X162500000Y-106500000D01*
X170440000Y-111750000D02*
X174050000Y-111750000D01*
X167450000Y-111750000D02*
X162500000Y-106800000D01*
X178000000Y-118700000D02*
X177300000Y-119400000D01*
X177300000Y-119400000D02*
X156000000Y-119400000D01*
%TO.N,Net-(R22-Pad1)*%
X166900000Y-98500000D02*
X169000000Y-100600000D01*
X161000000Y-98500000D02*
X166900000Y-98500000D01*
%TO.N,Net-(RV2-Pad2)*%
X158669242Y-94900000D02*
X155081720Y-98487522D01*
X161000000Y-94900000D02*
X158669242Y-94900000D01*
%TD*%
M02*
