%TF.GenerationSoftware,KiCad,Pcbnew,9.0.5*%
%TF.CreationDate,2026-03-27T18:59:20+03:00*%
%TF.ProjectId,Boss DS-1,426f7373-2044-4532-9d31-2e6b69636164,rev?*%
%TF.SameCoordinates,Original*%
%TF.FileFunction,Legend,Top*%
%TF.FilePolarity,Positive*%
%FSLAX46Y46*%
G04 Gerber Fmt 4.6, Leading zero omitted, Abs format (unit mm)*
G04 Created by KiCad (PCBNEW 9.0.5) date 2026-03-27 18:59:20*
%MOMM*%
%LPD*%
G01*
G04 APERTURE LIST*
G04 Aperture macros list*
%AMRoundRect*
0 Rectangle with rounded corners*
0 $1 Rounding radius*
0 $2 $3 $4 $5 $6 $7 $8 $9 X,Y pos of 4 corners*
0 Add a 4 corners polygon primitive as box body*
4,1,4,$2,$3,$4,$5,$6,$7,$8,$9,$2,$3,0*
0 Add four circle primitives for the rounded corners*
1,1,$1+$1,$2,$3*
1,1,$1+$1,$4,$5*
1,1,$1+$1,$6,$7*
1,1,$1+$1,$8,$9*
0 Add four rect primitives between the rounded corners*
20,1,$1+$1,$2,$3,$4,$5,0*
20,1,$1+$1,$4,$5,$6,$7,0*
20,1,$1+$1,$6,$7,$8,$9,0*
20,1,$1+$1,$8,$9,$2,$3,0*%
G04 Aperture macros list end*
%ADD10C,0.200000*%
%ADD11C,0.150000*%
%ADD12C,0.120000*%
%ADD13RoundRect,0.250000X-0.550000X0.550000X-0.550000X-0.550000X0.550000X-0.550000X0.550000X0.550000X0*%
%ADD14C,1.600000*%
%ADD15RoundRect,0.250000X-0.550000X-0.550000X0.550000X-0.550000X0.550000X0.550000X-0.550000X0.550000X0*%
%ADD16RoundRect,0.250000X0.600000X0.750000X-0.600000X0.750000X-0.600000X-0.750000X0.600000X-0.750000X0*%
%ADD17O,1.700000X2.000000*%
%ADD18RoundRect,0.250000X0.550000X-0.550000X0.550000X0.550000X-0.550000X0.550000X-0.550000X-0.550000X0*%
%ADD19RoundRect,0.250000X0.550000X0.550000X-0.550000X0.550000X-0.550000X-0.550000X0.550000X-0.550000X0*%
%ADD20C,2.100000*%
%ADD21R,3.500000X3.500000*%
%ADD22RoundRect,0.750000X-1.000000X0.750000X-1.000000X-0.750000X1.000000X-0.750000X1.000000X0.750000X0*%
%ADD23RoundRect,0.875000X-0.875000X0.875000X-0.875000X-0.875000X0.875000X-0.875000X0.875000X0.875000X0*%
%ADD24R,1.500000X1.500000*%
%ADD25C,1.500000*%
%ADD26RoundRect,0.249999X0.850001X-0.850001X0.850001X0.850001X-0.850001X0.850001X-0.850001X-0.850001X0*%
%ADD27C,2.200000*%
%ADD28RoundRect,0.250000X-0.950000X-0.550000X0.950000X-0.550000X0.950000X0.550000X-0.950000X0.550000X0*%
%ADD29O,2.400000X1.600000*%
G04 APERTURE END LIST*
D10*
X137988720Y-127020314D02*
X138203006Y-127091742D01*
X138203006Y-127091742D02*
X138274435Y-127163171D01*
X138274435Y-127163171D02*
X138345863Y-127306028D01*
X138345863Y-127306028D02*
X138345863Y-127520314D01*
X138345863Y-127520314D02*
X138274435Y-127663171D01*
X138274435Y-127663171D02*
X138203006Y-127734600D01*
X138203006Y-127734600D02*
X138060149Y-127806028D01*
X138060149Y-127806028D02*
X137488720Y-127806028D01*
X137488720Y-127806028D02*
X137488720Y-126306028D01*
X137488720Y-126306028D02*
X137988720Y-126306028D01*
X137988720Y-126306028D02*
X138131578Y-126377457D01*
X138131578Y-126377457D02*
X138203006Y-126448885D01*
X138203006Y-126448885D02*
X138274435Y-126591742D01*
X138274435Y-126591742D02*
X138274435Y-126734600D01*
X138274435Y-126734600D02*
X138203006Y-126877457D01*
X138203006Y-126877457D02*
X138131578Y-126948885D01*
X138131578Y-126948885D02*
X137988720Y-127020314D01*
X137988720Y-127020314D02*
X137488720Y-127020314D01*
X139274435Y-126306028D02*
X139560149Y-126306028D01*
X139560149Y-126306028D02*
X139703006Y-126377457D01*
X139703006Y-126377457D02*
X139845863Y-126520314D01*
X139845863Y-126520314D02*
X139917292Y-126806028D01*
X139917292Y-126806028D02*
X139917292Y-127306028D01*
X139917292Y-127306028D02*
X139845863Y-127591742D01*
X139845863Y-127591742D02*
X139703006Y-127734600D01*
X139703006Y-127734600D02*
X139560149Y-127806028D01*
X139560149Y-127806028D02*
X139274435Y-127806028D01*
X139274435Y-127806028D02*
X139131578Y-127734600D01*
X139131578Y-127734600D02*
X138988720Y-127591742D01*
X138988720Y-127591742D02*
X138917292Y-127306028D01*
X138917292Y-127306028D02*
X138917292Y-126806028D01*
X138917292Y-126806028D02*
X138988720Y-126520314D01*
X138988720Y-126520314D02*
X139131578Y-126377457D01*
X139131578Y-126377457D02*
X139274435Y-126306028D01*
X140488721Y-127734600D02*
X140703007Y-127806028D01*
X140703007Y-127806028D02*
X141060149Y-127806028D01*
X141060149Y-127806028D02*
X141203007Y-127734600D01*
X141203007Y-127734600D02*
X141274435Y-127663171D01*
X141274435Y-127663171D02*
X141345864Y-127520314D01*
X141345864Y-127520314D02*
X141345864Y-127377457D01*
X141345864Y-127377457D02*
X141274435Y-127234600D01*
X141274435Y-127234600D02*
X141203007Y-127163171D01*
X141203007Y-127163171D02*
X141060149Y-127091742D01*
X141060149Y-127091742D02*
X140774435Y-127020314D01*
X140774435Y-127020314D02*
X140631578Y-126948885D01*
X140631578Y-126948885D02*
X140560149Y-126877457D01*
X140560149Y-126877457D02*
X140488721Y-126734600D01*
X140488721Y-126734600D02*
X140488721Y-126591742D01*
X140488721Y-126591742D02*
X140560149Y-126448885D01*
X140560149Y-126448885D02*
X140631578Y-126377457D01*
X140631578Y-126377457D02*
X140774435Y-126306028D01*
X140774435Y-126306028D02*
X141131578Y-126306028D01*
X141131578Y-126306028D02*
X141345864Y-126377457D01*
X141917292Y-127734600D02*
X142131578Y-127806028D01*
X142131578Y-127806028D02*
X142488720Y-127806028D01*
X142488720Y-127806028D02*
X142631578Y-127734600D01*
X142631578Y-127734600D02*
X142703006Y-127663171D01*
X142703006Y-127663171D02*
X142774435Y-127520314D01*
X142774435Y-127520314D02*
X142774435Y-127377457D01*
X142774435Y-127377457D02*
X142703006Y-127234600D01*
X142703006Y-127234600D02*
X142631578Y-127163171D01*
X142631578Y-127163171D02*
X142488720Y-127091742D01*
X142488720Y-127091742D02*
X142203006Y-127020314D01*
X142203006Y-127020314D02*
X142060149Y-126948885D01*
X142060149Y-126948885D02*
X141988720Y-126877457D01*
X141988720Y-126877457D02*
X141917292Y-126734600D01*
X141917292Y-126734600D02*
X141917292Y-126591742D01*
X141917292Y-126591742D02*
X141988720Y-126448885D01*
X141988720Y-126448885D02*
X142060149Y-126377457D01*
X142060149Y-126377457D02*
X142203006Y-126306028D01*
X142203006Y-126306028D02*
X142560149Y-126306028D01*
X142560149Y-126306028D02*
X142774435Y-126377457D01*
X144560148Y-127806028D02*
X144560148Y-126306028D01*
X144560148Y-126306028D02*
X144917291Y-126306028D01*
X144917291Y-126306028D02*
X145131577Y-126377457D01*
X145131577Y-126377457D02*
X145274434Y-126520314D01*
X145274434Y-126520314D02*
X145345863Y-126663171D01*
X145345863Y-126663171D02*
X145417291Y-126948885D01*
X145417291Y-126948885D02*
X145417291Y-127163171D01*
X145417291Y-127163171D02*
X145345863Y-127448885D01*
X145345863Y-127448885D02*
X145274434Y-127591742D01*
X145274434Y-127591742D02*
X145131577Y-127734600D01*
X145131577Y-127734600D02*
X144917291Y-127806028D01*
X144917291Y-127806028D02*
X144560148Y-127806028D01*
X145988720Y-127734600D02*
X146203006Y-127806028D01*
X146203006Y-127806028D02*
X146560148Y-127806028D01*
X146560148Y-127806028D02*
X146703006Y-127734600D01*
X146703006Y-127734600D02*
X146774434Y-127663171D01*
X146774434Y-127663171D02*
X146845863Y-127520314D01*
X146845863Y-127520314D02*
X146845863Y-127377457D01*
X146845863Y-127377457D02*
X146774434Y-127234600D01*
X146774434Y-127234600D02*
X146703006Y-127163171D01*
X146703006Y-127163171D02*
X146560148Y-127091742D01*
X146560148Y-127091742D02*
X146274434Y-127020314D01*
X146274434Y-127020314D02*
X146131577Y-126948885D01*
X146131577Y-126948885D02*
X146060148Y-126877457D01*
X146060148Y-126877457D02*
X145988720Y-126734600D01*
X145988720Y-126734600D02*
X145988720Y-126591742D01*
X145988720Y-126591742D02*
X146060148Y-126448885D01*
X146060148Y-126448885D02*
X146131577Y-126377457D01*
X146131577Y-126377457D02*
X146274434Y-126306028D01*
X146274434Y-126306028D02*
X146631577Y-126306028D01*
X146631577Y-126306028D02*
X146845863Y-126377457D01*
X147488719Y-127234600D02*
X148631577Y-127234600D01*
X150131577Y-127806028D02*
X149274434Y-127806028D01*
X149703005Y-127806028D02*
X149703005Y-126306028D01*
X149703005Y-126306028D02*
X149560148Y-126520314D01*
X149560148Y-126520314D02*
X149417291Y-126663171D01*
X149417291Y-126663171D02*
X149274434Y-126734600D01*
X157488720Y-127806028D02*
X157488720Y-126306028D01*
X157488720Y-126306028D02*
X157988720Y-127377457D01*
X157988720Y-127377457D02*
X158488720Y-126306028D01*
X158488720Y-126306028D02*
X158488720Y-127806028D01*
X159131578Y-127377457D02*
X159845864Y-127377457D01*
X158988721Y-127806028D02*
X159488721Y-126306028D01*
X159488721Y-126306028D02*
X159988721Y-127806028D01*
X160488720Y-127806028D02*
X160488720Y-126306028D01*
X160488720Y-126306028D02*
X160845863Y-126306028D01*
X160845863Y-126306028D02*
X161060149Y-126377457D01*
X161060149Y-126377457D02*
X161203006Y-126520314D01*
X161203006Y-126520314D02*
X161274435Y-126663171D01*
X161274435Y-126663171D02*
X161345863Y-126948885D01*
X161345863Y-126948885D02*
X161345863Y-127163171D01*
X161345863Y-127163171D02*
X161274435Y-127448885D01*
X161274435Y-127448885D02*
X161203006Y-127591742D01*
X161203006Y-127591742D02*
X161060149Y-127734600D01*
X161060149Y-127734600D02*
X160845863Y-127806028D01*
X160845863Y-127806028D02*
X160488720Y-127806028D01*
X161988720Y-127020314D02*
X162488720Y-127020314D01*
X162703006Y-127806028D02*
X161988720Y-127806028D01*
X161988720Y-127806028D02*
X161988720Y-126306028D01*
X161988720Y-126306028D02*
X162703006Y-126306028D01*
X164988720Y-127020314D02*
X165203006Y-127091742D01*
X165203006Y-127091742D02*
X165274435Y-127163171D01*
X165274435Y-127163171D02*
X165345863Y-127306028D01*
X165345863Y-127306028D02*
X165345863Y-127520314D01*
X165345863Y-127520314D02*
X165274435Y-127663171D01*
X165274435Y-127663171D02*
X165203006Y-127734600D01*
X165203006Y-127734600D02*
X165060149Y-127806028D01*
X165060149Y-127806028D02*
X164488720Y-127806028D01*
X164488720Y-127806028D02*
X164488720Y-126306028D01*
X164488720Y-126306028D02*
X164988720Y-126306028D01*
X164988720Y-126306028D02*
X165131578Y-126377457D01*
X165131578Y-126377457D02*
X165203006Y-126448885D01*
X165203006Y-126448885D02*
X165274435Y-126591742D01*
X165274435Y-126591742D02*
X165274435Y-126734600D01*
X165274435Y-126734600D02*
X165203006Y-126877457D01*
X165203006Y-126877457D02*
X165131578Y-126948885D01*
X165131578Y-126948885D02*
X164988720Y-127020314D01*
X164988720Y-127020314D02*
X164488720Y-127020314D01*
X166274435Y-127091742D02*
X166274435Y-127806028D01*
X165774435Y-126306028D02*
X166274435Y-127091742D01*
X166274435Y-127091742D02*
X166774435Y-126306028D01*
X168417291Y-127020314D02*
X168917291Y-127020314D01*
X169131577Y-127806028D02*
X168417291Y-127806028D01*
X168417291Y-127806028D02*
X168417291Y-126306028D01*
X168417291Y-126306028D02*
X169131577Y-126306028D01*
X169774434Y-127663171D02*
X169845863Y-127734600D01*
X169845863Y-127734600D02*
X169774434Y-127806028D01*
X169774434Y-127806028D02*
X169703006Y-127734600D01*
X169703006Y-127734600D02*
X169774434Y-127663171D01*
X169774434Y-127663171D02*
X169774434Y-127806028D01*
X170988720Y-127020314D02*
X171203006Y-127091742D01*
X171203006Y-127091742D02*
X171274435Y-127163171D01*
X171274435Y-127163171D02*
X171345863Y-127306028D01*
X171345863Y-127306028D02*
X171345863Y-127520314D01*
X171345863Y-127520314D02*
X171274435Y-127663171D01*
X171274435Y-127663171D02*
X171203006Y-127734600D01*
X171203006Y-127734600D02*
X171060149Y-127806028D01*
X171060149Y-127806028D02*
X170488720Y-127806028D01*
X170488720Y-127806028D02*
X170488720Y-126306028D01*
X170488720Y-126306028D02*
X170988720Y-126306028D01*
X170988720Y-126306028D02*
X171131578Y-126377457D01*
X171131578Y-126377457D02*
X171203006Y-126448885D01*
X171203006Y-126448885D02*
X171274435Y-126591742D01*
X171274435Y-126591742D02*
X171274435Y-126734600D01*
X171274435Y-126734600D02*
X171203006Y-126877457D01*
X171203006Y-126877457D02*
X171131578Y-126948885D01*
X171131578Y-126948885D02*
X170988720Y-127020314D01*
X170988720Y-127020314D02*
X170488720Y-127020314D01*
D11*
X134454819Y-99333333D02*
X135169104Y-99333333D01*
X135169104Y-99333333D02*
X135311961Y-99380952D01*
X135311961Y-99380952D02*
X135407200Y-99476190D01*
X135407200Y-99476190D02*
X135454819Y-99619047D01*
X135454819Y-99619047D02*
X135454819Y-99714285D01*
X134550057Y-98904761D02*
X134502438Y-98857142D01*
X134502438Y-98857142D02*
X134454819Y-98761904D01*
X134454819Y-98761904D02*
X134454819Y-98523809D01*
X134454819Y-98523809D02*
X134502438Y-98428571D01*
X134502438Y-98428571D02*
X134550057Y-98380952D01*
X134550057Y-98380952D02*
X134645295Y-98333333D01*
X134645295Y-98333333D02*
X134740533Y-98333333D01*
X134740533Y-98333333D02*
X134883390Y-98380952D01*
X134883390Y-98380952D02*
X135454819Y-98952380D01*
X135454819Y-98952380D02*
X135454819Y-98333333D01*
X162359580Y-87416666D02*
X162407200Y-87464285D01*
X162407200Y-87464285D02*
X162454819Y-87607142D01*
X162454819Y-87607142D02*
X162454819Y-87702380D01*
X162454819Y-87702380D02*
X162407200Y-87845237D01*
X162407200Y-87845237D02*
X162311961Y-87940475D01*
X162311961Y-87940475D02*
X162216723Y-87988094D01*
X162216723Y-87988094D02*
X162026247Y-88035713D01*
X162026247Y-88035713D02*
X161883390Y-88035713D01*
X161883390Y-88035713D02*
X161692914Y-87988094D01*
X161692914Y-87988094D02*
X161597676Y-87940475D01*
X161597676Y-87940475D02*
X161502438Y-87845237D01*
X161502438Y-87845237D02*
X161454819Y-87702380D01*
X161454819Y-87702380D02*
X161454819Y-87607142D01*
X161454819Y-87607142D02*
X161502438Y-87464285D01*
X161502438Y-87464285D02*
X161550057Y-87416666D01*
X161454819Y-87083332D02*
X161454819Y-86416666D01*
X161454819Y-86416666D02*
X162454819Y-86845237D01*
X151666666Y-119454819D02*
X151666666Y-120169104D01*
X151666666Y-120169104D02*
X151619047Y-120311961D01*
X151619047Y-120311961D02*
X151523809Y-120407200D01*
X151523809Y-120407200D02*
X151380952Y-120454819D01*
X151380952Y-120454819D02*
X151285714Y-120454819D01*
X152666666Y-120454819D02*
X152095238Y-120454819D01*
X152380952Y-120454819D02*
X152380952Y-119454819D01*
X152380952Y-119454819D02*
X152285714Y-119597676D01*
X152285714Y-119597676D02*
X152190476Y-119692914D01*
X152190476Y-119692914D02*
X152095238Y-119740533D01*
X148628571Y-123931009D02*
X148961904Y-123931009D01*
X149104761Y-124454819D02*
X148628571Y-124454819D01*
X148628571Y-124454819D02*
X148628571Y-123454819D01*
X148628571Y-123454819D02*
X149104761Y-123454819D01*
X149390476Y-123788152D02*
X149771428Y-123788152D01*
X149533333Y-124454819D02*
X149533333Y-123597676D01*
X149533333Y-123597676D02*
X149580952Y-123502438D01*
X149580952Y-123502438D02*
X149676190Y-123454819D01*
X149676190Y-123454819D02*
X149771428Y-123454819D01*
X149961905Y-123788152D02*
X150342857Y-123788152D01*
X150104762Y-124454819D02*
X150104762Y-123597676D01*
X150104762Y-123597676D02*
X150152381Y-123502438D01*
X150152381Y-123502438D02*
X150247619Y-123454819D01*
X150247619Y-123454819D02*
X150342857Y-123454819D01*
X151057143Y-124407200D02*
X150961905Y-124454819D01*
X150961905Y-124454819D02*
X150771429Y-124454819D01*
X150771429Y-124454819D02*
X150676191Y-124407200D01*
X150676191Y-124407200D02*
X150628572Y-124311961D01*
X150628572Y-124311961D02*
X150628572Y-123931009D01*
X150628572Y-123931009D02*
X150676191Y-123835771D01*
X150676191Y-123835771D02*
X150771429Y-123788152D01*
X150771429Y-123788152D02*
X150961905Y-123788152D01*
X150961905Y-123788152D02*
X151057143Y-123835771D01*
X151057143Y-123835771D02*
X151104762Y-123931009D01*
X151104762Y-123931009D02*
X151104762Y-124026247D01*
X151104762Y-124026247D02*
X150628572Y-124121485D01*
X151961905Y-124407200D02*
X151866667Y-124454819D01*
X151866667Y-124454819D02*
X151676191Y-124454819D01*
X151676191Y-124454819D02*
X151580953Y-124407200D01*
X151580953Y-124407200D02*
X151533334Y-124359580D01*
X151533334Y-124359580D02*
X151485715Y-124264342D01*
X151485715Y-124264342D02*
X151485715Y-123978628D01*
X151485715Y-123978628D02*
X151533334Y-123883390D01*
X151533334Y-123883390D02*
X151580953Y-123835771D01*
X151580953Y-123835771D02*
X151676191Y-123788152D01*
X151676191Y-123788152D02*
X151866667Y-123788152D01*
X151866667Y-123788152D02*
X151961905Y-123835771D01*
X152247620Y-123788152D02*
X152628572Y-123788152D01*
X152390477Y-123454819D02*
X152390477Y-124311961D01*
X152390477Y-124311961D02*
X152438096Y-124407200D01*
X152438096Y-124407200D02*
X152533334Y-124454819D01*
X152533334Y-124454819D02*
X152628572Y-124454819D01*
X152723811Y-124550057D02*
X153485715Y-124550057D01*
X153723811Y-124454819D02*
X153723811Y-123454819D01*
X154200001Y-124454819D02*
X154200001Y-123454819D01*
X154200001Y-123454819D02*
X154771429Y-124454819D01*
X154771429Y-124454819D02*
X154771429Y-123454819D01*
X160204819Y-75666666D02*
X159728628Y-75999999D01*
X160204819Y-76238094D02*
X159204819Y-76238094D01*
X159204819Y-76238094D02*
X159204819Y-75857142D01*
X159204819Y-75857142D02*
X159252438Y-75761904D01*
X159252438Y-75761904D02*
X159300057Y-75714285D01*
X159300057Y-75714285D02*
X159395295Y-75666666D01*
X159395295Y-75666666D02*
X159538152Y-75666666D01*
X159538152Y-75666666D02*
X159633390Y-75714285D01*
X159633390Y-75714285D02*
X159681009Y-75761904D01*
X159681009Y-75761904D02*
X159728628Y-75857142D01*
X159728628Y-75857142D02*
X159728628Y-76238094D01*
X159633390Y-75095237D02*
X159585771Y-75190475D01*
X159585771Y-75190475D02*
X159538152Y-75238094D01*
X159538152Y-75238094D02*
X159442914Y-75285713D01*
X159442914Y-75285713D02*
X159395295Y-75285713D01*
X159395295Y-75285713D02*
X159300057Y-75238094D01*
X159300057Y-75238094D02*
X159252438Y-75190475D01*
X159252438Y-75190475D02*
X159204819Y-75095237D01*
X159204819Y-75095237D02*
X159204819Y-74904761D01*
X159204819Y-74904761D02*
X159252438Y-74809523D01*
X159252438Y-74809523D02*
X159300057Y-74761904D01*
X159300057Y-74761904D02*
X159395295Y-74714285D01*
X159395295Y-74714285D02*
X159442914Y-74714285D01*
X159442914Y-74714285D02*
X159538152Y-74761904D01*
X159538152Y-74761904D02*
X159585771Y-74809523D01*
X159585771Y-74809523D02*
X159633390Y-74904761D01*
X159633390Y-74904761D02*
X159633390Y-75095237D01*
X159633390Y-75095237D02*
X159681009Y-75190475D01*
X159681009Y-75190475D02*
X159728628Y-75238094D01*
X159728628Y-75238094D02*
X159823866Y-75285713D01*
X159823866Y-75285713D02*
X160014342Y-75285713D01*
X160014342Y-75285713D02*
X160109580Y-75238094D01*
X160109580Y-75238094D02*
X160157200Y-75190475D01*
X160157200Y-75190475D02*
X160204819Y-75095237D01*
X160204819Y-75095237D02*
X160204819Y-74904761D01*
X160204819Y-74904761D02*
X160157200Y-74809523D01*
X160157200Y-74809523D02*
X160109580Y-74761904D01*
X160109580Y-74761904D02*
X160014342Y-74714285D01*
X160014342Y-74714285D02*
X159823866Y-74714285D01*
X159823866Y-74714285D02*
X159728628Y-74761904D01*
X159728628Y-74761904D02*
X159681009Y-74809523D01*
X159681009Y-74809523D02*
X159633390Y-74904761D01*
X174359580Y-87416666D02*
X174407200Y-87464285D01*
X174407200Y-87464285D02*
X174454819Y-87607142D01*
X174454819Y-87607142D02*
X174454819Y-87702380D01*
X174454819Y-87702380D02*
X174407200Y-87845237D01*
X174407200Y-87845237D02*
X174311961Y-87940475D01*
X174311961Y-87940475D02*
X174216723Y-87988094D01*
X174216723Y-87988094D02*
X174026247Y-88035713D01*
X174026247Y-88035713D02*
X173883390Y-88035713D01*
X173883390Y-88035713D02*
X173692914Y-87988094D01*
X173692914Y-87988094D02*
X173597676Y-87940475D01*
X173597676Y-87940475D02*
X173502438Y-87845237D01*
X173502438Y-87845237D02*
X173454819Y-87702380D01*
X173454819Y-87702380D02*
X173454819Y-87607142D01*
X173454819Y-87607142D02*
X173502438Y-87464285D01*
X173502438Y-87464285D02*
X173550057Y-87416666D01*
X173454819Y-87083332D02*
X173454819Y-86464285D01*
X173454819Y-86464285D02*
X173835771Y-86797618D01*
X173835771Y-86797618D02*
X173835771Y-86654761D01*
X173835771Y-86654761D02*
X173883390Y-86559523D01*
X173883390Y-86559523D02*
X173931009Y-86511904D01*
X173931009Y-86511904D02*
X174026247Y-86464285D01*
X174026247Y-86464285D02*
X174264342Y-86464285D01*
X174264342Y-86464285D02*
X174359580Y-86511904D01*
X174359580Y-86511904D02*
X174407200Y-86559523D01*
X174407200Y-86559523D02*
X174454819Y-86654761D01*
X174454819Y-86654761D02*
X174454819Y-86940475D01*
X174454819Y-86940475D02*
X174407200Y-87035713D01*
X174407200Y-87035713D02*
X174359580Y-87083332D01*
X157536539Y-99082760D02*
X157060348Y-99416093D01*
X157536539Y-99654188D02*
X156536539Y-99654188D01*
X156536539Y-99654188D02*
X156536539Y-99273236D01*
X156536539Y-99273236D02*
X156584158Y-99177998D01*
X156584158Y-99177998D02*
X156631777Y-99130379D01*
X156631777Y-99130379D02*
X156727015Y-99082760D01*
X156727015Y-99082760D02*
X156869872Y-99082760D01*
X156869872Y-99082760D02*
X156965110Y-99130379D01*
X156965110Y-99130379D02*
X157012729Y-99177998D01*
X157012729Y-99177998D02*
X157060348Y-99273236D01*
X157060348Y-99273236D02*
X157060348Y-99654188D01*
X156536539Y-98797045D02*
X157536539Y-98463712D01*
X157536539Y-98463712D02*
X156536539Y-98130379D01*
X156631777Y-97844664D02*
X156584158Y-97797045D01*
X156584158Y-97797045D02*
X156536539Y-97701807D01*
X156536539Y-97701807D02*
X156536539Y-97463712D01*
X156536539Y-97463712D02*
X156584158Y-97368474D01*
X156584158Y-97368474D02*
X156631777Y-97320855D01*
X156631777Y-97320855D02*
X156727015Y-97273236D01*
X156727015Y-97273236D02*
X156822253Y-97273236D01*
X156822253Y-97273236D02*
X156965110Y-97320855D01*
X156965110Y-97320855D02*
X157536539Y-97892283D01*
X157536539Y-97892283D02*
X157536539Y-97273236D01*
X173866666Y-124222319D02*
X173866666Y-124936604D01*
X173866666Y-124936604D02*
X173819047Y-125079461D01*
X173819047Y-125079461D02*
X173723809Y-125174700D01*
X173723809Y-125174700D02*
X173580952Y-125222319D01*
X173580952Y-125222319D02*
X173485714Y-125222319D01*
X174771428Y-124222319D02*
X174580952Y-124222319D01*
X174580952Y-124222319D02*
X174485714Y-124269938D01*
X174485714Y-124269938D02*
X174438095Y-124317557D01*
X174438095Y-124317557D02*
X174342857Y-124460414D01*
X174342857Y-124460414D02*
X174295238Y-124650890D01*
X174295238Y-124650890D02*
X174295238Y-125031842D01*
X174295238Y-125031842D02*
X174342857Y-125127080D01*
X174342857Y-125127080D02*
X174390476Y-125174700D01*
X174390476Y-125174700D02*
X174485714Y-125222319D01*
X174485714Y-125222319D02*
X174676190Y-125222319D01*
X174676190Y-125222319D02*
X174771428Y-125174700D01*
X174771428Y-125174700D02*
X174819047Y-125127080D01*
X174819047Y-125127080D02*
X174866666Y-125031842D01*
X174866666Y-125031842D02*
X174866666Y-124793747D01*
X174866666Y-124793747D02*
X174819047Y-124698509D01*
X174819047Y-124698509D02*
X174771428Y-124650890D01*
X174771428Y-124650890D02*
X174676190Y-124603271D01*
X174676190Y-124603271D02*
X174485714Y-124603271D01*
X174485714Y-124603271D02*
X174390476Y-124650890D01*
X174390476Y-124650890D02*
X174342857Y-124698509D01*
X174342857Y-124698509D02*
X174295238Y-124793747D01*
X151454819Y-99095238D02*
X150978628Y-99428571D01*
X151454819Y-99666666D02*
X150454819Y-99666666D01*
X150454819Y-99666666D02*
X150454819Y-99285714D01*
X150454819Y-99285714D02*
X150502438Y-99190476D01*
X150502438Y-99190476D02*
X150550057Y-99142857D01*
X150550057Y-99142857D02*
X150645295Y-99095238D01*
X150645295Y-99095238D02*
X150788152Y-99095238D01*
X150788152Y-99095238D02*
X150883390Y-99142857D01*
X150883390Y-99142857D02*
X150931009Y-99190476D01*
X150931009Y-99190476D02*
X150978628Y-99285714D01*
X150978628Y-99285714D02*
X150978628Y-99666666D01*
X150454819Y-98809523D02*
X151454819Y-98476190D01*
X151454819Y-98476190D02*
X150454819Y-98142857D01*
X151454819Y-97285714D02*
X151454819Y-97857142D01*
X151454819Y-97571428D02*
X150454819Y-97571428D01*
X150454819Y-97571428D02*
X150597676Y-97666666D01*
X150597676Y-97666666D02*
X150692914Y-97761904D01*
X150692914Y-97761904D02*
X150740533Y-97857142D01*
X151333333Y-105859580D02*
X151285714Y-105907200D01*
X151285714Y-105907200D02*
X151142857Y-105954819D01*
X151142857Y-105954819D02*
X151047619Y-105954819D01*
X151047619Y-105954819D02*
X150904762Y-105907200D01*
X150904762Y-105907200D02*
X150809524Y-105811961D01*
X150809524Y-105811961D02*
X150761905Y-105716723D01*
X150761905Y-105716723D02*
X150714286Y-105526247D01*
X150714286Y-105526247D02*
X150714286Y-105383390D01*
X150714286Y-105383390D02*
X150761905Y-105192914D01*
X150761905Y-105192914D02*
X150809524Y-105097676D01*
X150809524Y-105097676D02*
X150904762Y-105002438D01*
X150904762Y-105002438D02*
X151047619Y-104954819D01*
X151047619Y-104954819D02*
X151142857Y-104954819D01*
X151142857Y-104954819D02*
X151285714Y-105002438D01*
X151285714Y-105002438D02*
X151333333Y-105050057D01*
X152285714Y-105954819D02*
X151714286Y-105954819D01*
X152000000Y-105954819D02*
X152000000Y-104954819D01*
X152000000Y-104954819D02*
X151904762Y-105097676D01*
X151904762Y-105097676D02*
X151809524Y-105192914D01*
X151809524Y-105192914D02*
X151714286Y-105240533D01*
X135357142Y-71324819D02*
X135023809Y-70848628D01*
X134785714Y-71324819D02*
X134785714Y-70324819D01*
X134785714Y-70324819D02*
X135166666Y-70324819D01*
X135166666Y-70324819D02*
X135261904Y-70372438D01*
X135261904Y-70372438D02*
X135309523Y-70420057D01*
X135309523Y-70420057D02*
X135357142Y-70515295D01*
X135357142Y-70515295D02*
X135357142Y-70658152D01*
X135357142Y-70658152D02*
X135309523Y-70753390D01*
X135309523Y-70753390D02*
X135261904Y-70801009D01*
X135261904Y-70801009D02*
X135166666Y-70848628D01*
X135166666Y-70848628D02*
X134785714Y-70848628D01*
X136309523Y-71324819D02*
X135738095Y-71324819D01*
X136023809Y-71324819D02*
X136023809Y-70324819D01*
X136023809Y-70324819D02*
X135928571Y-70467676D01*
X135928571Y-70467676D02*
X135833333Y-70562914D01*
X135833333Y-70562914D02*
X135738095Y-70610533D01*
X136928571Y-70324819D02*
X137023809Y-70324819D01*
X137023809Y-70324819D02*
X137119047Y-70372438D01*
X137119047Y-70372438D02*
X137166666Y-70420057D01*
X137166666Y-70420057D02*
X137214285Y-70515295D01*
X137214285Y-70515295D02*
X137261904Y-70705771D01*
X137261904Y-70705771D02*
X137261904Y-70943866D01*
X137261904Y-70943866D02*
X137214285Y-71134342D01*
X137214285Y-71134342D02*
X137166666Y-71229580D01*
X137166666Y-71229580D02*
X137119047Y-71277200D01*
X137119047Y-71277200D02*
X137023809Y-71324819D01*
X137023809Y-71324819D02*
X136928571Y-71324819D01*
X136928571Y-71324819D02*
X136833333Y-71277200D01*
X136833333Y-71277200D02*
X136785714Y-71229580D01*
X136785714Y-71229580D02*
X136738095Y-71134342D01*
X136738095Y-71134342D02*
X136690476Y-70943866D01*
X136690476Y-70943866D02*
X136690476Y-70705771D01*
X136690476Y-70705771D02*
X136738095Y-70515295D01*
X136738095Y-70515295D02*
X136785714Y-70420057D01*
X136785714Y-70420057D02*
X136833333Y-70372438D01*
X136833333Y-70372438D02*
X136928571Y-70324819D01*
X156109580Y-87416666D02*
X156157200Y-87464285D01*
X156157200Y-87464285D02*
X156204819Y-87607142D01*
X156204819Y-87607142D02*
X156204819Y-87702380D01*
X156204819Y-87702380D02*
X156157200Y-87845237D01*
X156157200Y-87845237D02*
X156061961Y-87940475D01*
X156061961Y-87940475D02*
X155966723Y-87988094D01*
X155966723Y-87988094D02*
X155776247Y-88035713D01*
X155776247Y-88035713D02*
X155633390Y-88035713D01*
X155633390Y-88035713D02*
X155442914Y-87988094D01*
X155442914Y-87988094D02*
X155347676Y-87940475D01*
X155347676Y-87940475D02*
X155252438Y-87845237D01*
X155252438Y-87845237D02*
X155204819Y-87702380D01*
X155204819Y-87702380D02*
X155204819Y-87607142D01*
X155204819Y-87607142D02*
X155252438Y-87464285D01*
X155252438Y-87464285D02*
X155300057Y-87416666D01*
X155633390Y-86845237D02*
X155585771Y-86940475D01*
X155585771Y-86940475D02*
X155538152Y-86988094D01*
X155538152Y-86988094D02*
X155442914Y-87035713D01*
X155442914Y-87035713D02*
X155395295Y-87035713D01*
X155395295Y-87035713D02*
X155300057Y-86988094D01*
X155300057Y-86988094D02*
X155252438Y-86940475D01*
X155252438Y-86940475D02*
X155204819Y-86845237D01*
X155204819Y-86845237D02*
X155204819Y-86654761D01*
X155204819Y-86654761D02*
X155252438Y-86559523D01*
X155252438Y-86559523D02*
X155300057Y-86511904D01*
X155300057Y-86511904D02*
X155395295Y-86464285D01*
X155395295Y-86464285D02*
X155442914Y-86464285D01*
X155442914Y-86464285D02*
X155538152Y-86511904D01*
X155538152Y-86511904D02*
X155585771Y-86559523D01*
X155585771Y-86559523D02*
X155633390Y-86654761D01*
X155633390Y-86654761D02*
X155633390Y-86845237D01*
X155633390Y-86845237D02*
X155681009Y-86940475D01*
X155681009Y-86940475D02*
X155728628Y-86988094D01*
X155728628Y-86988094D02*
X155823866Y-87035713D01*
X155823866Y-87035713D02*
X156014342Y-87035713D01*
X156014342Y-87035713D02*
X156109580Y-86988094D01*
X156109580Y-86988094D02*
X156157200Y-86940475D01*
X156157200Y-86940475D02*
X156204819Y-86845237D01*
X156204819Y-86845237D02*
X156204819Y-86654761D01*
X156204819Y-86654761D02*
X156157200Y-86559523D01*
X156157200Y-86559523D02*
X156109580Y-86511904D01*
X156109580Y-86511904D02*
X156014342Y-86464285D01*
X156014342Y-86464285D02*
X155823866Y-86464285D01*
X155823866Y-86464285D02*
X155728628Y-86511904D01*
X155728628Y-86511904D02*
X155681009Y-86559523D01*
X155681009Y-86559523D02*
X155633390Y-86654761D01*
X169054819Y-100238094D02*
X168054819Y-100238094D01*
X168054819Y-100238094D02*
X168054819Y-99999999D01*
X168054819Y-99999999D02*
X168102438Y-99857142D01*
X168102438Y-99857142D02*
X168197676Y-99761904D01*
X168197676Y-99761904D02*
X168292914Y-99714285D01*
X168292914Y-99714285D02*
X168483390Y-99666666D01*
X168483390Y-99666666D02*
X168626247Y-99666666D01*
X168626247Y-99666666D02*
X168816723Y-99714285D01*
X168816723Y-99714285D02*
X168911961Y-99761904D01*
X168911961Y-99761904D02*
X169007200Y-99857142D01*
X169007200Y-99857142D02*
X169054819Y-99999999D01*
X169054819Y-99999999D02*
X169054819Y-100238094D01*
X168150057Y-99285713D02*
X168102438Y-99238094D01*
X168102438Y-99238094D02*
X168054819Y-99142856D01*
X168054819Y-99142856D02*
X168054819Y-98904761D01*
X168054819Y-98904761D02*
X168102438Y-98809523D01*
X168102438Y-98809523D02*
X168150057Y-98761904D01*
X168150057Y-98761904D02*
X168245295Y-98714285D01*
X168245295Y-98714285D02*
X168340533Y-98714285D01*
X168340533Y-98714285D02*
X168483390Y-98761904D01*
X168483390Y-98761904D02*
X169054819Y-99333332D01*
X169054819Y-99333332D02*
X169054819Y-98714285D01*
X165154819Y-103571904D02*
X164154819Y-103571904D01*
X165154819Y-103000476D02*
X164583390Y-103429047D01*
X164154819Y-103000476D02*
X164726247Y-103571904D01*
X178859580Y-60142857D02*
X178907200Y-60190476D01*
X178907200Y-60190476D02*
X178954819Y-60333333D01*
X178954819Y-60333333D02*
X178954819Y-60428571D01*
X178954819Y-60428571D02*
X178907200Y-60571428D01*
X178907200Y-60571428D02*
X178811961Y-60666666D01*
X178811961Y-60666666D02*
X178716723Y-60714285D01*
X178716723Y-60714285D02*
X178526247Y-60761904D01*
X178526247Y-60761904D02*
X178383390Y-60761904D01*
X178383390Y-60761904D02*
X178192914Y-60714285D01*
X178192914Y-60714285D02*
X178097676Y-60666666D01*
X178097676Y-60666666D02*
X178002438Y-60571428D01*
X178002438Y-60571428D02*
X177954819Y-60428571D01*
X177954819Y-60428571D02*
X177954819Y-60333333D01*
X177954819Y-60333333D02*
X178002438Y-60190476D01*
X178002438Y-60190476D02*
X178050057Y-60142857D01*
X178954819Y-59190476D02*
X178954819Y-59761904D01*
X178954819Y-59476190D02*
X177954819Y-59476190D01*
X177954819Y-59476190D02*
X178097676Y-59571428D01*
X178097676Y-59571428D02*
X178192914Y-59666666D01*
X178192914Y-59666666D02*
X178240533Y-59761904D01*
X178050057Y-58809523D02*
X178002438Y-58761904D01*
X178002438Y-58761904D02*
X177954819Y-58666666D01*
X177954819Y-58666666D02*
X177954819Y-58428571D01*
X177954819Y-58428571D02*
X178002438Y-58333333D01*
X178002438Y-58333333D02*
X178050057Y-58285714D01*
X178050057Y-58285714D02*
X178145295Y-58238095D01*
X178145295Y-58238095D02*
X178240533Y-58238095D01*
X178240533Y-58238095D02*
X178383390Y-58285714D01*
X178383390Y-58285714D02*
X178954819Y-58857142D01*
X178954819Y-58857142D02*
X178954819Y-58238095D01*
X136609580Y-75666666D02*
X136657200Y-75714285D01*
X136657200Y-75714285D02*
X136704819Y-75857142D01*
X136704819Y-75857142D02*
X136704819Y-75952380D01*
X136704819Y-75952380D02*
X136657200Y-76095237D01*
X136657200Y-76095237D02*
X136561961Y-76190475D01*
X136561961Y-76190475D02*
X136466723Y-76238094D01*
X136466723Y-76238094D02*
X136276247Y-76285713D01*
X136276247Y-76285713D02*
X136133390Y-76285713D01*
X136133390Y-76285713D02*
X135942914Y-76238094D01*
X135942914Y-76238094D02*
X135847676Y-76190475D01*
X135847676Y-76190475D02*
X135752438Y-76095237D01*
X135752438Y-76095237D02*
X135704819Y-75952380D01*
X135704819Y-75952380D02*
X135704819Y-75857142D01*
X135704819Y-75857142D02*
X135752438Y-75714285D01*
X135752438Y-75714285D02*
X135800057Y-75666666D01*
X135704819Y-74809523D02*
X135704819Y-74999999D01*
X135704819Y-74999999D02*
X135752438Y-75095237D01*
X135752438Y-75095237D02*
X135800057Y-75142856D01*
X135800057Y-75142856D02*
X135942914Y-75238094D01*
X135942914Y-75238094D02*
X136133390Y-75285713D01*
X136133390Y-75285713D02*
X136514342Y-75285713D01*
X136514342Y-75285713D02*
X136609580Y-75238094D01*
X136609580Y-75238094D02*
X136657200Y-75190475D01*
X136657200Y-75190475D02*
X136704819Y-75095237D01*
X136704819Y-75095237D02*
X136704819Y-74904761D01*
X136704819Y-74904761D02*
X136657200Y-74809523D01*
X136657200Y-74809523D02*
X136609580Y-74761904D01*
X136609580Y-74761904D02*
X136514342Y-74714285D01*
X136514342Y-74714285D02*
X136276247Y-74714285D01*
X136276247Y-74714285D02*
X136181009Y-74761904D01*
X136181009Y-74761904D02*
X136133390Y-74809523D01*
X136133390Y-74809523D02*
X136085771Y-74904761D01*
X136085771Y-74904761D02*
X136085771Y-75095237D01*
X136085771Y-75095237D02*
X136133390Y-75190475D01*
X136133390Y-75190475D02*
X136181009Y-75238094D01*
X136181009Y-75238094D02*
X136276247Y-75285713D01*
X143957142Y-55559580D02*
X143909523Y-55607200D01*
X143909523Y-55607200D02*
X143766666Y-55654819D01*
X143766666Y-55654819D02*
X143671428Y-55654819D01*
X143671428Y-55654819D02*
X143528571Y-55607200D01*
X143528571Y-55607200D02*
X143433333Y-55511961D01*
X143433333Y-55511961D02*
X143385714Y-55416723D01*
X143385714Y-55416723D02*
X143338095Y-55226247D01*
X143338095Y-55226247D02*
X143338095Y-55083390D01*
X143338095Y-55083390D02*
X143385714Y-54892914D01*
X143385714Y-54892914D02*
X143433333Y-54797676D01*
X143433333Y-54797676D02*
X143528571Y-54702438D01*
X143528571Y-54702438D02*
X143671428Y-54654819D01*
X143671428Y-54654819D02*
X143766666Y-54654819D01*
X143766666Y-54654819D02*
X143909523Y-54702438D01*
X143909523Y-54702438D02*
X143957142Y-54750057D01*
X144909523Y-55654819D02*
X144338095Y-55654819D01*
X144623809Y-55654819D02*
X144623809Y-54654819D01*
X144623809Y-54654819D02*
X144528571Y-54797676D01*
X144528571Y-54797676D02*
X144433333Y-54892914D01*
X144433333Y-54892914D02*
X144338095Y-54940533D01*
X145766666Y-54988152D02*
X145766666Y-55654819D01*
X145528571Y-54607200D02*
X145290476Y-55321485D01*
X145290476Y-55321485D02*
X145909523Y-55321485D01*
X173607142Y-109954819D02*
X173273809Y-109478628D01*
X173035714Y-109954819D02*
X173035714Y-108954819D01*
X173035714Y-108954819D02*
X173416666Y-108954819D01*
X173416666Y-108954819D02*
X173511904Y-109002438D01*
X173511904Y-109002438D02*
X173559523Y-109050057D01*
X173559523Y-109050057D02*
X173607142Y-109145295D01*
X173607142Y-109145295D02*
X173607142Y-109288152D01*
X173607142Y-109288152D02*
X173559523Y-109383390D01*
X173559523Y-109383390D02*
X173511904Y-109431009D01*
X173511904Y-109431009D02*
X173416666Y-109478628D01*
X173416666Y-109478628D02*
X173035714Y-109478628D01*
X173988095Y-109050057D02*
X174035714Y-109002438D01*
X174035714Y-109002438D02*
X174130952Y-108954819D01*
X174130952Y-108954819D02*
X174369047Y-108954819D01*
X174369047Y-108954819D02*
X174464285Y-109002438D01*
X174464285Y-109002438D02*
X174511904Y-109050057D01*
X174511904Y-109050057D02*
X174559523Y-109145295D01*
X174559523Y-109145295D02*
X174559523Y-109240533D01*
X174559523Y-109240533D02*
X174511904Y-109383390D01*
X174511904Y-109383390D02*
X173940476Y-109954819D01*
X173940476Y-109954819D02*
X174559523Y-109954819D01*
X175416666Y-109288152D02*
X175416666Y-109954819D01*
X175178571Y-108907200D02*
X174940476Y-109621485D01*
X174940476Y-109621485D02*
X175559523Y-109621485D01*
X148704819Y-75892857D02*
X148228628Y-76226190D01*
X148704819Y-76464285D02*
X147704819Y-76464285D01*
X147704819Y-76464285D02*
X147704819Y-76083333D01*
X147704819Y-76083333D02*
X147752438Y-75988095D01*
X147752438Y-75988095D02*
X147800057Y-75940476D01*
X147800057Y-75940476D02*
X147895295Y-75892857D01*
X147895295Y-75892857D02*
X148038152Y-75892857D01*
X148038152Y-75892857D02*
X148133390Y-75940476D01*
X148133390Y-75940476D02*
X148181009Y-75988095D01*
X148181009Y-75988095D02*
X148228628Y-76083333D01*
X148228628Y-76083333D02*
X148228628Y-76464285D01*
X148704819Y-74940476D02*
X148704819Y-75511904D01*
X148704819Y-75226190D02*
X147704819Y-75226190D01*
X147704819Y-75226190D02*
X147847676Y-75321428D01*
X147847676Y-75321428D02*
X147942914Y-75416666D01*
X147942914Y-75416666D02*
X147990533Y-75511904D01*
X147800057Y-74559523D02*
X147752438Y-74511904D01*
X147752438Y-74511904D02*
X147704819Y-74416666D01*
X147704819Y-74416666D02*
X147704819Y-74178571D01*
X147704819Y-74178571D02*
X147752438Y-74083333D01*
X147752438Y-74083333D02*
X147800057Y-74035714D01*
X147800057Y-74035714D02*
X147895295Y-73988095D01*
X147895295Y-73988095D02*
X147990533Y-73988095D01*
X147990533Y-73988095D02*
X148133390Y-74035714D01*
X148133390Y-74035714D02*
X148704819Y-74607142D01*
X148704819Y-74607142D02*
X148704819Y-73988095D01*
X163454819Y-99095238D02*
X162978628Y-99428571D01*
X163454819Y-99666666D02*
X162454819Y-99666666D01*
X162454819Y-99666666D02*
X162454819Y-99285714D01*
X162454819Y-99285714D02*
X162502438Y-99190476D01*
X162502438Y-99190476D02*
X162550057Y-99142857D01*
X162550057Y-99142857D02*
X162645295Y-99095238D01*
X162645295Y-99095238D02*
X162788152Y-99095238D01*
X162788152Y-99095238D02*
X162883390Y-99142857D01*
X162883390Y-99142857D02*
X162931009Y-99190476D01*
X162931009Y-99190476D02*
X162978628Y-99285714D01*
X162978628Y-99285714D02*
X162978628Y-99666666D01*
X162454819Y-98809523D02*
X163454819Y-98476190D01*
X163454819Y-98476190D02*
X162454819Y-98142857D01*
X162454819Y-97904761D02*
X162454819Y-97285714D01*
X162454819Y-97285714D02*
X162835771Y-97619047D01*
X162835771Y-97619047D02*
X162835771Y-97476190D01*
X162835771Y-97476190D02*
X162883390Y-97380952D01*
X162883390Y-97380952D02*
X162931009Y-97333333D01*
X162931009Y-97333333D02*
X163026247Y-97285714D01*
X163026247Y-97285714D02*
X163264342Y-97285714D01*
X163264342Y-97285714D02*
X163359580Y-97333333D01*
X163359580Y-97333333D02*
X163407200Y-97380952D01*
X163407200Y-97380952D02*
X163454819Y-97476190D01*
X163454819Y-97476190D02*
X163454819Y-97761904D01*
X163454819Y-97761904D02*
X163407200Y-97857142D01*
X163407200Y-97857142D02*
X163359580Y-97904761D01*
X158666666Y-119454819D02*
X158666666Y-120169104D01*
X158666666Y-120169104D02*
X158619047Y-120311961D01*
X158619047Y-120311961D02*
X158523809Y-120407200D01*
X158523809Y-120407200D02*
X158380952Y-120454819D01*
X158380952Y-120454819D02*
X158285714Y-120454819D01*
X159619047Y-119454819D02*
X159142857Y-119454819D01*
X159142857Y-119454819D02*
X159095238Y-119931009D01*
X159095238Y-119931009D02*
X159142857Y-119883390D01*
X159142857Y-119883390D02*
X159238095Y-119835771D01*
X159238095Y-119835771D02*
X159476190Y-119835771D01*
X159476190Y-119835771D02*
X159571428Y-119883390D01*
X159571428Y-119883390D02*
X159619047Y-119931009D01*
X159619047Y-119931009D02*
X159666666Y-120026247D01*
X159666666Y-120026247D02*
X159666666Y-120264342D01*
X159666666Y-120264342D02*
X159619047Y-120359580D01*
X159619047Y-120359580D02*
X159571428Y-120407200D01*
X159571428Y-120407200D02*
X159476190Y-120454819D01*
X159476190Y-120454819D02*
X159238095Y-120454819D01*
X159238095Y-120454819D02*
X159142857Y-120407200D01*
X159142857Y-120407200D02*
X159095238Y-120359580D01*
X156161904Y-123931009D02*
X156495237Y-123931009D01*
X156638094Y-124454819D02*
X156161904Y-124454819D01*
X156161904Y-124454819D02*
X156161904Y-123454819D01*
X156161904Y-123454819D02*
X156638094Y-123454819D01*
X156923809Y-123788152D02*
X157304761Y-123788152D01*
X157066666Y-124454819D02*
X157066666Y-123597676D01*
X157066666Y-123597676D02*
X157114285Y-123502438D01*
X157114285Y-123502438D02*
X157209523Y-123454819D01*
X157209523Y-123454819D02*
X157304761Y-123454819D01*
X157495238Y-123788152D02*
X157876190Y-123788152D01*
X157638095Y-124454819D02*
X157638095Y-123597676D01*
X157638095Y-123597676D02*
X157685714Y-123502438D01*
X157685714Y-123502438D02*
X157780952Y-123454819D01*
X157780952Y-123454819D02*
X157876190Y-123454819D01*
X158590476Y-124407200D02*
X158495238Y-124454819D01*
X158495238Y-124454819D02*
X158304762Y-124454819D01*
X158304762Y-124454819D02*
X158209524Y-124407200D01*
X158209524Y-124407200D02*
X158161905Y-124311961D01*
X158161905Y-124311961D02*
X158161905Y-123931009D01*
X158161905Y-123931009D02*
X158209524Y-123835771D01*
X158209524Y-123835771D02*
X158304762Y-123788152D01*
X158304762Y-123788152D02*
X158495238Y-123788152D01*
X158495238Y-123788152D02*
X158590476Y-123835771D01*
X158590476Y-123835771D02*
X158638095Y-123931009D01*
X158638095Y-123931009D02*
X158638095Y-124026247D01*
X158638095Y-124026247D02*
X158161905Y-124121485D01*
X159495238Y-124407200D02*
X159400000Y-124454819D01*
X159400000Y-124454819D02*
X159209524Y-124454819D01*
X159209524Y-124454819D02*
X159114286Y-124407200D01*
X159114286Y-124407200D02*
X159066667Y-124359580D01*
X159066667Y-124359580D02*
X159019048Y-124264342D01*
X159019048Y-124264342D02*
X159019048Y-123978628D01*
X159019048Y-123978628D02*
X159066667Y-123883390D01*
X159066667Y-123883390D02*
X159114286Y-123835771D01*
X159114286Y-123835771D02*
X159209524Y-123788152D01*
X159209524Y-123788152D02*
X159400000Y-123788152D01*
X159400000Y-123788152D02*
X159495238Y-123835771D01*
X159780953Y-123788152D02*
X160161905Y-123788152D01*
X159923810Y-123454819D02*
X159923810Y-124311961D01*
X159923810Y-124311961D02*
X159971429Y-124407200D01*
X159971429Y-124407200D02*
X160066667Y-124454819D01*
X160066667Y-124454819D02*
X160161905Y-124454819D01*
X161447620Y-123454819D02*
X161638096Y-123454819D01*
X161638096Y-123454819D02*
X161733334Y-123502438D01*
X161733334Y-123502438D02*
X161828572Y-123597676D01*
X161828572Y-123597676D02*
X161876191Y-123788152D01*
X161876191Y-123788152D02*
X161876191Y-124121485D01*
X161876191Y-124121485D02*
X161828572Y-124311961D01*
X161828572Y-124311961D02*
X161733334Y-124407200D01*
X161733334Y-124407200D02*
X161638096Y-124454819D01*
X161638096Y-124454819D02*
X161447620Y-124454819D01*
X161447620Y-124454819D02*
X161352382Y-124407200D01*
X161352382Y-124407200D02*
X161257144Y-124311961D01*
X161257144Y-124311961D02*
X161209525Y-124121485D01*
X161209525Y-124121485D02*
X161209525Y-123788152D01*
X161209525Y-123788152D02*
X161257144Y-123597676D01*
X161257144Y-123597676D02*
X161352382Y-123502438D01*
X161352382Y-123502438D02*
X161447620Y-123454819D01*
X162304763Y-123454819D02*
X162304763Y-124264342D01*
X162304763Y-124264342D02*
X162352382Y-124359580D01*
X162352382Y-124359580D02*
X162400001Y-124407200D01*
X162400001Y-124407200D02*
X162495239Y-124454819D01*
X162495239Y-124454819D02*
X162685715Y-124454819D01*
X162685715Y-124454819D02*
X162780953Y-124407200D01*
X162780953Y-124407200D02*
X162828572Y-124359580D01*
X162828572Y-124359580D02*
X162876191Y-124264342D01*
X162876191Y-124264342D02*
X162876191Y-123454819D01*
X163209525Y-123454819D02*
X163780953Y-123454819D01*
X163495239Y-124454819D02*
X163495239Y-123454819D01*
X146609580Y-98666666D02*
X146657200Y-98714285D01*
X146657200Y-98714285D02*
X146704819Y-98857142D01*
X146704819Y-98857142D02*
X146704819Y-98952380D01*
X146704819Y-98952380D02*
X146657200Y-99095237D01*
X146657200Y-99095237D02*
X146561961Y-99190475D01*
X146561961Y-99190475D02*
X146466723Y-99238094D01*
X146466723Y-99238094D02*
X146276247Y-99285713D01*
X146276247Y-99285713D02*
X146133390Y-99285713D01*
X146133390Y-99285713D02*
X145942914Y-99238094D01*
X145942914Y-99238094D02*
X145847676Y-99190475D01*
X145847676Y-99190475D02*
X145752438Y-99095237D01*
X145752438Y-99095237D02*
X145704819Y-98952380D01*
X145704819Y-98952380D02*
X145704819Y-98857142D01*
X145704819Y-98857142D02*
X145752438Y-98714285D01*
X145752438Y-98714285D02*
X145800057Y-98666666D01*
X145800057Y-98285713D02*
X145752438Y-98238094D01*
X145752438Y-98238094D02*
X145704819Y-98142856D01*
X145704819Y-98142856D02*
X145704819Y-97904761D01*
X145704819Y-97904761D02*
X145752438Y-97809523D01*
X145752438Y-97809523D02*
X145800057Y-97761904D01*
X145800057Y-97761904D02*
X145895295Y-97714285D01*
X145895295Y-97714285D02*
X145990533Y-97714285D01*
X145990533Y-97714285D02*
X146133390Y-97761904D01*
X146133390Y-97761904D02*
X146704819Y-98333332D01*
X146704819Y-98333332D02*
X146704819Y-97714285D01*
X178454819Y-98833333D02*
X179169104Y-98833333D01*
X179169104Y-98833333D02*
X179311961Y-98880952D01*
X179311961Y-98880952D02*
X179407200Y-98976190D01*
X179407200Y-98976190D02*
X179454819Y-99119047D01*
X179454819Y-99119047D02*
X179454819Y-99214285D01*
X178454819Y-98452380D02*
X178454819Y-97833333D01*
X178454819Y-97833333D02*
X178835771Y-98166666D01*
X178835771Y-98166666D02*
X178835771Y-98023809D01*
X178835771Y-98023809D02*
X178883390Y-97928571D01*
X178883390Y-97928571D02*
X178931009Y-97880952D01*
X178931009Y-97880952D02*
X179026247Y-97833333D01*
X179026247Y-97833333D02*
X179264342Y-97833333D01*
X179264342Y-97833333D02*
X179359580Y-97880952D01*
X179359580Y-97880952D02*
X179407200Y-97928571D01*
X179407200Y-97928571D02*
X179454819Y-98023809D01*
X179454819Y-98023809D02*
X179454819Y-98309523D01*
X179454819Y-98309523D02*
X179407200Y-98404761D01*
X179407200Y-98404761D02*
X179359580Y-98452380D01*
X143083333Y-105454819D02*
X142750000Y-104978628D01*
X142511905Y-105454819D02*
X142511905Y-104454819D01*
X142511905Y-104454819D02*
X142892857Y-104454819D01*
X142892857Y-104454819D02*
X142988095Y-104502438D01*
X142988095Y-104502438D02*
X143035714Y-104550057D01*
X143035714Y-104550057D02*
X143083333Y-104645295D01*
X143083333Y-104645295D02*
X143083333Y-104788152D01*
X143083333Y-104788152D02*
X143035714Y-104883390D01*
X143035714Y-104883390D02*
X142988095Y-104931009D01*
X142988095Y-104931009D02*
X142892857Y-104978628D01*
X142892857Y-104978628D02*
X142511905Y-104978628D01*
X143559524Y-105454819D02*
X143750000Y-105454819D01*
X143750000Y-105454819D02*
X143845238Y-105407200D01*
X143845238Y-105407200D02*
X143892857Y-105359580D01*
X143892857Y-105359580D02*
X143988095Y-105216723D01*
X143988095Y-105216723D02*
X144035714Y-105026247D01*
X144035714Y-105026247D02*
X144035714Y-104645295D01*
X144035714Y-104645295D02*
X143988095Y-104550057D01*
X143988095Y-104550057D02*
X143940476Y-104502438D01*
X143940476Y-104502438D02*
X143845238Y-104454819D01*
X143845238Y-104454819D02*
X143654762Y-104454819D01*
X143654762Y-104454819D02*
X143559524Y-104502438D01*
X143559524Y-104502438D02*
X143511905Y-104550057D01*
X143511905Y-104550057D02*
X143464286Y-104645295D01*
X143464286Y-104645295D02*
X143464286Y-104883390D01*
X143464286Y-104883390D02*
X143511905Y-104978628D01*
X143511905Y-104978628D02*
X143559524Y-105026247D01*
X143559524Y-105026247D02*
X143654762Y-105073866D01*
X143654762Y-105073866D02*
X143845238Y-105073866D01*
X143845238Y-105073866D02*
X143940476Y-105026247D01*
X143940476Y-105026247D02*
X143988095Y-104978628D01*
X143988095Y-104978628D02*
X144035714Y-104883390D01*
X152857142Y-115454819D02*
X152523809Y-114978628D01*
X152285714Y-115454819D02*
X152285714Y-114454819D01*
X152285714Y-114454819D02*
X152666666Y-114454819D01*
X152666666Y-114454819D02*
X152761904Y-114502438D01*
X152761904Y-114502438D02*
X152809523Y-114550057D01*
X152809523Y-114550057D02*
X152857142Y-114645295D01*
X152857142Y-114645295D02*
X152857142Y-114788152D01*
X152857142Y-114788152D02*
X152809523Y-114883390D01*
X152809523Y-114883390D02*
X152761904Y-114931009D01*
X152761904Y-114931009D02*
X152666666Y-114978628D01*
X152666666Y-114978628D02*
X152285714Y-114978628D01*
X153238095Y-114550057D02*
X153285714Y-114502438D01*
X153285714Y-114502438D02*
X153380952Y-114454819D01*
X153380952Y-114454819D02*
X153619047Y-114454819D01*
X153619047Y-114454819D02*
X153714285Y-114502438D01*
X153714285Y-114502438D02*
X153761904Y-114550057D01*
X153761904Y-114550057D02*
X153809523Y-114645295D01*
X153809523Y-114645295D02*
X153809523Y-114740533D01*
X153809523Y-114740533D02*
X153761904Y-114883390D01*
X153761904Y-114883390D02*
X153190476Y-115454819D01*
X153190476Y-115454819D02*
X153809523Y-115454819D01*
X154761904Y-115454819D02*
X154190476Y-115454819D01*
X154476190Y-115454819D02*
X154476190Y-114454819D01*
X154476190Y-114454819D02*
X154380952Y-114597676D01*
X154380952Y-114597676D02*
X154285714Y-114692914D01*
X154285714Y-114692914D02*
X154190476Y-114740533D01*
X166609580Y-52392857D02*
X166657200Y-52440476D01*
X166657200Y-52440476D02*
X166704819Y-52583333D01*
X166704819Y-52583333D02*
X166704819Y-52678571D01*
X166704819Y-52678571D02*
X166657200Y-52821428D01*
X166657200Y-52821428D02*
X166561961Y-52916666D01*
X166561961Y-52916666D02*
X166466723Y-52964285D01*
X166466723Y-52964285D02*
X166276247Y-53011904D01*
X166276247Y-53011904D02*
X166133390Y-53011904D01*
X166133390Y-53011904D02*
X165942914Y-52964285D01*
X165942914Y-52964285D02*
X165847676Y-52916666D01*
X165847676Y-52916666D02*
X165752438Y-52821428D01*
X165752438Y-52821428D02*
X165704819Y-52678571D01*
X165704819Y-52678571D02*
X165704819Y-52583333D01*
X165704819Y-52583333D02*
X165752438Y-52440476D01*
X165752438Y-52440476D02*
X165800057Y-52392857D01*
X166704819Y-51440476D02*
X166704819Y-52011904D01*
X166704819Y-51726190D02*
X165704819Y-51726190D01*
X165704819Y-51726190D02*
X165847676Y-51821428D01*
X165847676Y-51821428D02*
X165942914Y-51916666D01*
X165942914Y-51916666D02*
X165990533Y-52011904D01*
X165704819Y-50821428D02*
X165704819Y-50726190D01*
X165704819Y-50726190D02*
X165752438Y-50630952D01*
X165752438Y-50630952D02*
X165800057Y-50583333D01*
X165800057Y-50583333D02*
X165895295Y-50535714D01*
X165895295Y-50535714D02*
X166085771Y-50488095D01*
X166085771Y-50488095D02*
X166323866Y-50488095D01*
X166323866Y-50488095D02*
X166514342Y-50535714D01*
X166514342Y-50535714D02*
X166609580Y-50583333D01*
X166609580Y-50583333D02*
X166657200Y-50630952D01*
X166657200Y-50630952D02*
X166704819Y-50726190D01*
X166704819Y-50726190D02*
X166704819Y-50821428D01*
X166704819Y-50821428D02*
X166657200Y-50916666D01*
X166657200Y-50916666D02*
X166609580Y-50964285D01*
X166609580Y-50964285D02*
X166514342Y-51011904D01*
X166514342Y-51011904D02*
X166323866Y-51059523D01*
X166323866Y-51059523D02*
X166085771Y-51059523D01*
X166085771Y-51059523D02*
X165895295Y-51011904D01*
X165895295Y-51011904D02*
X165800057Y-50964285D01*
X165800057Y-50964285D02*
X165752438Y-50916666D01*
X165752438Y-50916666D02*
X165704819Y-50821428D01*
X135357142Y-66454819D02*
X135023809Y-65978628D01*
X134785714Y-66454819D02*
X134785714Y-65454819D01*
X134785714Y-65454819D02*
X135166666Y-65454819D01*
X135166666Y-65454819D02*
X135261904Y-65502438D01*
X135261904Y-65502438D02*
X135309523Y-65550057D01*
X135309523Y-65550057D02*
X135357142Y-65645295D01*
X135357142Y-65645295D02*
X135357142Y-65788152D01*
X135357142Y-65788152D02*
X135309523Y-65883390D01*
X135309523Y-65883390D02*
X135261904Y-65931009D01*
X135261904Y-65931009D02*
X135166666Y-65978628D01*
X135166666Y-65978628D02*
X134785714Y-65978628D01*
X135738095Y-65550057D02*
X135785714Y-65502438D01*
X135785714Y-65502438D02*
X135880952Y-65454819D01*
X135880952Y-65454819D02*
X136119047Y-65454819D01*
X136119047Y-65454819D02*
X136214285Y-65502438D01*
X136214285Y-65502438D02*
X136261904Y-65550057D01*
X136261904Y-65550057D02*
X136309523Y-65645295D01*
X136309523Y-65645295D02*
X136309523Y-65740533D01*
X136309523Y-65740533D02*
X136261904Y-65883390D01*
X136261904Y-65883390D02*
X135690476Y-66454819D01*
X135690476Y-66454819D02*
X136309523Y-66454819D01*
X136642857Y-65454819D02*
X137261904Y-65454819D01*
X137261904Y-65454819D02*
X136928571Y-65835771D01*
X136928571Y-65835771D02*
X137071428Y-65835771D01*
X137071428Y-65835771D02*
X137166666Y-65883390D01*
X137166666Y-65883390D02*
X137214285Y-65931009D01*
X137214285Y-65931009D02*
X137261904Y-66026247D01*
X137261904Y-66026247D02*
X137261904Y-66264342D01*
X137261904Y-66264342D02*
X137214285Y-66359580D01*
X137214285Y-66359580D02*
X137166666Y-66407200D01*
X137166666Y-66407200D02*
X137071428Y-66454819D01*
X137071428Y-66454819D02*
X136785714Y-66454819D01*
X136785714Y-66454819D02*
X136690476Y-66407200D01*
X136690476Y-66407200D02*
X136642857Y-66359580D01*
X131038135Y-119646402D02*
X131085755Y-119694021D01*
X131085755Y-119694021D02*
X131133374Y-119836878D01*
X131133374Y-119836878D02*
X131133374Y-119932116D01*
X131133374Y-119932116D02*
X131085755Y-120074973D01*
X131085755Y-120074973D02*
X130990516Y-120170211D01*
X130990516Y-120170211D02*
X130895278Y-120217830D01*
X130895278Y-120217830D02*
X130704802Y-120265449D01*
X130704802Y-120265449D02*
X130561945Y-120265449D01*
X130561945Y-120265449D02*
X130371469Y-120217830D01*
X130371469Y-120217830D02*
X130276231Y-120170211D01*
X130276231Y-120170211D02*
X130180993Y-120074973D01*
X130180993Y-120074973D02*
X130133374Y-119932116D01*
X130133374Y-119932116D02*
X130133374Y-119836878D01*
X130133374Y-119836878D02*
X130180993Y-119694021D01*
X130180993Y-119694021D02*
X130228612Y-119646402D01*
X130466707Y-118789259D02*
X131133374Y-118789259D01*
X130085755Y-119027354D02*
X130800040Y-119265449D01*
X130800040Y-119265449D02*
X130800040Y-118646402D01*
X173824819Y-100298094D02*
X172824819Y-100298094D01*
X172824819Y-100298094D02*
X172824819Y-100059999D01*
X172824819Y-100059999D02*
X172872438Y-99917142D01*
X172872438Y-99917142D02*
X172967676Y-99821904D01*
X172967676Y-99821904D02*
X173062914Y-99774285D01*
X173062914Y-99774285D02*
X173253390Y-99726666D01*
X173253390Y-99726666D02*
X173396247Y-99726666D01*
X173396247Y-99726666D02*
X173586723Y-99774285D01*
X173586723Y-99774285D02*
X173681961Y-99821904D01*
X173681961Y-99821904D02*
X173777200Y-99917142D01*
X173777200Y-99917142D02*
X173824819Y-100059999D01*
X173824819Y-100059999D02*
X173824819Y-100298094D01*
X173824819Y-98774285D02*
X173824819Y-99345713D01*
X173824819Y-99059999D02*
X172824819Y-99059999D01*
X172824819Y-99059999D02*
X172967676Y-99155237D01*
X172967676Y-99155237D02*
X173062914Y-99250475D01*
X173062914Y-99250475D02*
X173110533Y-99345713D01*
X173504819Y-96011904D02*
X172504819Y-96011904D01*
X173504819Y-95440476D02*
X172933390Y-95869047D01*
X172504819Y-95440476D02*
X173076247Y-96011904D01*
X150334819Y-64392857D02*
X149858628Y-64726190D01*
X150334819Y-64964285D02*
X149334819Y-64964285D01*
X149334819Y-64964285D02*
X149334819Y-64583333D01*
X149334819Y-64583333D02*
X149382438Y-64488095D01*
X149382438Y-64488095D02*
X149430057Y-64440476D01*
X149430057Y-64440476D02*
X149525295Y-64392857D01*
X149525295Y-64392857D02*
X149668152Y-64392857D01*
X149668152Y-64392857D02*
X149763390Y-64440476D01*
X149763390Y-64440476D02*
X149811009Y-64488095D01*
X149811009Y-64488095D02*
X149858628Y-64583333D01*
X149858628Y-64583333D02*
X149858628Y-64964285D01*
X150334819Y-63440476D02*
X150334819Y-64011904D01*
X150334819Y-63726190D02*
X149334819Y-63726190D01*
X149334819Y-63726190D02*
X149477676Y-63821428D01*
X149477676Y-63821428D02*
X149572914Y-63916666D01*
X149572914Y-63916666D02*
X149620533Y-64011904D01*
X149668152Y-62583333D02*
X150334819Y-62583333D01*
X149287200Y-62821428D02*
X150001485Y-63059523D01*
X150001485Y-63059523D02*
X150001485Y-62440476D01*
X174107142Y-63834819D02*
X173773809Y-63358628D01*
X173535714Y-63834819D02*
X173535714Y-62834819D01*
X173535714Y-62834819D02*
X173916666Y-62834819D01*
X173916666Y-62834819D02*
X174011904Y-62882438D01*
X174011904Y-62882438D02*
X174059523Y-62930057D01*
X174059523Y-62930057D02*
X174107142Y-63025295D01*
X174107142Y-63025295D02*
X174107142Y-63168152D01*
X174107142Y-63168152D02*
X174059523Y-63263390D01*
X174059523Y-63263390D02*
X174011904Y-63311009D01*
X174011904Y-63311009D02*
X173916666Y-63358628D01*
X173916666Y-63358628D02*
X173535714Y-63358628D01*
X175059523Y-63834819D02*
X174488095Y-63834819D01*
X174773809Y-63834819D02*
X174773809Y-62834819D01*
X174773809Y-62834819D02*
X174678571Y-62977676D01*
X174678571Y-62977676D02*
X174583333Y-63072914D01*
X174583333Y-63072914D02*
X174488095Y-63120533D01*
X175535714Y-63834819D02*
X175726190Y-63834819D01*
X175726190Y-63834819D02*
X175821428Y-63787200D01*
X175821428Y-63787200D02*
X175869047Y-63739580D01*
X175869047Y-63739580D02*
X175964285Y-63596723D01*
X175964285Y-63596723D02*
X176011904Y-63406247D01*
X176011904Y-63406247D02*
X176011904Y-63025295D01*
X176011904Y-63025295D02*
X175964285Y-62930057D01*
X175964285Y-62930057D02*
X175916666Y-62882438D01*
X175916666Y-62882438D02*
X175821428Y-62834819D01*
X175821428Y-62834819D02*
X175630952Y-62834819D01*
X175630952Y-62834819D02*
X175535714Y-62882438D01*
X175535714Y-62882438D02*
X175488095Y-62930057D01*
X175488095Y-62930057D02*
X175440476Y-63025295D01*
X175440476Y-63025295D02*
X175440476Y-63263390D01*
X175440476Y-63263390D02*
X175488095Y-63358628D01*
X175488095Y-63358628D02*
X175535714Y-63406247D01*
X175535714Y-63406247D02*
X175630952Y-63453866D01*
X175630952Y-63453866D02*
X175821428Y-63453866D01*
X175821428Y-63453866D02*
X175916666Y-63406247D01*
X175916666Y-63406247D02*
X175964285Y-63358628D01*
X175964285Y-63358628D02*
X176011904Y-63263390D01*
X157873585Y-57118848D02*
X157873585Y-57833133D01*
X157873585Y-57833133D02*
X157825966Y-57975990D01*
X157825966Y-57975990D02*
X157730728Y-58071229D01*
X157730728Y-58071229D02*
X157587871Y-58118848D01*
X157587871Y-58118848D02*
X157492633Y-58118848D01*
X158778347Y-57452181D02*
X158778347Y-58118848D01*
X158540252Y-57071229D02*
X158302157Y-57785514D01*
X158302157Y-57785514D02*
X158921204Y-57785514D01*
X131204819Y-86892857D02*
X130728628Y-87226190D01*
X131204819Y-87464285D02*
X130204819Y-87464285D01*
X130204819Y-87464285D02*
X130204819Y-87083333D01*
X130204819Y-87083333D02*
X130252438Y-86988095D01*
X130252438Y-86988095D02*
X130300057Y-86940476D01*
X130300057Y-86940476D02*
X130395295Y-86892857D01*
X130395295Y-86892857D02*
X130538152Y-86892857D01*
X130538152Y-86892857D02*
X130633390Y-86940476D01*
X130633390Y-86940476D02*
X130681009Y-86988095D01*
X130681009Y-86988095D02*
X130728628Y-87083333D01*
X130728628Y-87083333D02*
X130728628Y-87464285D01*
X131204819Y-85940476D02*
X131204819Y-86511904D01*
X131204819Y-86226190D02*
X130204819Y-86226190D01*
X130204819Y-86226190D02*
X130347676Y-86321428D01*
X130347676Y-86321428D02*
X130442914Y-86416666D01*
X130442914Y-86416666D02*
X130490533Y-86511904D01*
X131204819Y-84988095D02*
X131204819Y-85559523D01*
X131204819Y-85273809D02*
X130204819Y-85273809D01*
X130204819Y-85273809D02*
X130347676Y-85369047D01*
X130347676Y-85369047D02*
X130442914Y-85464285D01*
X130442914Y-85464285D02*
X130490533Y-85559523D01*
X141609580Y-52192857D02*
X141657200Y-52240476D01*
X141657200Y-52240476D02*
X141704819Y-52383333D01*
X141704819Y-52383333D02*
X141704819Y-52478571D01*
X141704819Y-52478571D02*
X141657200Y-52621428D01*
X141657200Y-52621428D02*
X141561961Y-52716666D01*
X141561961Y-52716666D02*
X141466723Y-52764285D01*
X141466723Y-52764285D02*
X141276247Y-52811904D01*
X141276247Y-52811904D02*
X141133390Y-52811904D01*
X141133390Y-52811904D02*
X140942914Y-52764285D01*
X140942914Y-52764285D02*
X140847676Y-52716666D01*
X140847676Y-52716666D02*
X140752438Y-52621428D01*
X140752438Y-52621428D02*
X140704819Y-52478571D01*
X140704819Y-52478571D02*
X140704819Y-52383333D01*
X140704819Y-52383333D02*
X140752438Y-52240476D01*
X140752438Y-52240476D02*
X140800057Y-52192857D01*
X141704819Y-51240476D02*
X141704819Y-51811904D01*
X141704819Y-51526190D02*
X140704819Y-51526190D01*
X140704819Y-51526190D02*
X140847676Y-51621428D01*
X140847676Y-51621428D02*
X140942914Y-51716666D01*
X140942914Y-51716666D02*
X140990533Y-51811904D01*
X140704819Y-50335714D02*
X140704819Y-50811904D01*
X140704819Y-50811904D02*
X141181009Y-50859523D01*
X141181009Y-50859523D02*
X141133390Y-50811904D01*
X141133390Y-50811904D02*
X141085771Y-50716666D01*
X141085771Y-50716666D02*
X141085771Y-50478571D01*
X141085771Y-50478571D02*
X141133390Y-50383333D01*
X141133390Y-50383333D02*
X141181009Y-50335714D01*
X141181009Y-50335714D02*
X141276247Y-50288095D01*
X141276247Y-50288095D02*
X141514342Y-50288095D01*
X141514342Y-50288095D02*
X141609580Y-50335714D01*
X141609580Y-50335714D02*
X141657200Y-50383333D01*
X141657200Y-50383333D02*
X141704819Y-50478571D01*
X141704819Y-50478571D02*
X141704819Y-50716666D01*
X141704819Y-50716666D02*
X141657200Y-50811904D01*
X141657200Y-50811904D02*
X141609580Y-50859523D01*
X145144761Y-90470057D02*
X145049523Y-90422438D01*
X145049523Y-90422438D02*
X144954285Y-90327200D01*
X144954285Y-90327200D02*
X144811428Y-90184342D01*
X144811428Y-90184342D02*
X144716190Y-90136723D01*
X144716190Y-90136723D02*
X144620952Y-90136723D01*
X144668571Y-90374819D02*
X144573333Y-90327200D01*
X144573333Y-90327200D02*
X144478095Y-90231961D01*
X144478095Y-90231961D02*
X144430476Y-90041485D01*
X144430476Y-90041485D02*
X144430476Y-89708152D01*
X144430476Y-89708152D02*
X144478095Y-89517676D01*
X144478095Y-89517676D02*
X144573333Y-89422438D01*
X144573333Y-89422438D02*
X144668571Y-89374819D01*
X144668571Y-89374819D02*
X144859047Y-89374819D01*
X144859047Y-89374819D02*
X144954285Y-89422438D01*
X144954285Y-89422438D02*
X145049523Y-89517676D01*
X145049523Y-89517676D02*
X145097142Y-89708152D01*
X145097142Y-89708152D02*
X145097142Y-90041485D01*
X145097142Y-90041485D02*
X145049523Y-90231961D01*
X145049523Y-90231961D02*
X144954285Y-90327200D01*
X144954285Y-90327200D02*
X144859047Y-90374819D01*
X144859047Y-90374819D02*
X144668571Y-90374819D01*
X145478095Y-89470057D02*
X145525714Y-89422438D01*
X145525714Y-89422438D02*
X145620952Y-89374819D01*
X145620952Y-89374819D02*
X145859047Y-89374819D01*
X145859047Y-89374819D02*
X145954285Y-89422438D01*
X145954285Y-89422438D02*
X146001904Y-89470057D01*
X146001904Y-89470057D02*
X146049523Y-89565295D01*
X146049523Y-89565295D02*
X146049523Y-89660533D01*
X146049523Y-89660533D02*
X146001904Y-89803390D01*
X146001904Y-89803390D02*
X145430476Y-90374819D01*
X145430476Y-90374819D02*
X146049523Y-90374819D01*
X159857142Y-105859580D02*
X159809523Y-105907200D01*
X159809523Y-105907200D02*
X159666666Y-105954819D01*
X159666666Y-105954819D02*
X159571428Y-105954819D01*
X159571428Y-105954819D02*
X159428571Y-105907200D01*
X159428571Y-105907200D02*
X159333333Y-105811961D01*
X159333333Y-105811961D02*
X159285714Y-105716723D01*
X159285714Y-105716723D02*
X159238095Y-105526247D01*
X159238095Y-105526247D02*
X159238095Y-105383390D01*
X159238095Y-105383390D02*
X159285714Y-105192914D01*
X159285714Y-105192914D02*
X159333333Y-105097676D01*
X159333333Y-105097676D02*
X159428571Y-105002438D01*
X159428571Y-105002438D02*
X159571428Y-104954819D01*
X159571428Y-104954819D02*
X159666666Y-104954819D01*
X159666666Y-104954819D02*
X159809523Y-105002438D01*
X159809523Y-105002438D02*
X159857142Y-105050057D01*
X160809523Y-105954819D02*
X160238095Y-105954819D01*
X160523809Y-105954819D02*
X160523809Y-104954819D01*
X160523809Y-104954819D02*
X160428571Y-105097676D01*
X160428571Y-105097676D02*
X160333333Y-105192914D01*
X160333333Y-105192914D02*
X160238095Y-105240533D01*
X161761904Y-105954819D02*
X161190476Y-105954819D01*
X161476190Y-105954819D02*
X161476190Y-104954819D01*
X161476190Y-104954819D02*
X161380952Y-105097676D01*
X161380952Y-105097676D02*
X161285714Y-105192914D01*
X161285714Y-105192914D02*
X161190476Y-105240533D01*
X155833333Y-105859580D02*
X155785714Y-105907200D01*
X155785714Y-105907200D02*
X155642857Y-105954819D01*
X155642857Y-105954819D02*
X155547619Y-105954819D01*
X155547619Y-105954819D02*
X155404762Y-105907200D01*
X155404762Y-105907200D02*
X155309524Y-105811961D01*
X155309524Y-105811961D02*
X155261905Y-105716723D01*
X155261905Y-105716723D02*
X155214286Y-105526247D01*
X155214286Y-105526247D02*
X155214286Y-105383390D01*
X155214286Y-105383390D02*
X155261905Y-105192914D01*
X155261905Y-105192914D02*
X155309524Y-105097676D01*
X155309524Y-105097676D02*
X155404762Y-105002438D01*
X155404762Y-105002438D02*
X155547619Y-104954819D01*
X155547619Y-104954819D02*
X155642857Y-104954819D01*
X155642857Y-104954819D02*
X155785714Y-105002438D01*
X155785714Y-105002438D02*
X155833333Y-105050057D01*
X156309524Y-105954819D02*
X156500000Y-105954819D01*
X156500000Y-105954819D02*
X156595238Y-105907200D01*
X156595238Y-105907200D02*
X156642857Y-105859580D01*
X156642857Y-105859580D02*
X156738095Y-105716723D01*
X156738095Y-105716723D02*
X156785714Y-105526247D01*
X156785714Y-105526247D02*
X156785714Y-105145295D01*
X156785714Y-105145295D02*
X156738095Y-105050057D01*
X156738095Y-105050057D02*
X156690476Y-105002438D01*
X156690476Y-105002438D02*
X156595238Y-104954819D01*
X156595238Y-104954819D02*
X156404762Y-104954819D01*
X156404762Y-104954819D02*
X156309524Y-105002438D01*
X156309524Y-105002438D02*
X156261905Y-105050057D01*
X156261905Y-105050057D02*
X156214286Y-105145295D01*
X156214286Y-105145295D02*
X156214286Y-105383390D01*
X156214286Y-105383390D02*
X156261905Y-105478628D01*
X156261905Y-105478628D02*
X156309524Y-105526247D01*
X156309524Y-105526247D02*
X156404762Y-105573866D01*
X156404762Y-105573866D02*
X156595238Y-105573866D01*
X156595238Y-105573866D02*
X156690476Y-105526247D01*
X156690476Y-105526247D02*
X156738095Y-105478628D01*
X156738095Y-105478628D02*
X156785714Y-105383390D01*
X143083333Y-115204819D02*
X142750000Y-114728628D01*
X142511905Y-115204819D02*
X142511905Y-114204819D01*
X142511905Y-114204819D02*
X142892857Y-114204819D01*
X142892857Y-114204819D02*
X142988095Y-114252438D01*
X142988095Y-114252438D02*
X143035714Y-114300057D01*
X143035714Y-114300057D02*
X143083333Y-114395295D01*
X143083333Y-114395295D02*
X143083333Y-114538152D01*
X143083333Y-114538152D02*
X143035714Y-114633390D01*
X143035714Y-114633390D02*
X142988095Y-114681009D01*
X142988095Y-114681009D02*
X142892857Y-114728628D01*
X142892857Y-114728628D02*
X142511905Y-114728628D01*
X143416667Y-114204819D02*
X144035714Y-114204819D01*
X144035714Y-114204819D02*
X143702381Y-114585771D01*
X143702381Y-114585771D02*
X143845238Y-114585771D01*
X143845238Y-114585771D02*
X143940476Y-114633390D01*
X143940476Y-114633390D02*
X143988095Y-114681009D01*
X143988095Y-114681009D02*
X144035714Y-114776247D01*
X144035714Y-114776247D02*
X144035714Y-115014342D01*
X144035714Y-115014342D02*
X143988095Y-115109580D01*
X143988095Y-115109580D02*
X143940476Y-115157200D01*
X143940476Y-115157200D02*
X143845238Y-115204819D01*
X143845238Y-115204819D02*
X143559524Y-115204819D01*
X143559524Y-115204819D02*
X143464286Y-115157200D01*
X143464286Y-115157200D02*
X143416667Y-115109580D01*
X155334819Y-64392857D02*
X154858628Y-64726190D01*
X155334819Y-64964285D02*
X154334819Y-64964285D01*
X154334819Y-64964285D02*
X154334819Y-64583333D01*
X154334819Y-64583333D02*
X154382438Y-64488095D01*
X154382438Y-64488095D02*
X154430057Y-64440476D01*
X154430057Y-64440476D02*
X154525295Y-64392857D01*
X154525295Y-64392857D02*
X154668152Y-64392857D01*
X154668152Y-64392857D02*
X154763390Y-64440476D01*
X154763390Y-64440476D02*
X154811009Y-64488095D01*
X154811009Y-64488095D02*
X154858628Y-64583333D01*
X154858628Y-64583333D02*
X154858628Y-64964285D01*
X155334819Y-63440476D02*
X155334819Y-64011904D01*
X155334819Y-63726190D02*
X154334819Y-63726190D01*
X154334819Y-63726190D02*
X154477676Y-63821428D01*
X154477676Y-63821428D02*
X154572914Y-63916666D01*
X154572914Y-63916666D02*
X154620533Y-64011904D01*
X154334819Y-62535714D02*
X154334819Y-63011904D01*
X154334819Y-63011904D02*
X154811009Y-63059523D01*
X154811009Y-63059523D02*
X154763390Y-63011904D01*
X154763390Y-63011904D02*
X154715771Y-62916666D01*
X154715771Y-62916666D02*
X154715771Y-62678571D01*
X154715771Y-62678571D02*
X154763390Y-62583333D01*
X154763390Y-62583333D02*
X154811009Y-62535714D01*
X154811009Y-62535714D02*
X154906247Y-62488095D01*
X154906247Y-62488095D02*
X155144342Y-62488095D01*
X155144342Y-62488095D02*
X155239580Y-62535714D01*
X155239580Y-62535714D02*
X155287200Y-62583333D01*
X155287200Y-62583333D02*
X155334819Y-62678571D01*
X155334819Y-62678571D02*
X155334819Y-62916666D01*
X155334819Y-62916666D02*
X155287200Y-63011904D01*
X155287200Y-63011904D02*
X155239580Y-63059523D01*
X143734819Y-64238094D02*
X142734819Y-64238094D01*
X142734819Y-64238094D02*
X142734819Y-63999999D01*
X142734819Y-63999999D02*
X142782438Y-63857142D01*
X142782438Y-63857142D02*
X142877676Y-63761904D01*
X142877676Y-63761904D02*
X142972914Y-63714285D01*
X142972914Y-63714285D02*
X143163390Y-63666666D01*
X143163390Y-63666666D02*
X143306247Y-63666666D01*
X143306247Y-63666666D02*
X143496723Y-63714285D01*
X143496723Y-63714285D02*
X143591961Y-63761904D01*
X143591961Y-63761904D02*
X143687200Y-63857142D01*
X143687200Y-63857142D02*
X143734819Y-63999999D01*
X143734819Y-63999999D02*
X143734819Y-64238094D01*
X143068152Y-62809523D02*
X143734819Y-62809523D01*
X142687200Y-63047618D02*
X143401485Y-63285713D01*
X143401485Y-63285713D02*
X143401485Y-62666666D01*
X144104819Y-68841904D02*
X143104819Y-68841904D01*
X144104819Y-68270476D02*
X143533390Y-68699047D01*
X143104819Y-68270476D02*
X143676247Y-68841904D01*
X140324819Y-86416666D02*
X139848628Y-86749999D01*
X140324819Y-86988094D02*
X139324819Y-86988094D01*
X139324819Y-86988094D02*
X139324819Y-86607142D01*
X139324819Y-86607142D02*
X139372438Y-86511904D01*
X139372438Y-86511904D02*
X139420057Y-86464285D01*
X139420057Y-86464285D02*
X139515295Y-86416666D01*
X139515295Y-86416666D02*
X139658152Y-86416666D01*
X139658152Y-86416666D02*
X139753390Y-86464285D01*
X139753390Y-86464285D02*
X139801009Y-86511904D01*
X139801009Y-86511904D02*
X139848628Y-86607142D01*
X139848628Y-86607142D02*
X139848628Y-86988094D01*
X139324819Y-85511904D02*
X139324819Y-85988094D01*
X139324819Y-85988094D02*
X139801009Y-86035713D01*
X139801009Y-86035713D02*
X139753390Y-85988094D01*
X139753390Y-85988094D02*
X139705771Y-85892856D01*
X139705771Y-85892856D02*
X139705771Y-85654761D01*
X139705771Y-85654761D02*
X139753390Y-85559523D01*
X139753390Y-85559523D02*
X139801009Y-85511904D01*
X139801009Y-85511904D02*
X139896247Y-85464285D01*
X139896247Y-85464285D02*
X140134342Y-85464285D01*
X140134342Y-85464285D02*
X140229580Y-85511904D01*
X140229580Y-85511904D02*
X140277200Y-85559523D01*
X140277200Y-85559523D02*
X140324819Y-85654761D01*
X140324819Y-85654761D02*
X140324819Y-85892856D01*
X140324819Y-85892856D02*
X140277200Y-85988094D01*
X140277200Y-85988094D02*
X140229580Y-86035713D01*
X168324819Y-87416666D02*
X167848628Y-87749999D01*
X168324819Y-87988094D02*
X167324819Y-87988094D01*
X167324819Y-87988094D02*
X167324819Y-87607142D01*
X167324819Y-87607142D02*
X167372438Y-87511904D01*
X167372438Y-87511904D02*
X167420057Y-87464285D01*
X167420057Y-87464285D02*
X167515295Y-87416666D01*
X167515295Y-87416666D02*
X167658152Y-87416666D01*
X167658152Y-87416666D02*
X167753390Y-87464285D01*
X167753390Y-87464285D02*
X167801009Y-87511904D01*
X167801009Y-87511904D02*
X167848628Y-87607142D01*
X167848628Y-87607142D02*
X167848628Y-87988094D01*
X167324819Y-87083332D02*
X167324819Y-86416666D01*
X167324819Y-86416666D02*
X168324819Y-86845237D01*
X164574819Y-76238094D02*
X163574819Y-76238094D01*
X163574819Y-76238094D02*
X163574819Y-75999999D01*
X163574819Y-75999999D02*
X163622438Y-75857142D01*
X163622438Y-75857142D02*
X163717676Y-75761904D01*
X163717676Y-75761904D02*
X163812914Y-75714285D01*
X163812914Y-75714285D02*
X164003390Y-75666666D01*
X164003390Y-75666666D02*
X164146247Y-75666666D01*
X164146247Y-75666666D02*
X164336723Y-75714285D01*
X164336723Y-75714285D02*
X164431961Y-75761904D01*
X164431961Y-75761904D02*
X164527200Y-75857142D01*
X164527200Y-75857142D02*
X164574819Y-75999999D01*
X164574819Y-75999999D02*
X164574819Y-76238094D01*
X163574819Y-75333332D02*
X163574819Y-74714285D01*
X163574819Y-74714285D02*
X163955771Y-75047618D01*
X163955771Y-75047618D02*
X163955771Y-74904761D01*
X163955771Y-74904761D02*
X164003390Y-74809523D01*
X164003390Y-74809523D02*
X164051009Y-74761904D01*
X164051009Y-74761904D02*
X164146247Y-74714285D01*
X164146247Y-74714285D02*
X164384342Y-74714285D01*
X164384342Y-74714285D02*
X164479580Y-74761904D01*
X164479580Y-74761904D02*
X164527200Y-74809523D01*
X164527200Y-74809523D02*
X164574819Y-74904761D01*
X164574819Y-74904761D02*
X164574819Y-75190475D01*
X164574819Y-75190475D02*
X164527200Y-75285713D01*
X164527200Y-75285713D02*
X164479580Y-75333332D01*
X164254819Y-71951904D02*
X163254819Y-71951904D01*
X164254819Y-71380476D02*
X163683390Y-71809047D01*
X163254819Y-71380476D02*
X163826247Y-71951904D01*
X170854761Y-55990057D02*
X170759523Y-55942438D01*
X170759523Y-55942438D02*
X170664285Y-55847200D01*
X170664285Y-55847200D02*
X170521428Y-55704342D01*
X170521428Y-55704342D02*
X170426190Y-55656723D01*
X170426190Y-55656723D02*
X170330952Y-55656723D01*
X170378571Y-55894819D02*
X170283333Y-55847200D01*
X170283333Y-55847200D02*
X170188095Y-55751961D01*
X170188095Y-55751961D02*
X170140476Y-55561485D01*
X170140476Y-55561485D02*
X170140476Y-55228152D01*
X170140476Y-55228152D02*
X170188095Y-55037676D01*
X170188095Y-55037676D02*
X170283333Y-54942438D01*
X170283333Y-54942438D02*
X170378571Y-54894819D01*
X170378571Y-54894819D02*
X170569047Y-54894819D01*
X170569047Y-54894819D02*
X170664285Y-54942438D01*
X170664285Y-54942438D02*
X170759523Y-55037676D01*
X170759523Y-55037676D02*
X170807142Y-55228152D01*
X170807142Y-55228152D02*
X170807142Y-55561485D01*
X170807142Y-55561485D02*
X170759523Y-55751961D01*
X170759523Y-55751961D02*
X170664285Y-55847200D01*
X170664285Y-55847200D02*
X170569047Y-55894819D01*
X170569047Y-55894819D02*
X170378571Y-55894819D01*
X171140476Y-54894819D02*
X171759523Y-54894819D01*
X171759523Y-54894819D02*
X171426190Y-55275771D01*
X171426190Y-55275771D02*
X171569047Y-55275771D01*
X171569047Y-55275771D02*
X171664285Y-55323390D01*
X171664285Y-55323390D02*
X171711904Y-55371009D01*
X171711904Y-55371009D02*
X171759523Y-55466247D01*
X171759523Y-55466247D02*
X171759523Y-55704342D01*
X171759523Y-55704342D02*
X171711904Y-55799580D01*
X171711904Y-55799580D02*
X171664285Y-55847200D01*
X171664285Y-55847200D02*
X171569047Y-55894819D01*
X171569047Y-55894819D02*
X171283333Y-55894819D01*
X171283333Y-55894819D02*
X171188095Y-55847200D01*
X171188095Y-55847200D02*
X171140476Y-55799580D01*
X143083333Y-120204819D02*
X142750000Y-119728628D01*
X142511905Y-120204819D02*
X142511905Y-119204819D01*
X142511905Y-119204819D02*
X142892857Y-119204819D01*
X142892857Y-119204819D02*
X142988095Y-119252438D01*
X142988095Y-119252438D02*
X143035714Y-119300057D01*
X143035714Y-119300057D02*
X143083333Y-119395295D01*
X143083333Y-119395295D02*
X143083333Y-119538152D01*
X143083333Y-119538152D02*
X143035714Y-119633390D01*
X143035714Y-119633390D02*
X142988095Y-119681009D01*
X142988095Y-119681009D02*
X142892857Y-119728628D01*
X142892857Y-119728628D02*
X142511905Y-119728628D01*
X143940476Y-119204819D02*
X143750000Y-119204819D01*
X143750000Y-119204819D02*
X143654762Y-119252438D01*
X143654762Y-119252438D02*
X143607143Y-119300057D01*
X143607143Y-119300057D02*
X143511905Y-119442914D01*
X143511905Y-119442914D02*
X143464286Y-119633390D01*
X143464286Y-119633390D02*
X143464286Y-120014342D01*
X143464286Y-120014342D02*
X143511905Y-120109580D01*
X143511905Y-120109580D02*
X143559524Y-120157200D01*
X143559524Y-120157200D02*
X143654762Y-120204819D01*
X143654762Y-120204819D02*
X143845238Y-120204819D01*
X143845238Y-120204819D02*
X143940476Y-120157200D01*
X143940476Y-120157200D02*
X143988095Y-120109580D01*
X143988095Y-120109580D02*
X144035714Y-120014342D01*
X144035714Y-120014342D02*
X144035714Y-119776247D01*
X144035714Y-119776247D02*
X143988095Y-119681009D01*
X143988095Y-119681009D02*
X143940476Y-119633390D01*
X143940476Y-119633390D02*
X143845238Y-119585771D01*
X143845238Y-119585771D02*
X143654762Y-119585771D01*
X143654762Y-119585771D02*
X143559524Y-119633390D01*
X143559524Y-119633390D02*
X143511905Y-119681009D01*
X143511905Y-119681009D02*
X143464286Y-119776247D01*
X171738095Y-68314819D02*
X171738095Y-69124342D01*
X171738095Y-69124342D02*
X171785714Y-69219580D01*
X171785714Y-69219580D02*
X171833333Y-69267200D01*
X171833333Y-69267200D02*
X171928571Y-69314819D01*
X171928571Y-69314819D02*
X172119047Y-69314819D01*
X172119047Y-69314819D02*
X172214285Y-69267200D01*
X172214285Y-69267200D02*
X172261904Y-69219580D01*
X172261904Y-69219580D02*
X172309523Y-69124342D01*
X172309523Y-69124342D02*
X172309523Y-68314819D01*
X173309523Y-69314819D02*
X172738095Y-69314819D01*
X173023809Y-69314819D02*
X173023809Y-68314819D01*
X173023809Y-68314819D02*
X172928571Y-68457676D01*
X172928571Y-68457676D02*
X172833333Y-68552914D01*
X172833333Y-68552914D02*
X172738095Y-68600533D01*
X160334819Y-64392857D02*
X159858628Y-64726190D01*
X160334819Y-64964285D02*
X159334819Y-64964285D01*
X159334819Y-64964285D02*
X159334819Y-64583333D01*
X159334819Y-64583333D02*
X159382438Y-64488095D01*
X159382438Y-64488095D02*
X159430057Y-64440476D01*
X159430057Y-64440476D02*
X159525295Y-64392857D01*
X159525295Y-64392857D02*
X159668152Y-64392857D01*
X159668152Y-64392857D02*
X159763390Y-64440476D01*
X159763390Y-64440476D02*
X159811009Y-64488095D01*
X159811009Y-64488095D02*
X159858628Y-64583333D01*
X159858628Y-64583333D02*
X159858628Y-64964285D01*
X160334819Y-63440476D02*
X160334819Y-64011904D01*
X160334819Y-63726190D02*
X159334819Y-63726190D01*
X159334819Y-63726190D02*
X159477676Y-63821428D01*
X159477676Y-63821428D02*
X159572914Y-63916666D01*
X159572914Y-63916666D02*
X159620533Y-64011904D01*
X159763390Y-62869047D02*
X159715771Y-62964285D01*
X159715771Y-62964285D02*
X159668152Y-63011904D01*
X159668152Y-63011904D02*
X159572914Y-63059523D01*
X159572914Y-63059523D02*
X159525295Y-63059523D01*
X159525295Y-63059523D02*
X159430057Y-63011904D01*
X159430057Y-63011904D02*
X159382438Y-62964285D01*
X159382438Y-62964285D02*
X159334819Y-62869047D01*
X159334819Y-62869047D02*
X159334819Y-62678571D01*
X159334819Y-62678571D02*
X159382438Y-62583333D01*
X159382438Y-62583333D02*
X159430057Y-62535714D01*
X159430057Y-62535714D02*
X159525295Y-62488095D01*
X159525295Y-62488095D02*
X159572914Y-62488095D01*
X159572914Y-62488095D02*
X159668152Y-62535714D01*
X159668152Y-62535714D02*
X159715771Y-62583333D01*
X159715771Y-62583333D02*
X159763390Y-62678571D01*
X159763390Y-62678571D02*
X159763390Y-62869047D01*
X159763390Y-62869047D02*
X159811009Y-62964285D01*
X159811009Y-62964285D02*
X159858628Y-63011904D01*
X159858628Y-63011904D02*
X159953866Y-63059523D01*
X159953866Y-63059523D02*
X160144342Y-63059523D01*
X160144342Y-63059523D02*
X160239580Y-63011904D01*
X160239580Y-63011904D02*
X160287200Y-62964285D01*
X160287200Y-62964285D02*
X160334819Y-62869047D01*
X160334819Y-62869047D02*
X160334819Y-62678571D01*
X160334819Y-62678571D02*
X160287200Y-62583333D01*
X160287200Y-62583333D02*
X160239580Y-62535714D01*
X160239580Y-62535714D02*
X160144342Y-62488095D01*
X160144342Y-62488095D02*
X159953866Y-62488095D01*
X159953866Y-62488095D02*
X159858628Y-62535714D01*
X159858628Y-62535714D02*
X159811009Y-62583333D01*
X159811009Y-62583333D02*
X159763390Y-62678571D01*
X155204819Y-76142857D02*
X154728628Y-76476190D01*
X155204819Y-76714285D02*
X154204819Y-76714285D01*
X154204819Y-76714285D02*
X154204819Y-76333333D01*
X154204819Y-76333333D02*
X154252438Y-76238095D01*
X154252438Y-76238095D02*
X154300057Y-76190476D01*
X154300057Y-76190476D02*
X154395295Y-76142857D01*
X154395295Y-76142857D02*
X154538152Y-76142857D01*
X154538152Y-76142857D02*
X154633390Y-76190476D01*
X154633390Y-76190476D02*
X154681009Y-76238095D01*
X154681009Y-76238095D02*
X154728628Y-76333333D01*
X154728628Y-76333333D02*
X154728628Y-76714285D01*
X155204819Y-75190476D02*
X155204819Y-75761904D01*
X155204819Y-75476190D02*
X154204819Y-75476190D01*
X154204819Y-75476190D02*
X154347676Y-75571428D01*
X154347676Y-75571428D02*
X154442914Y-75666666D01*
X154442914Y-75666666D02*
X154490533Y-75761904D01*
X154204819Y-74857142D02*
X154204819Y-74238095D01*
X154204819Y-74238095D02*
X154585771Y-74571428D01*
X154585771Y-74571428D02*
X154585771Y-74428571D01*
X154585771Y-74428571D02*
X154633390Y-74333333D01*
X154633390Y-74333333D02*
X154681009Y-74285714D01*
X154681009Y-74285714D02*
X154776247Y-74238095D01*
X154776247Y-74238095D02*
X155014342Y-74238095D01*
X155014342Y-74238095D02*
X155109580Y-74285714D01*
X155109580Y-74285714D02*
X155157200Y-74333333D01*
X155157200Y-74333333D02*
X155204819Y-74428571D01*
X155204819Y-74428571D02*
X155204819Y-74714285D01*
X155204819Y-74714285D02*
X155157200Y-74809523D01*
X155157200Y-74809523D02*
X155109580Y-74857142D01*
X131300057Y-110345238D02*
X131252438Y-110440476D01*
X131252438Y-110440476D02*
X131157200Y-110535714D01*
X131157200Y-110535714D02*
X131014342Y-110678571D01*
X131014342Y-110678571D02*
X130966723Y-110773809D01*
X130966723Y-110773809D02*
X130966723Y-110869047D01*
X131204819Y-110821428D02*
X131157200Y-110916666D01*
X131157200Y-110916666D02*
X131061961Y-111011904D01*
X131061961Y-111011904D02*
X130871485Y-111059523D01*
X130871485Y-111059523D02*
X130538152Y-111059523D01*
X130538152Y-111059523D02*
X130347676Y-111011904D01*
X130347676Y-111011904D02*
X130252438Y-110916666D01*
X130252438Y-110916666D02*
X130204819Y-110821428D01*
X130204819Y-110821428D02*
X130204819Y-110630952D01*
X130204819Y-110630952D02*
X130252438Y-110535714D01*
X130252438Y-110535714D02*
X130347676Y-110440476D01*
X130347676Y-110440476D02*
X130538152Y-110392857D01*
X130538152Y-110392857D02*
X130871485Y-110392857D01*
X130871485Y-110392857D02*
X131061961Y-110440476D01*
X131061961Y-110440476D02*
X131157200Y-110535714D01*
X131157200Y-110535714D02*
X131204819Y-110630952D01*
X131204819Y-110630952D02*
X131204819Y-110821428D01*
X131204819Y-109440476D02*
X131204819Y-110011904D01*
X131204819Y-109726190D02*
X130204819Y-109726190D01*
X130204819Y-109726190D02*
X130347676Y-109821428D01*
X130347676Y-109821428D02*
X130442914Y-109916666D01*
X130442914Y-109916666D02*
X130490533Y-110011904D01*
X173607142Y-105084819D02*
X173273809Y-104608628D01*
X173035714Y-105084819D02*
X173035714Y-104084819D01*
X173035714Y-104084819D02*
X173416666Y-104084819D01*
X173416666Y-104084819D02*
X173511904Y-104132438D01*
X173511904Y-104132438D02*
X173559523Y-104180057D01*
X173559523Y-104180057D02*
X173607142Y-104275295D01*
X173607142Y-104275295D02*
X173607142Y-104418152D01*
X173607142Y-104418152D02*
X173559523Y-104513390D01*
X173559523Y-104513390D02*
X173511904Y-104561009D01*
X173511904Y-104561009D02*
X173416666Y-104608628D01*
X173416666Y-104608628D02*
X173035714Y-104608628D01*
X173988095Y-104180057D02*
X174035714Y-104132438D01*
X174035714Y-104132438D02*
X174130952Y-104084819D01*
X174130952Y-104084819D02*
X174369047Y-104084819D01*
X174369047Y-104084819D02*
X174464285Y-104132438D01*
X174464285Y-104132438D02*
X174511904Y-104180057D01*
X174511904Y-104180057D02*
X174559523Y-104275295D01*
X174559523Y-104275295D02*
X174559523Y-104370533D01*
X174559523Y-104370533D02*
X174511904Y-104513390D01*
X174511904Y-104513390D02*
X173940476Y-105084819D01*
X173940476Y-105084819D02*
X174559523Y-105084819D01*
X174940476Y-104180057D02*
X174988095Y-104132438D01*
X174988095Y-104132438D02*
X175083333Y-104084819D01*
X175083333Y-104084819D02*
X175321428Y-104084819D01*
X175321428Y-104084819D02*
X175416666Y-104132438D01*
X175416666Y-104132438D02*
X175464285Y-104180057D01*
X175464285Y-104180057D02*
X175511904Y-104275295D01*
X175511904Y-104275295D02*
X175511904Y-104370533D01*
X175511904Y-104370533D02*
X175464285Y-104513390D01*
X175464285Y-104513390D02*
X174892857Y-105084819D01*
X174892857Y-105084819D02*
X175511904Y-105084819D01*
X141454819Y-98666666D02*
X140978628Y-98999999D01*
X141454819Y-99238094D02*
X140454819Y-99238094D01*
X140454819Y-99238094D02*
X140454819Y-98857142D01*
X140454819Y-98857142D02*
X140502438Y-98761904D01*
X140502438Y-98761904D02*
X140550057Y-98714285D01*
X140550057Y-98714285D02*
X140645295Y-98666666D01*
X140645295Y-98666666D02*
X140788152Y-98666666D01*
X140788152Y-98666666D02*
X140883390Y-98714285D01*
X140883390Y-98714285D02*
X140931009Y-98761904D01*
X140931009Y-98761904D02*
X140978628Y-98857142D01*
X140978628Y-98857142D02*
X140978628Y-99238094D01*
X141454819Y-97714285D02*
X141454819Y-98285713D01*
X141454819Y-97999999D02*
X140454819Y-97999999D01*
X140454819Y-97999999D02*
X140597676Y-98095237D01*
X140597676Y-98095237D02*
X140692914Y-98190475D01*
X140692914Y-98190475D02*
X140740533Y-98285713D01*
X135357142Y-61324819D02*
X135023809Y-60848628D01*
X134785714Y-61324819D02*
X134785714Y-60324819D01*
X134785714Y-60324819D02*
X135166666Y-60324819D01*
X135166666Y-60324819D02*
X135261904Y-60372438D01*
X135261904Y-60372438D02*
X135309523Y-60420057D01*
X135309523Y-60420057D02*
X135357142Y-60515295D01*
X135357142Y-60515295D02*
X135357142Y-60658152D01*
X135357142Y-60658152D02*
X135309523Y-60753390D01*
X135309523Y-60753390D02*
X135261904Y-60801009D01*
X135261904Y-60801009D02*
X135166666Y-60848628D01*
X135166666Y-60848628D02*
X134785714Y-60848628D01*
X135738095Y-60420057D02*
X135785714Y-60372438D01*
X135785714Y-60372438D02*
X135880952Y-60324819D01*
X135880952Y-60324819D02*
X136119047Y-60324819D01*
X136119047Y-60324819D02*
X136214285Y-60372438D01*
X136214285Y-60372438D02*
X136261904Y-60420057D01*
X136261904Y-60420057D02*
X136309523Y-60515295D01*
X136309523Y-60515295D02*
X136309523Y-60610533D01*
X136309523Y-60610533D02*
X136261904Y-60753390D01*
X136261904Y-60753390D02*
X135690476Y-61324819D01*
X135690476Y-61324819D02*
X136309523Y-61324819D01*
X136928571Y-60324819D02*
X137023809Y-60324819D01*
X137023809Y-60324819D02*
X137119047Y-60372438D01*
X137119047Y-60372438D02*
X137166666Y-60420057D01*
X137166666Y-60420057D02*
X137214285Y-60515295D01*
X137214285Y-60515295D02*
X137261904Y-60705771D01*
X137261904Y-60705771D02*
X137261904Y-60943866D01*
X137261904Y-60943866D02*
X137214285Y-61134342D01*
X137214285Y-61134342D02*
X137166666Y-61229580D01*
X137166666Y-61229580D02*
X137119047Y-61277200D01*
X137119047Y-61277200D02*
X137023809Y-61324819D01*
X137023809Y-61324819D02*
X136928571Y-61324819D01*
X136928571Y-61324819D02*
X136833333Y-61277200D01*
X136833333Y-61277200D02*
X136785714Y-61229580D01*
X136785714Y-61229580D02*
X136738095Y-61134342D01*
X136738095Y-61134342D02*
X136690476Y-60943866D01*
X136690476Y-60943866D02*
X136690476Y-60705771D01*
X136690476Y-60705771D02*
X136738095Y-60515295D01*
X136738095Y-60515295D02*
X136785714Y-60420057D01*
X136785714Y-60420057D02*
X136833333Y-60372438D01*
X136833333Y-60372438D02*
X136928571Y-60324819D01*
X165334819Y-64392857D02*
X164858628Y-64726190D01*
X165334819Y-64964285D02*
X164334819Y-64964285D01*
X164334819Y-64964285D02*
X164334819Y-64583333D01*
X164334819Y-64583333D02*
X164382438Y-64488095D01*
X164382438Y-64488095D02*
X164430057Y-64440476D01*
X164430057Y-64440476D02*
X164525295Y-64392857D01*
X164525295Y-64392857D02*
X164668152Y-64392857D01*
X164668152Y-64392857D02*
X164763390Y-64440476D01*
X164763390Y-64440476D02*
X164811009Y-64488095D01*
X164811009Y-64488095D02*
X164858628Y-64583333D01*
X164858628Y-64583333D02*
X164858628Y-64964285D01*
X165334819Y-63440476D02*
X165334819Y-64011904D01*
X165334819Y-63726190D02*
X164334819Y-63726190D01*
X164334819Y-63726190D02*
X164477676Y-63821428D01*
X164477676Y-63821428D02*
X164572914Y-63916666D01*
X164572914Y-63916666D02*
X164620533Y-64011904D01*
X164334819Y-63107142D02*
X164334819Y-62440476D01*
X164334819Y-62440476D02*
X165334819Y-62869047D01*
X143109580Y-75666666D02*
X143157200Y-75714285D01*
X143157200Y-75714285D02*
X143204819Y-75857142D01*
X143204819Y-75857142D02*
X143204819Y-75952380D01*
X143204819Y-75952380D02*
X143157200Y-76095237D01*
X143157200Y-76095237D02*
X143061961Y-76190475D01*
X143061961Y-76190475D02*
X142966723Y-76238094D01*
X142966723Y-76238094D02*
X142776247Y-76285713D01*
X142776247Y-76285713D02*
X142633390Y-76285713D01*
X142633390Y-76285713D02*
X142442914Y-76238094D01*
X142442914Y-76238094D02*
X142347676Y-76190475D01*
X142347676Y-76190475D02*
X142252438Y-76095237D01*
X142252438Y-76095237D02*
X142204819Y-75952380D01*
X142204819Y-75952380D02*
X142204819Y-75857142D01*
X142204819Y-75857142D02*
X142252438Y-75714285D01*
X142252438Y-75714285D02*
X142300057Y-75666666D01*
X142204819Y-74761904D02*
X142204819Y-75238094D01*
X142204819Y-75238094D02*
X142681009Y-75285713D01*
X142681009Y-75285713D02*
X142633390Y-75238094D01*
X142633390Y-75238094D02*
X142585771Y-75142856D01*
X142585771Y-75142856D02*
X142585771Y-74904761D01*
X142585771Y-74904761D02*
X142633390Y-74809523D01*
X142633390Y-74809523D02*
X142681009Y-74761904D01*
X142681009Y-74761904D02*
X142776247Y-74714285D01*
X142776247Y-74714285D02*
X143014342Y-74714285D01*
X143014342Y-74714285D02*
X143109580Y-74761904D01*
X143109580Y-74761904D02*
X143157200Y-74809523D01*
X143157200Y-74809523D02*
X143204819Y-74904761D01*
X143204819Y-74904761D02*
X143204819Y-75142856D01*
X143204819Y-75142856D02*
X143157200Y-75238094D01*
X143157200Y-75238094D02*
X143109580Y-75285713D01*
X143083333Y-109954819D02*
X142750000Y-109478628D01*
X142511905Y-109954819D02*
X142511905Y-108954819D01*
X142511905Y-108954819D02*
X142892857Y-108954819D01*
X142892857Y-108954819D02*
X142988095Y-109002438D01*
X142988095Y-109002438D02*
X143035714Y-109050057D01*
X143035714Y-109050057D02*
X143083333Y-109145295D01*
X143083333Y-109145295D02*
X143083333Y-109288152D01*
X143083333Y-109288152D02*
X143035714Y-109383390D01*
X143035714Y-109383390D02*
X142988095Y-109431009D01*
X142988095Y-109431009D02*
X142892857Y-109478628D01*
X142892857Y-109478628D02*
X142511905Y-109478628D01*
X143464286Y-109050057D02*
X143511905Y-109002438D01*
X143511905Y-109002438D02*
X143607143Y-108954819D01*
X143607143Y-108954819D02*
X143845238Y-108954819D01*
X143845238Y-108954819D02*
X143940476Y-109002438D01*
X143940476Y-109002438D02*
X143988095Y-109050057D01*
X143988095Y-109050057D02*
X144035714Y-109145295D01*
X144035714Y-109145295D02*
X144035714Y-109240533D01*
X144035714Y-109240533D02*
X143988095Y-109383390D01*
X143988095Y-109383390D02*
X143416667Y-109954819D01*
X143416667Y-109954819D02*
X144035714Y-109954819D01*
X180074819Y-87666666D02*
X179598628Y-87999999D01*
X180074819Y-88238094D02*
X179074819Y-88238094D01*
X179074819Y-88238094D02*
X179074819Y-87857142D01*
X179074819Y-87857142D02*
X179122438Y-87761904D01*
X179122438Y-87761904D02*
X179170057Y-87714285D01*
X179170057Y-87714285D02*
X179265295Y-87666666D01*
X179265295Y-87666666D02*
X179408152Y-87666666D01*
X179408152Y-87666666D02*
X179503390Y-87714285D01*
X179503390Y-87714285D02*
X179551009Y-87761904D01*
X179551009Y-87761904D02*
X179598628Y-87857142D01*
X179598628Y-87857142D02*
X179598628Y-88238094D01*
X179408152Y-86809523D02*
X180074819Y-86809523D01*
X179027200Y-87047618D02*
X179741485Y-87285713D01*
X179741485Y-87285713D02*
X179741485Y-86666666D01*
X164357142Y-105859580D02*
X164309523Y-105907200D01*
X164309523Y-105907200D02*
X164166666Y-105954819D01*
X164166666Y-105954819D02*
X164071428Y-105954819D01*
X164071428Y-105954819D02*
X163928571Y-105907200D01*
X163928571Y-105907200D02*
X163833333Y-105811961D01*
X163833333Y-105811961D02*
X163785714Y-105716723D01*
X163785714Y-105716723D02*
X163738095Y-105526247D01*
X163738095Y-105526247D02*
X163738095Y-105383390D01*
X163738095Y-105383390D02*
X163785714Y-105192914D01*
X163785714Y-105192914D02*
X163833333Y-105097676D01*
X163833333Y-105097676D02*
X163928571Y-105002438D01*
X163928571Y-105002438D02*
X164071428Y-104954819D01*
X164071428Y-104954819D02*
X164166666Y-104954819D01*
X164166666Y-104954819D02*
X164309523Y-105002438D01*
X164309523Y-105002438D02*
X164357142Y-105050057D01*
X165309523Y-105954819D02*
X164738095Y-105954819D01*
X165023809Y-105954819D02*
X165023809Y-104954819D01*
X165023809Y-104954819D02*
X164928571Y-105097676D01*
X164928571Y-105097676D02*
X164833333Y-105192914D01*
X164833333Y-105192914D02*
X164738095Y-105240533D01*
X165642857Y-104954819D02*
X166261904Y-104954819D01*
X166261904Y-104954819D02*
X165928571Y-105335771D01*
X165928571Y-105335771D02*
X166071428Y-105335771D01*
X166071428Y-105335771D02*
X166166666Y-105383390D01*
X166166666Y-105383390D02*
X166214285Y-105431009D01*
X166214285Y-105431009D02*
X166261904Y-105526247D01*
X166261904Y-105526247D02*
X166261904Y-105764342D01*
X166261904Y-105764342D02*
X166214285Y-105859580D01*
X166214285Y-105859580D02*
X166166666Y-105907200D01*
X166166666Y-105907200D02*
X166071428Y-105954819D01*
X166071428Y-105954819D02*
X165785714Y-105954819D01*
X165785714Y-105954819D02*
X165690476Y-105907200D01*
X165690476Y-105907200D02*
X165642857Y-105859580D01*
X163607142Y-115454819D02*
X163273809Y-114978628D01*
X163035714Y-115454819D02*
X163035714Y-114454819D01*
X163035714Y-114454819D02*
X163416666Y-114454819D01*
X163416666Y-114454819D02*
X163511904Y-114502438D01*
X163511904Y-114502438D02*
X163559523Y-114550057D01*
X163559523Y-114550057D02*
X163607142Y-114645295D01*
X163607142Y-114645295D02*
X163607142Y-114788152D01*
X163607142Y-114788152D02*
X163559523Y-114883390D01*
X163559523Y-114883390D02*
X163511904Y-114931009D01*
X163511904Y-114931009D02*
X163416666Y-114978628D01*
X163416666Y-114978628D02*
X163035714Y-114978628D01*
X164559523Y-115454819D02*
X163988095Y-115454819D01*
X164273809Y-115454819D02*
X164273809Y-114454819D01*
X164273809Y-114454819D02*
X164178571Y-114597676D01*
X164178571Y-114597676D02*
X164083333Y-114692914D01*
X164083333Y-114692914D02*
X163988095Y-114740533D01*
X165416666Y-114454819D02*
X165226190Y-114454819D01*
X165226190Y-114454819D02*
X165130952Y-114502438D01*
X165130952Y-114502438D02*
X165083333Y-114550057D01*
X165083333Y-114550057D02*
X164988095Y-114692914D01*
X164988095Y-114692914D02*
X164940476Y-114883390D01*
X164940476Y-114883390D02*
X164940476Y-115264342D01*
X164940476Y-115264342D02*
X164988095Y-115359580D01*
X164988095Y-115359580D02*
X165035714Y-115407200D01*
X165035714Y-115407200D02*
X165130952Y-115454819D01*
X165130952Y-115454819D02*
X165321428Y-115454819D01*
X165321428Y-115454819D02*
X165416666Y-115407200D01*
X165416666Y-115407200D02*
X165464285Y-115359580D01*
X165464285Y-115359580D02*
X165511904Y-115264342D01*
X165511904Y-115264342D02*
X165511904Y-115026247D01*
X165511904Y-115026247D02*
X165464285Y-114931009D01*
X165464285Y-114931009D02*
X165416666Y-114883390D01*
X165416666Y-114883390D02*
X165321428Y-114835771D01*
X165321428Y-114835771D02*
X165130952Y-114835771D01*
X165130952Y-114835771D02*
X165035714Y-114883390D01*
X165035714Y-114883390D02*
X164988095Y-114931009D01*
X164988095Y-114931009D02*
X164940476Y-115026247D01*
D12*
%TO.C,C7*%
X157130000Y-83530000D02*
X160870000Y-83530000D01*
X157130000Y-90970000D02*
X157130000Y-83530000D01*
X160870000Y-83530000D02*
X160870000Y-90970000D01*
X160870000Y-90970000D02*
X157130000Y-90970000D01*
%TO.C,R8*%
X155880000Y-72230000D02*
X156210000Y-72230000D01*
X155880000Y-78770000D02*
X155880000Y-72230000D01*
X156210000Y-78770000D02*
X155880000Y-78770000D01*
X158290000Y-78770000D02*
X158620000Y-78770000D01*
X158620000Y-72230000D02*
X158290000Y-72230000D01*
X158620000Y-78770000D02*
X158620000Y-72230000D01*
%TO.C,C3*%
X170130000Y-84630000D02*
X170467000Y-84630000D01*
X170130000Y-89870000D02*
X170130000Y-84630000D01*
X170467000Y-89870000D02*
X170130000Y-89870000D01*
X172533000Y-84630000D02*
X172870000Y-84630000D01*
X172870000Y-84630000D02*
X172870000Y-89870000D01*
X172870000Y-89870000D02*
X172533000Y-89870000D01*
%TO.C,J6*%
X170340000Y-115257500D02*
X171560000Y-115257500D01*
X170340000Y-122457500D02*
X171560000Y-122457500D01*
X170340000Y-123677500D02*
X170340000Y-115257500D01*
X171560000Y-115257500D02*
X171560000Y-117457500D01*
X171560000Y-117457500D02*
X170340000Y-117457500D01*
X171560000Y-122457500D02*
X171560000Y-117457500D01*
X172630000Y-118457500D02*
X172950000Y-118457500D01*
X172630000Y-121877500D02*
X172630000Y-118457500D01*
X172950000Y-118457500D02*
X173270000Y-118457500D01*
X172950000Y-121957500D02*
X172630000Y-121877500D01*
X173270000Y-118457500D02*
X173270000Y-121877500D01*
X173270000Y-121877500D02*
X172950000Y-121957500D01*
X174280000Y-117457500D02*
X174120000Y-117457500D01*
X175130000Y-118457500D02*
X175450000Y-118457500D01*
X175130000Y-121877500D02*
X175130000Y-118457500D01*
X175150000Y-114767500D02*
X175450000Y-115367500D01*
X175450000Y-115367500D02*
X175750000Y-114767500D01*
X175450000Y-118457500D02*
X175770000Y-118457500D01*
X175450000Y-121957500D02*
X175130000Y-121877500D01*
X175750000Y-114767500D02*
X175150000Y-114767500D01*
X175770000Y-118457500D02*
X175770000Y-121877500D01*
X175770000Y-121877500D02*
X175450000Y-121957500D01*
X176840000Y-115257500D02*
X178060000Y-115257500D01*
X176840000Y-117457500D02*
X176840000Y-115257500D01*
X176840000Y-117457500D02*
X178060000Y-117457500D01*
X176840000Y-118457500D02*
X171560000Y-118457500D01*
X176840000Y-122457500D02*
X176840000Y-117457500D01*
X178060000Y-115257500D02*
X178060000Y-123677500D01*
X178060000Y-122457500D02*
X176840000Y-122457500D01*
X178060000Y-123677500D02*
X170340000Y-123677500D01*
%TO.C,C1*%
X149630000Y-106280000D02*
X153370000Y-106280000D01*
X149630000Y-113720000D02*
X149630000Y-106280000D01*
X153370000Y-106280000D02*
X153370000Y-113720000D01*
X153370000Y-113720000D02*
X149630000Y-113720000D01*
%TO.C,R10*%
X132730000Y-67130000D02*
X132730000Y-67460000D01*
X132730000Y-69870000D02*
X132730000Y-69540000D01*
X139270000Y-67130000D02*
X132730000Y-67130000D01*
X139270000Y-67460000D02*
X139270000Y-67130000D01*
X139270000Y-69540000D02*
X139270000Y-69870000D01*
X139270000Y-69870000D02*
X132730000Y-69870000D01*
%TO.C,C8*%
X151130000Y-83530000D02*
X154870000Y-83530000D01*
X151130000Y-90970000D02*
X151130000Y-83530000D01*
X154870000Y-83530000D02*
X154870000Y-90970000D01*
X154870000Y-90970000D02*
X151130000Y-90970000D01*
%TO.C,D2*%
X165380000Y-100780000D02*
X167620000Y-100780000D01*
X165380000Y-100900000D02*
X167620000Y-100900000D01*
X165380000Y-101020000D02*
X167620000Y-101020000D01*
X166500000Y-96730000D02*
X166500000Y-97380000D01*
X166500000Y-102270000D02*
X166500000Y-101620000D01*
X165380000Y-101620000D02*
X167620000Y-101620000D01*
X167620000Y-97380000D01*
X165380000Y-97380000D01*
X165380000Y-101620000D01*
%TO.C,C12*%
X171855113Y-59533000D02*
X171855113Y-58967000D01*
X171895113Y-59767000D02*
X171895113Y-58733000D01*
X171935113Y-59927000D02*
X171935113Y-58573000D01*
X171975113Y-60055000D02*
X171975113Y-58445000D01*
X172015113Y-60164000D02*
X172015113Y-58336000D01*
X172055113Y-60261000D02*
X172055113Y-58239000D01*
X172095113Y-60348000D02*
X172095113Y-58152000D01*
X172135113Y-60427000D02*
X172135113Y-58073000D01*
X172175113Y-58210000D02*
X172175113Y-57999000D01*
X172175113Y-60501000D02*
X172175113Y-60290000D01*
X172215113Y-58210000D02*
X172215113Y-57931000D01*
X172215113Y-60569000D02*
X172215113Y-60290000D01*
X172255113Y-58210000D02*
X172255113Y-57867000D01*
X172255113Y-60633000D02*
X172255113Y-60290000D01*
X172295113Y-58210000D02*
X172295113Y-57807000D01*
X172295113Y-60693000D02*
X172295113Y-60290000D01*
X172335113Y-58210000D02*
X172335113Y-57751000D01*
X172335113Y-60749000D02*
X172335113Y-60290000D01*
X172375113Y-58210000D02*
X172375113Y-57697000D01*
X172375113Y-60803000D02*
X172375113Y-60290000D01*
X172415113Y-58210000D02*
X172415113Y-57646000D01*
X172415113Y-60854000D02*
X172415113Y-60290000D01*
X172455113Y-58210000D02*
X172455113Y-57598000D01*
X172455113Y-60902000D02*
X172455113Y-60290000D01*
X172495113Y-58210000D02*
X172495113Y-57551000D01*
X172495113Y-60949000D02*
X172495113Y-60290000D01*
X172535113Y-58210000D02*
X172535113Y-57507000D01*
X172535113Y-60993000D02*
X172535113Y-60290000D01*
X172575113Y-58210000D02*
X172575113Y-57465000D01*
X172575113Y-61035000D02*
X172575113Y-60290000D01*
X172615113Y-58210000D02*
X172615113Y-57425000D01*
X172615113Y-61075000D02*
X172615113Y-60290000D01*
X172655113Y-58210000D02*
X172655113Y-57386000D01*
X172655113Y-61114000D02*
X172655113Y-60290000D01*
X172695113Y-58210000D02*
X172695113Y-57349000D01*
X172695113Y-61151000D02*
X172695113Y-60290000D01*
X172735113Y-58210000D02*
X172735113Y-57314000D01*
X172735113Y-61186000D02*
X172735113Y-60290000D01*
X172775113Y-58210000D02*
X172775113Y-57280000D01*
X172775113Y-61220000D02*
X172775113Y-60290000D01*
X172815113Y-58210000D02*
X172815113Y-57247000D01*
X172815113Y-61253000D02*
X172815113Y-60290000D01*
X172855113Y-58210000D02*
X172855113Y-57215000D01*
X172855113Y-61285000D02*
X172855113Y-60290000D01*
X172895113Y-58210000D02*
X172895113Y-57185000D01*
X172895113Y-61315000D02*
X172895113Y-60290000D01*
X172935113Y-58210000D02*
X172935113Y-57156000D01*
X172935113Y-61344000D02*
X172935113Y-60290000D01*
X172975113Y-58210000D02*
X172975113Y-57128000D01*
X172975113Y-61372000D02*
X172975113Y-60290000D01*
X173015113Y-58210000D02*
X173015113Y-57101000D01*
X173015113Y-61399000D02*
X173015113Y-60290000D01*
X173055113Y-58210000D02*
X173055113Y-57075000D01*
X173055113Y-61425000D02*
X173055113Y-60290000D01*
X173095113Y-58210000D02*
X173095113Y-57051000D01*
X173095113Y-61449000D02*
X173095113Y-60290000D01*
X173135113Y-58210000D02*
X173135113Y-57027000D01*
X173135113Y-61473000D02*
X173135113Y-60290000D01*
X173175113Y-58210000D02*
X173175113Y-57004000D01*
X173175113Y-61496000D02*
X173175113Y-60290000D01*
X173215113Y-58210000D02*
X173215113Y-56982000D01*
X173215113Y-61518000D02*
X173215113Y-60290000D01*
X173255113Y-58210000D02*
X173255113Y-56961000D01*
X173255113Y-61539000D02*
X173255113Y-60290000D01*
X173295113Y-58210000D02*
X173295113Y-56941000D01*
X173295113Y-61559000D02*
X173295113Y-60290000D01*
X173335113Y-58210000D02*
X173335113Y-56921000D01*
X173335113Y-61579000D02*
X173335113Y-60290000D01*
X173375113Y-58210000D02*
X173375113Y-56903000D01*
X173375113Y-61597000D02*
X173375113Y-60290000D01*
X173415113Y-58210000D02*
X173415113Y-56885000D01*
X173415113Y-61615000D02*
X173415113Y-60290000D01*
X173455113Y-58210000D02*
X173455113Y-56868000D01*
X173455113Y-61632000D02*
X173455113Y-60290000D01*
X173495113Y-58210000D02*
X173495113Y-56852000D01*
X173495113Y-61648000D02*
X173495113Y-60290000D01*
X173535113Y-58210000D02*
X173535113Y-56837000D01*
X173535113Y-61663000D02*
X173535113Y-60290000D01*
X173575113Y-58210000D02*
X173575113Y-56822000D01*
X173575113Y-61678000D02*
X173575113Y-60290000D01*
X173615113Y-58210000D02*
X173615113Y-56808000D01*
X173615113Y-61692000D02*
X173615113Y-60290000D01*
X173655113Y-58210000D02*
X173655113Y-56795000D01*
X173655113Y-61705000D02*
X173655113Y-60290000D01*
X173695113Y-58210000D02*
X173695113Y-56783000D01*
X173695113Y-61717000D02*
X173695113Y-60290000D01*
X173735113Y-58210000D02*
X173735113Y-56771000D01*
X173735113Y-61729000D02*
X173735113Y-60290000D01*
X173775113Y-58210000D02*
X173775113Y-56760000D01*
X173775113Y-61740000D02*
X173775113Y-60290000D01*
X173815113Y-58210000D02*
X173815113Y-56749000D01*
X173815113Y-61751000D02*
X173815113Y-60290000D01*
X173855113Y-58210000D02*
X173855113Y-56740000D01*
X173855113Y-61760000D02*
X173855113Y-60290000D01*
X173895113Y-58210000D02*
X173895113Y-56731000D01*
X173895113Y-61769000D02*
X173895113Y-60290000D01*
X173935113Y-58210000D02*
X173935113Y-56722000D01*
X173935113Y-61778000D02*
X173935113Y-60290000D01*
X173975113Y-58210000D02*
X173975113Y-56714000D01*
X173975113Y-61786000D02*
X173975113Y-60290000D01*
X174015113Y-58210000D02*
X174015113Y-56707000D01*
X174015113Y-61793000D02*
X174015113Y-60290000D01*
X174055113Y-58210000D02*
X174055113Y-56701000D01*
X174055113Y-61799000D02*
X174055113Y-60290000D01*
X174095113Y-58210000D02*
X174095113Y-56695000D01*
X174095113Y-61805000D02*
X174095113Y-60290000D01*
X174135113Y-58210000D02*
X174135113Y-56690000D01*
X174135113Y-61810000D02*
X174135113Y-60290000D01*
X174175113Y-58210000D02*
X174175113Y-56685000D01*
X174175113Y-61815000D02*
X174175113Y-60290000D01*
X174215113Y-58210000D02*
X174215113Y-56681000D01*
X174215113Y-61819000D02*
X174215113Y-60290000D01*
X174255113Y-61822000D02*
X174255113Y-56678000D01*
X174295113Y-61825000D02*
X174295113Y-56675000D01*
X174335113Y-61827000D02*
X174335113Y-56673000D01*
X174375113Y-61829000D02*
X174375113Y-56671000D01*
X174415113Y-61830000D02*
X174415113Y-56670000D01*
X174455113Y-61830000D02*
X174455113Y-56670000D01*
X177009888Y-60975000D02*
X177009888Y-60475000D01*
X177259888Y-60725000D02*
X176759888Y-60725000D01*
X177075113Y-59250000D02*
G75*
G02*
X171835113Y-59250000I-2620000J0D01*
G01*
X171835113Y-59250000D02*
G75*
G02*
X177075113Y-59250000I2620000J0D01*
G01*
%TO.C,C6*%
X131380000Y-71780000D02*
X135120000Y-71780000D01*
X131380000Y-79220000D02*
X131380000Y-71780000D01*
X135120000Y-71780000D02*
X135120000Y-79220000D01*
X135120000Y-79220000D02*
X131380000Y-79220000D01*
%TO.C,C14*%
X143460000Y-51590000D02*
X141931000Y-51590000D01*
X143460000Y-51630000D02*
X141935000Y-51630000D01*
X143460000Y-51670000D02*
X141940000Y-51670000D01*
X143460000Y-51710000D02*
X141945000Y-51710000D01*
X143460000Y-51750000D02*
X141951000Y-51750000D01*
X143460000Y-51790000D02*
X141957000Y-51790000D01*
X143460000Y-51830000D02*
X141964000Y-51830000D01*
X143460000Y-51870000D02*
X141972000Y-51870000D01*
X143460000Y-51910000D02*
X141981000Y-51910000D01*
X143460000Y-51950000D02*
X141990000Y-51950000D01*
X143460000Y-51990000D02*
X141999000Y-51990000D01*
X143460000Y-52030000D02*
X142010000Y-52030000D01*
X143460000Y-52070000D02*
X142021000Y-52070000D01*
X143460000Y-52110000D02*
X142033000Y-52110000D01*
X143460000Y-52150000D02*
X142045000Y-52150000D01*
X143460000Y-52190000D02*
X142058000Y-52190000D01*
X143460000Y-52230000D02*
X142072000Y-52230000D01*
X143460000Y-52270000D02*
X142087000Y-52270000D01*
X143460000Y-52310000D02*
X142102000Y-52310000D01*
X143460000Y-52350000D02*
X142118000Y-52350000D01*
X143460000Y-52390000D02*
X142135000Y-52390000D01*
X143460000Y-52430000D02*
X142153000Y-52430000D01*
X143460000Y-52470000D02*
X142171000Y-52470000D01*
X143460000Y-52510000D02*
X142191000Y-52510000D01*
X143460000Y-52550000D02*
X142211000Y-52550000D01*
X143460000Y-52590000D02*
X142232000Y-52590000D01*
X143460000Y-52630000D02*
X142254000Y-52630000D01*
X143460000Y-52670000D02*
X142277000Y-52670000D01*
X143460000Y-52710000D02*
X142301000Y-52710000D01*
X143460000Y-52750000D02*
X142325000Y-52750000D01*
X143460000Y-52790000D02*
X142351000Y-52790000D01*
X143460000Y-52830000D02*
X142378000Y-52830000D01*
X143460000Y-52870000D02*
X142406000Y-52870000D01*
X143460000Y-52910000D02*
X142435000Y-52910000D01*
X143460000Y-52950000D02*
X142465000Y-52950000D01*
X143460000Y-52990000D02*
X142497000Y-52990000D01*
X143460000Y-53030000D02*
X142530000Y-53030000D01*
X143460000Y-53070000D02*
X142564000Y-53070000D01*
X143460000Y-53110000D02*
X142599000Y-53110000D01*
X143460000Y-53150000D02*
X142636000Y-53150000D01*
X143460000Y-53190000D02*
X142675000Y-53190000D01*
X143460000Y-53230000D02*
X142715000Y-53230000D01*
X143460000Y-53270000D02*
X142757000Y-53270000D01*
X143460000Y-53310000D02*
X142801000Y-53310000D01*
X143460000Y-53350000D02*
X142848000Y-53350000D01*
X143460000Y-53390000D02*
X142896000Y-53390000D01*
X143460000Y-53430000D02*
X142947000Y-53430000D01*
X143460000Y-53470000D02*
X143001000Y-53470000D01*
X143460000Y-53510000D02*
X143057000Y-53510000D01*
X143460000Y-53550000D02*
X143117000Y-53550000D01*
X143460000Y-53590000D02*
X143181000Y-53590000D01*
X143460000Y-53630000D02*
X143249000Y-53630000D01*
X144783000Y-53950000D02*
X144217000Y-53950000D01*
X145017000Y-53910000D02*
X143983000Y-53910000D01*
X145177000Y-53870000D02*
X143823000Y-53870000D01*
X145305000Y-53830000D02*
X143695000Y-53830000D01*
X145414000Y-53790000D02*
X143586000Y-53790000D01*
X145511000Y-53750000D02*
X143489000Y-53750000D01*
X145598000Y-53710000D02*
X143402000Y-53710000D01*
X145677000Y-53670000D02*
X143323000Y-53670000D01*
X145751000Y-53630000D02*
X145540000Y-53630000D01*
X145819000Y-53590000D02*
X145540000Y-53590000D01*
X145883000Y-53550000D02*
X145540000Y-53550000D01*
X145943000Y-53510000D02*
X145540000Y-53510000D01*
X145975000Y-48545225D02*
X145975000Y-49045225D01*
X145999000Y-53470000D02*
X145540000Y-53470000D01*
X146053000Y-53430000D02*
X145540000Y-53430000D01*
X146104000Y-53390000D02*
X145540000Y-53390000D01*
X146152000Y-53350000D02*
X145540000Y-53350000D01*
X146199000Y-53310000D02*
X145540000Y-53310000D01*
X146225000Y-48795225D02*
X145725000Y-48795225D01*
X146243000Y-53270000D02*
X145540000Y-53270000D01*
X146285000Y-53230000D02*
X145540000Y-53230000D01*
X146325000Y-53190000D02*
X145540000Y-53190000D01*
X146364000Y-53150000D02*
X145540000Y-53150000D01*
X146401000Y-53110000D02*
X145540000Y-53110000D01*
X146436000Y-53070000D02*
X145540000Y-53070000D01*
X146470000Y-53030000D02*
X145540000Y-53030000D01*
X146503000Y-52990000D02*
X145540000Y-52990000D01*
X146535000Y-52950000D02*
X145540000Y-52950000D01*
X146565000Y-52910000D02*
X145540000Y-52910000D01*
X146594000Y-52870000D02*
X145540000Y-52870000D01*
X146622000Y-52830000D02*
X145540000Y-52830000D01*
X146649000Y-52790000D02*
X145540000Y-52790000D01*
X146675000Y-52750000D02*
X145540000Y-52750000D01*
X146699000Y-52710000D02*
X145540000Y-52710000D01*
X146723000Y-52670000D02*
X145540000Y-52670000D01*
X146746000Y-52630000D02*
X145540000Y-52630000D01*
X146768000Y-52590000D02*
X145540000Y-52590000D01*
X146789000Y-52550000D02*
X145540000Y-52550000D01*
X146809000Y-52510000D02*
X145540000Y-52510000D01*
X146829000Y-52470000D02*
X145540000Y-52470000D01*
X146847000Y-52430000D02*
X145540000Y-52430000D01*
X146865000Y-52390000D02*
X145540000Y-52390000D01*
X146882000Y-52350000D02*
X145540000Y-52350000D01*
X146898000Y-52310000D02*
X145540000Y-52310000D01*
X146913000Y-52270000D02*
X145540000Y-52270000D01*
X146928000Y-52230000D02*
X145540000Y-52230000D01*
X146942000Y-52190000D02*
X145540000Y-52190000D01*
X146955000Y-52150000D02*
X145540000Y-52150000D01*
X146967000Y-52110000D02*
X145540000Y-52110000D01*
X146979000Y-52070000D02*
X145540000Y-52070000D01*
X146990000Y-52030000D02*
X145540000Y-52030000D01*
X147001000Y-51990000D02*
X145540000Y-51990000D01*
X147010000Y-51950000D02*
X145540000Y-51950000D01*
X147019000Y-51910000D02*
X145540000Y-51910000D01*
X147028000Y-51870000D02*
X145540000Y-51870000D01*
X147036000Y-51830000D02*
X145540000Y-51830000D01*
X147043000Y-51790000D02*
X145540000Y-51790000D01*
X147049000Y-51750000D02*
X145540000Y-51750000D01*
X147055000Y-51710000D02*
X145540000Y-51710000D01*
X147060000Y-51670000D02*
X145540000Y-51670000D01*
X147065000Y-51630000D02*
X145540000Y-51630000D01*
X147069000Y-51590000D02*
X145540000Y-51590000D01*
X147072000Y-51550000D02*
X141928000Y-51550000D01*
X147075000Y-51510000D02*
X141925000Y-51510000D01*
X147077000Y-51470000D02*
X141923000Y-51470000D01*
X147079000Y-51430000D02*
X141921000Y-51430000D01*
X147080000Y-51350000D02*
X141920000Y-51350000D01*
X147080000Y-51390000D02*
X141920000Y-51390000D01*
X147120000Y-51350000D02*
G75*
G02*
X141880000Y-51350000I-2620000J0D01*
G01*
X141880000Y-51350000D02*
G75*
G02*
X147120000Y-51350000I2620000J0D01*
G01*
%TO.C,R24*%
X170980000Y-110380000D02*
X177520000Y-110380000D01*
X170980000Y-110710000D02*
X170980000Y-110380000D01*
X170980000Y-112790000D02*
X170980000Y-113120000D01*
X170980000Y-113120000D02*
X177520000Y-113120000D01*
X177520000Y-110380000D02*
X177520000Y-110710000D01*
X177520000Y-113120000D02*
X177520000Y-112790000D01*
%TO.C,R12*%
X144380000Y-72230000D02*
X144710000Y-72230000D01*
X144380000Y-78770000D02*
X144380000Y-72230000D01*
X144710000Y-78770000D02*
X144380000Y-78770000D01*
X146790000Y-78770000D02*
X147120000Y-78770000D01*
X147120000Y-72230000D02*
X146790000Y-72230000D01*
X147120000Y-78770000D02*
X147120000Y-72230000D01*
%TO.C,C2*%
X142380000Y-95880000D02*
X142717000Y-95880000D01*
X142380000Y-101120000D02*
X142380000Y-95880000D01*
X142717000Y-101120000D02*
X142380000Y-101120000D01*
X144783000Y-95880000D02*
X145120000Y-95880000D01*
X145120000Y-95880000D02*
X145120000Y-101120000D01*
X145120000Y-101120000D02*
X144783000Y-101120000D01*
%TO.C,R9*%
X139980000Y-110630000D02*
X146520000Y-110630000D01*
X139980000Y-110960000D02*
X139980000Y-110630000D01*
X139980000Y-113040000D02*
X139980000Y-113370000D01*
X139980000Y-113370000D02*
X146520000Y-113370000D01*
X146520000Y-110630000D02*
X146520000Y-110960000D01*
X146520000Y-113370000D02*
X146520000Y-113040000D01*
%TO.C,R21*%
X150420000Y-115630000D02*
X150420000Y-115960000D01*
X150420000Y-118370000D02*
X150420000Y-118040000D01*
X156960000Y-115630000D02*
X150420000Y-115630000D01*
X156960000Y-115960000D02*
X156960000Y-115630000D01*
X156960000Y-118040000D02*
X156960000Y-118370000D01*
X156960000Y-118370000D02*
X150420000Y-118370000D01*
%TO.C,C10*%
X161380000Y-48030000D02*
X165120000Y-48030000D01*
X161380000Y-55470000D02*
X161380000Y-48030000D01*
X165120000Y-48030000D02*
X165120000Y-55470000D01*
X165120000Y-55470000D02*
X161380000Y-55470000D01*
%TO.C,R23*%
X132730000Y-62130000D02*
X139270000Y-62130000D01*
X132730000Y-62460000D02*
X132730000Y-62130000D01*
X132730000Y-64540000D02*
X132730000Y-64870000D01*
X132730000Y-64870000D02*
X139270000Y-64870000D01*
X139270000Y-62130000D02*
X139270000Y-62460000D01*
X139270000Y-64870000D02*
X139270000Y-64540000D01*
%TO.C,C4*%
X131808555Y-115759736D02*
X135548555Y-115759736D01*
X131808555Y-123199736D02*
X131808555Y-115759736D01*
X135548555Y-115759736D02*
X135548555Y-123199736D01*
X135548555Y-123199736D02*
X131808555Y-123199736D01*
%TO.C,D1*%
X171250000Y-96790000D02*
X171250000Y-97440000D01*
X171250000Y-102330000D02*
X171250000Y-101680000D01*
X172370000Y-98040000D02*
X170130000Y-98040000D01*
X172370000Y-98160000D02*
X170130000Y-98160000D01*
X172370000Y-98280000D02*
X170130000Y-98280000D01*
X172370000Y-97440000D02*
X170130000Y-97440000D01*
X170130000Y-101680000D01*
X172370000Y-101680000D01*
X172370000Y-97440000D01*
%TO.C,R14*%
X150880000Y-60480000D02*
X151210000Y-60480000D01*
X150880000Y-67020000D02*
X150880000Y-60480000D01*
X151210000Y-67020000D02*
X150880000Y-67020000D01*
X153290000Y-67020000D02*
X153620000Y-67020000D01*
X153620000Y-60480000D02*
X153290000Y-60480000D01*
X153620000Y-67020000D02*
X153620000Y-60480000D01*
%TO.C,R19*%
X171480000Y-64380000D02*
X178020000Y-64380000D01*
X171480000Y-64710000D02*
X171480000Y-64380000D01*
X171480000Y-66790000D02*
X171480000Y-67120000D01*
X171480000Y-67120000D02*
X178020000Y-67120000D01*
X178020000Y-64380000D02*
X178020000Y-64710000D01*
X178020000Y-67120000D02*
X178020000Y-66790000D01*
%TO.C,J4*%
X150314419Y-41864029D02*
X159514419Y-41864029D01*
X150314419Y-50664029D02*
X150314419Y-41864029D01*
X150314419Y-56564029D02*
X150314419Y-54664029D01*
X153014419Y-56564029D02*
X150314419Y-56564029D01*
X158664419Y-56764029D02*
X159714419Y-56764029D01*
X159514419Y-41864029D02*
X159514419Y-56564029D01*
X159514419Y-56564029D02*
X156914419Y-56564029D01*
X159714419Y-55714029D02*
X159714419Y-56764029D01*
%TO.C,R11*%
X131880000Y-82980000D02*
X131880000Y-89520000D01*
X131880000Y-89520000D02*
X132210000Y-89520000D01*
X132210000Y-82980000D02*
X131880000Y-82980000D01*
X134290000Y-82980000D02*
X134620000Y-82980000D01*
X134620000Y-82980000D02*
X134620000Y-89520000D01*
X134620000Y-89520000D02*
X134290000Y-89520000D01*
%TO.C,C15*%
X136460000Y-51790000D02*
X134931000Y-51790000D01*
X136460000Y-51830000D02*
X134935000Y-51830000D01*
X136460000Y-51870000D02*
X134940000Y-51870000D01*
X136460000Y-51910000D02*
X134945000Y-51910000D01*
X136460000Y-51950000D02*
X134951000Y-51950000D01*
X136460000Y-51990000D02*
X134957000Y-51990000D01*
X136460000Y-52030000D02*
X134964000Y-52030000D01*
X136460000Y-52070000D02*
X134972000Y-52070000D01*
X136460000Y-52110000D02*
X134981000Y-52110000D01*
X136460000Y-52150000D02*
X134990000Y-52150000D01*
X136460000Y-52190000D02*
X134999000Y-52190000D01*
X136460000Y-52230000D02*
X135010000Y-52230000D01*
X136460000Y-52270000D02*
X135021000Y-52270000D01*
X136460000Y-52310000D02*
X135033000Y-52310000D01*
X136460000Y-52350000D02*
X135045000Y-52350000D01*
X136460000Y-52390000D02*
X135058000Y-52390000D01*
X136460000Y-52430000D02*
X135072000Y-52430000D01*
X136460000Y-52470000D02*
X135087000Y-52470000D01*
X136460000Y-52510000D02*
X135102000Y-52510000D01*
X136460000Y-52550000D02*
X135118000Y-52550000D01*
X136460000Y-52590000D02*
X135135000Y-52590000D01*
X136460000Y-52630000D02*
X135153000Y-52630000D01*
X136460000Y-52670000D02*
X135171000Y-52670000D01*
X136460000Y-52710000D02*
X135191000Y-52710000D01*
X136460000Y-52750000D02*
X135211000Y-52750000D01*
X136460000Y-52790000D02*
X135232000Y-52790000D01*
X136460000Y-52830000D02*
X135254000Y-52830000D01*
X136460000Y-52870000D02*
X135277000Y-52870000D01*
X136460000Y-52910000D02*
X135301000Y-52910000D01*
X136460000Y-52950000D02*
X135325000Y-52950000D01*
X136460000Y-52990000D02*
X135351000Y-52990000D01*
X136460000Y-53030000D02*
X135378000Y-53030000D01*
X136460000Y-53070000D02*
X135406000Y-53070000D01*
X136460000Y-53110000D02*
X135435000Y-53110000D01*
X136460000Y-53150000D02*
X135465000Y-53150000D01*
X136460000Y-53190000D02*
X135497000Y-53190000D01*
X136460000Y-53230000D02*
X135530000Y-53230000D01*
X136460000Y-53270000D02*
X135564000Y-53270000D01*
X136460000Y-53310000D02*
X135599000Y-53310000D01*
X136460000Y-53350000D02*
X135636000Y-53350000D01*
X136460000Y-53390000D02*
X135675000Y-53390000D01*
X136460000Y-53430000D02*
X135715000Y-53430000D01*
X136460000Y-53470000D02*
X135757000Y-53470000D01*
X136460000Y-53510000D02*
X135801000Y-53510000D01*
X136460000Y-53550000D02*
X135848000Y-53550000D01*
X136460000Y-53590000D02*
X135896000Y-53590000D01*
X136460000Y-53630000D02*
X135947000Y-53630000D01*
X136460000Y-53670000D02*
X136001000Y-53670000D01*
X136460000Y-53710000D02*
X136057000Y-53710000D01*
X136460000Y-53750000D02*
X136117000Y-53750000D01*
X136460000Y-53790000D02*
X136181000Y-53790000D01*
X136460000Y-53830000D02*
X136249000Y-53830000D01*
X137783000Y-54150000D02*
X137217000Y-54150000D01*
X138017000Y-54110000D02*
X136983000Y-54110000D01*
X138177000Y-54070000D02*
X136823000Y-54070000D01*
X138305000Y-54030000D02*
X136695000Y-54030000D01*
X138414000Y-53990000D02*
X136586000Y-53990000D01*
X138511000Y-53950000D02*
X136489000Y-53950000D01*
X138598000Y-53910000D02*
X136402000Y-53910000D01*
X138677000Y-53870000D02*
X136323000Y-53870000D01*
X138751000Y-53830000D02*
X138540000Y-53830000D01*
X138819000Y-53790000D02*
X138540000Y-53790000D01*
X138883000Y-53750000D02*
X138540000Y-53750000D01*
X138943000Y-53710000D02*
X138540000Y-53710000D01*
X138975000Y-48745225D02*
X138975000Y-49245225D01*
X138999000Y-53670000D02*
X138540000Y-53670000D01*
X139053000Y-53630000D02*
X138540000Y-53630000D01*
X139104000Y-53590000D02*
X138540000Y-53590000D01*
X139152000Y-53550000D02*
X138540000Y-53550000D01*
X139199000Y-53510000D02*
X138540000Y-53510000D01*
X139225000Y-48995225D02*
X138725000Y-48995225D01*
X139243000Y-53470000D02*
X138540000Y-53470000D01*
X139285000Y-53430000D02*
X138540000Y-53430000D01*
X139325000Y-53390000D02*
X138540000Y-53390000D01*
X139364000Y-53350000D02*
X138540000Y-53350000D01*
X139401000Y-53310000D02*
X138540000Y-53310000D01*
X139436000Y-53270000D02*
X138540000Y-53270000D01*
X139470000Y-53230000D02*
X138540000Y-53230000D01*
X139503000Y-53190000D02*
X138540000Y-53190000D01*
X139535000Y-53150000D02*
X138540000Y-53150000D01*
X139565000Y-53110000D02*
X138540000Y-53110000D01*
X139594000Y-53070000D02*
X138540000Y-53070000D01*
X139622000Y-53030000D02*
X138540000Y-53030000D01*
X139649000Y-52990000D02*
X138540000Y-52990000D01*
X139675000Y-52950000D02*
X138540000Y-52950000D01*
X139699000Y-52910000D02*
X138540000Y-52910000D01*
X139723000Y-52870000D02*
X138540000Y-52870000D01*
X139746000Y-52830000D02*
X138540000Y-52830000D01*
X139768000Y-52790000D02*
X138540000Y-52790000D01*
X139789000Y-52750000D02*
X138540000Y-52750000D01*
X139809000Y-52710000D02*
X138540000Y-52710000D01*
X139829000Y-52670000D02*
X138540000Y-52670000D01*
X139847000Y-52630000D02*
X138540000Y-52630000D01*
X139865000Y-52590000D02*
X138540000Y-52590000D01*
X139882000Y-52550000D02*
X138540000Y-52550000D01*
X139898000Y-52510000D02*
X138540000Y-52510000D01*
X139913000Y-52470000D02*
X138540000Y-52470000D01*
X139928000Y-52430000D02*
X138540000Y-52430000D01*
X139942000Y-52390000D02*
X138540000Y-52390000D01*
X139955000Y-52350000D02*
X138540000Y-52350000D01*
X139967000Y-52310000D02*
X138540000Y-52310000D01*
X139979000Y-52270000D02*
X138540000Y-52270000D01*
X139990000Y-52230000D02*
X138540000Y-52230000D01*
X140001000Y-52190000D02*
X138540000Y-52190000D01*
X140010000Y-52150000D02*
X138540000Y-52150000D01*
X140019000Y-52110000D02*
X138540000Y-52110000D01*
X140028000Y-52070000D02*
X138540000Y-52070000D01*
X140036000Y-52030000D02*
X138540000Y-52030000D01*
X140043000Y-51990000D02*
X138540000Y-51990000D01*
X140049000Y-51950000D02*
X138540000Y-51950000D01*
X140055000Y-51910000D02*
X138540000Y-51910000D01*
X140060000Y-51870000D02*
X138540000Y-51870000D01*
X140065000Y-51830000D02*
X138540000Y-51830000D01*
X140069000Y-51790000D02*
X138540000Y-51790000D01*
X140072000Y-51750000D02*
X134928000Y-51750000D01*
X140075000Y-51710000D02*
X134925000Y-51710000D01*
X140077000Y-51670000D02*
X134923000Y-51670000D01*
X140079000Y-51630000D02*
X134921000Y-51630000D01*
X140080000Y-51550000D02*
X134920000Y-51550000D01*
X140080000Y-51590000D02*
X134920000Y-51590000D01*
X140120000Y-51550000D02*
G75*
G02*
X134880000Y-51550000I-2620000J0D01*
G01*
X134880000Y-51550000D02*
G75*
G02*
X140120000Y-51550000I2620000J0D01*
G01*
%TO.C,Q2*%
X147050000Y-83880000D02*
X143450000Y-83880000D01*
X142925816Y-84607205D02*
G75*
G02*
X143450000Y-83880000I2324184J-1122795D01*
G01*
X144140000Y-88080000D02*
G75*
G02*
X142894542Y-86828371I1110000J2350000D01*
G01*
X147050000Y-83880000D02*
G75*
G02*
X147574184Y-84607205I-1800000J-1850000D01*
G01*
X147617199Y-86833842D02*
G75*
G02*
X146390000Y-88080000I-2367199J1103842D01*
G01*
%TO.C,C11*%
X158630000Y-106280000D02*
X162370000Y-106280000D01*
X158630000Y-113720000D02*
X158630000Y-106280000D01*
X162370000Y-106280000D02*
X162370000Y-113720000D01*
X162370000Y-113720000D02*
X158630000Y-113720000D01*
%TO.C,C9*%
X154130000Y-106280000D02*
X157870000Y-106280000D01*
X154130000Y-113720000D02*
X154130000Y-106280000D01*
X157870000Y-106280000D02*
X157870000Y-113720000D01*
X157870000Y-113720000D02*
X154130000Y-113720000D01*
%TO.C,R3*%
X139908555Y-115609736D02*
X146448555Y-115609736D01*
X139908555Y-115939736D02*
X139908555Y-115609736D01*
X139908555Y-118019736D02*
X139908555Y-118349736D01*
X139908555Y-118349736D02*
X146448555Y-118349736D01*
X146448555Y-115609736D02*
X146448555Y-115939736D01*
X146448555Y-118349736D02*
X146448555Y-118019736D01*
%TO.C,R15*%
X155880000Y-60480000D02*
X156210000Y-60480000D01*
X155880000Y-67020000D02*
X155880000Y-60480000D01*
X156210000Y-67020000D02*
X155880000Y-67020000D01*
X158290000Y-67020000D02*
X158620000Y-67020000D01*
X158620000Y-60480000D02*
X158290000Y-60480000D01*
X158620000Y-67020000D02*
X158620000Y-60480000D01*
%TO.C,D4*%
X144280000Y-65200000D02*
X147220000Y-65200000D01*
X144280000Y-65320000D02*
X147220000Y-65320000D01*
X144280000Y-65440000D02*
X147220000Y-65440000D01*
X145750000Y-59760000D02*
X145750000Y-60780000D01*
X145750000Y-67240000D02*
X145750000Y-66220000D01*
X144280000Y-66220000D02*
X147220000Y-66220000D01*
X147220000Y-60780000D01*
X144280000Y-60780000D01*
X144280000Y-66220000D01*
%TO.C,R5*%
X136130000Y-82980000D02*
X136130000Y-89520000D01*
X136130000Y-89520000D02*
X136460000Y-89520000D01*
X136460000Y-82980000D02*
X136130000Y-82980000D01*
X138540000Y-82980000D02*
X138870000Y-82980000D01*
X138870000Y-82980000D02*
X138870000Y-89520000D01*
X138870000Y-89520000D02*
X138540000Y-89520000D01*
%TO.C,R7*%
X164130000Y-83980000D02*
X164130000Y-90520000D01*
X164130000Y-90520000D02*
X164460000Y-90520000D01*
X164460000Y-83980000D02*
X164130000Y-83980000D01*
X166540000Y-83980000D02*
X166870000Y-83980000D01*
X166870000Y-83980000D02*
X166870000Y-90520000D01*
X166870000Y-90520000D02*
X166540000Y-90520000D01*
%TO.C,D3*%
X162000000Y-72730000D02*
X162000000Y-73380000D01*
X162000000Y-78270000D02*
X162000000Y-77620000D01*
X163120000Y-73980000D02*
X160880000Y-73980000D01*
X163120000Y-74100000D02*
X160880000Y-74100000D01*
X163120000Y-74220000D02*
X160880000Y-74220000D01*
X163120000Y-73380000D02*
X160880000Y-73380000D01*
X160880000Y-77620000D01*
X163120000Y-77620000D01*
X163120000Y-73380000D01*
%TO.C,Q3*%
X172760000Y-49400000D02*
X169160000Y-49400000D01*
X168635816Y-50127205D02*
G75*
G02*
X169160000Y-49400000I2324184J-1122795D01*
G01*
X169850000Y-53600000D02*
G75*
G02*
X168604542Y-52348371I1110000J2350000D01*
G01*
X172760000Y-49400000D02*
G75*
G02*
X173284184Y-50127205I-1800000J-1850000D01*
G01*
X173327199Y-52353842D02*
G75*
G02*
X172100000Y-53600000I-2367199J1103842D01*
G01*
%TO.C,R6*%
X139908555Y-120609736D02*
X139908555Y-120939736D01*
X139908555Y-123349736D02*
X139908555Y-123019736D01*
X146448555Y-120609736D02*
X139908555Y-120609736D01*
X146448555Y-120939736D02*
X146448555Y-120609736D01*
X146448555Y-123019736D02*
X146448555Y-123349736D01*
X146448555Y-123349736D02*
X139908555Y-123349736D01*
%TO.C,U1*%
X170250000Y-69860000D02*
X170250000Y-80140000D01*
X170250000Y-80140000D02*
X174750000Y-80140000D01*
X171500000Y-69860000D02*
X170250000Y-69860000D01*
X174750000Y-69860000D02*
X173500000Y-69860000D01*
X174750000Y-80140000D02*
X174750000Y-69860000D01*
X167250000Y-69800000D02*
X177750000Y-69800000D01*
X177750000Y-80200000D01*
X167250000Y-80200000D01*
X167250000Y-69800000D01*
X173500000Y-69860000D02*
G75*
G02*
X171500000Y-69860000I-1000000J0D01*
G01*
%TO.C,R18*%
X160880000Y-60480000D02*
X161210000Y-60480000D01*
X160880000Y-67020000D02*
X160880000Y-60480000D01*
X161210000Y-67020000D02*
X160880000Y-67020000D01*
X163290000Y-67020000D02*
X163620000Y-67020000D01*
X163620000Y-60480000D02*
X163290000Y-60480000D01*
X163620000Y-67020000D02*
X163620000Y-60480000D01*
%TO.C,R13*%
X150880000Y-72230000D02*
X151210000Y-72230000D01*
X150880000Y-78770000D02*
X150880000Y-72230000D01*
X151210000Y-78770000D02*
X150880000Y-78770000D01*
X153290000Y-78770000D02*
X153620000Y-78770000D01*
X153620000Y-72230000D02*
X153290000Y-72230000D01*
X153620000Y-78770000D02*
X153620000Y-72230000D01*
%TO.C,Q1*%
X131880000Y-108700000D02*
X131880000Y-112300000D01*
X131880000Y-108700000D02*
G75*
G02*
X132607205Y-108175816I1850000J-1800000D01*
G01*
X132607205Y-112824184D02*
G75*
G02*
X131880000Y-112300000I1122795J2324184D01*
G01*
X134833842Y-108132801D02*
G75*
G02*
X136080000Y-109360000I-1103842J-2367199D01*
G01*
X136080000Y-111610000D02*
G75*
G02*
X134828371Y-112855458I-2350000J1110000D01*
G01*
%TO.C,R22*%
X170980000Y-105630000D02*
X177520000Y-105630000D01*
X170980000Y-105960000D02*
X170980000Y-105630000D01*
X170980000Y-108040000D02*
X170980000Y-108370000D01*
X170980000Y-108370000D02*
X177520000Y-108370000D01*
X177520000Y-105630000D02*
X177520000Y-105960000D01*
X177520000Y-108370000D02*
X177520000Y-108040000D01*
%TO.C,R1*%
X137130000Y-95480000D02*
X137460000Y-95480000D01*
X137130000Y-102020000D02*
X137130000Y-95480000D01*
X137460000Y-102020000D02*
X137130000Y-102020000D01*
X139540000Y-102020000D02*
X139870000Y-102020000D01*
X139870000Y-95480000D02*
X139540000Y-95480000D01*
X139870000Y-102020000D02*
X139870000Y-95480000D01*
%TO.C,R20*%
X132730000Y-57130000D02*
X132730000Y-57460000D01*
X132730000Y-59870000D02*
X132730000Y-59540000D01*
X139270000Y-57130000D02*
X132730000Y-57130000D01*
X139270000Y-57460000D02*
X139270000Y-57130000D01*
X139270000Y-59540000D02*
X139270000Y-59870000D01*
X139270000Y-59870000D02*
X132730000Y-59870000D01*
%TO.C,R17*%
X165880000Y-60480000D02*
X166210000Y-60480000D01*
X165880000Y-67020000D02*
X165880000Y-60480000D01*
X166210000Y-67020000D02*
X165880000Y-67020000D01*
X168290000Y-67020000D02*
X168620000Y-67020000D01*
X168620000Y-60480000D02*
X168290000Y-60480000D01*
X168620000Y-67020000D02*
X168620000Y-60480000D01*
%TO.C,C5*%
X137630000Y-71780000D02*
X141370000Y-71780000D01*
X137630000Y-79220000D02*
X137630000Y-71780000D01*
X141370000Y-71780000D02*
X141370000Y-79220000D01*
X141370000Y-79220000D02*
X137630000Y-79220000D01*
%TO.C,R2*%
X139980000Y-105880000D02*
X146520000Y-105880000D01*
X139980000Y-106210000D02*
X139980000Y-105880000D01*
X139980000Y-108290000D02*
X139980000Y-108620000D01*
X139980000Y-108620000D02*
X146520000Y-108620000D01*
X146520000Y-105880000D02*
X146520000Y-106210000D01*
X146520000Y-108620000D02*
X146520000Y-108290000D01*
%TO.C,R4*%
X175880000Y-84230000D02*
X175880000Y-90770000D01*
X175880000Y-90770000D02*
X176210000Y-90770000D01*
X176210000Y-84230000D02*
X175880000Y-84230000D01*
X178290000Y-84230000D02*
X178620000Y-84230000D01*
X178620000Y-84230000D02*
X178620000Y-90770000D01*
X178620000Y-90770000D02*
X178290000Y-90770000D01*
%TO.C,C13*%
X163130000Y-106280000D02*
X166870000Y-106280000D01*
X163130000Y-113720000D02*
X163130000Y-106280000D01*
X166870000Y-106280000D02*
X166870000Y-113720000D01*
X166870000Y-113720000D02*
X163130000Y-113720000D01*
%TO.C,R16*%
X160980000Y-115630000D02*
X167520000Y-115630000D01*
X160980000Y-115960000D02*
X160980000Y-115630000D01*
X160980000Y-118040000D02*
X160980000Y-118370000D01*
X160980000Y-118370000D02*
X167520000Y-118370000D01*
X167520000Y-115630000D02*
X167520000Y-115960000D01*
X167520000Y-118370000D02*
X167520000Y-118040000D01*
%TD*%
%LPC*%
D13*
%TO.C,J2*%
X133000000Y-95400000D03*
D14*
X133000000Y-99000000D03*
X133000000Y-102600000D03*
%TD*%
%TO.C,C7*%
X159000000Y-89750000D03*
X159000000Y-84750000D03*
%TD*%
D15*
%TO.C,J1*%
X152000000Y-122000000D03*
%TD*%
D14*
%TO.C,R8*%
X157250000Y-79310000D03*
X157250000Y-71690000D03*
%TD*%
%TO.C,C3*%
X171500000Y-84750000D03*
X171500000Y-89750000D03*
%TD*%
D13*
%TO.C,RV2*%
X155081720Y-94887522D03*
D14*
X155081720Y-98487522D03*
X155081720Y-102087522D03*
%TD*%
D16*
%TO.C,J6*%
X175450000Y-116867500D03*
D17*
X172950000Y-116867500D03*
%TD*%
D13*
%TO.C,RV1*%
X149000000Y-94900000D03*
D14*
X149000000Y-98500000D03*
X149000000Y-102100000D03*
%TD*%
%TO.C,C1*%
X151500000Y-112500000D03*
X151500000Y-107500000D03*
%TD*%
%TO.C,R10*%
X139810000Y-68500000D03*
X132190000Y-68500000D03*
%TD*%
%TO.C,C8*%
X153000000Y-89750000D03*
X153000000Y-84750000D03*
%TD*%
D18*
%TO.C,D2*%
X166500000Y-103310000D03*
D14*
X166500000Y-95690000D03*
%TD*%
D19*
%TO.C,C12*%
X175705113Y-59250000D03*
D14*
X173205113Y-59250000D03*
%TD*%
%TO.C,C6*%
X133250000Y-73000000D03*
X133250000Y-78000000D03*
%TD*%
D13*
%TO.C,C14*%
X144500000Y-50100000D03*
D14*
X144500000Y-52600000D03*
%TD*%
%TO.C,R24*%
X170440000Y-111750000D03*
X178060000Y-111750000D03*
%TD*%
%TO.C,R12*%
X145750000Y-79310000D03*
X145750000Y-71690000D03*
%TD*%
D13*
%TO.C,RV3*%
X161000000Y-94900000D03*
D14*
X161000000Y-98500000D03*
X161000000Y-102100000D03*
%TD*%
D15*
%TO.C,J5*%
X159000000Y-122000000D03*
%TD*%
D20*
%TO.C,REF\u002A\u002A*%
X178000000Y-127000000D03*
%TD*%
D14*
%TO.C,C2*%
X143750000Y-96000000D03*
X143750000Y-101000000D03*
%TD*%
D13*
%TO.C,J3*%
X177000000Y-96700000D03*
D14*
X177000000Y-100300000D03*
%TD*%
%TO.C,R9*%
X139440000Y-112000000D03*
X147060000Y-112000000D03*
%TD*%
%TO.C,R21*%
X157500000Y-117000000D03*
X149880000Y-117000000D03*
%TD*%
D20*
%TO.C,REF\u002A\u002A*%
X178000000Y-50000000D03*
%TD*%
D14*
%TO.C,C10*%
X163250000Y-49250000D03*
X163250000Y-54250000D03*
%TD*%
%TO.C,R23*%
X132190000Y-63500000D03*
X139810000Y-63500000D03*
%TD*%
%TO.C,C4*%
X133678555Y-121979736D03*
X133678555Y-116979736D03*
%TD*%
D13*
%TO.C,D1*%
X171250000Y-95750000D03*
D14*
X171250000Y-103370000D03*
%TD*%
%TO.C,R14*%
X152250000Y-67560000D03*
X152250000Y-59940000D03*
%TD*%
%TO.C,R19*%
X170940000Y-65750000D03*
X178560000Y-65750000D03*
%TD*%
D21*
%TO.C,J4*%
X154914419Y-55664029D03*
D22*
X154914419Y-49664029D03*
D23*
X150214419Y-52664029D03*
%TD*%
D14*
%TO.C,R11*%
X133250000Y-82440000D03*
X133250000Y-90060000D03*
%TD*%
D13*
%TO.C,C15*%
X137500000Y-50300000D03*
D14*
X137500000Y-52800000D03*
%TD*%
D24*
%TO.C,Q2*%
X147790000Y-85730000D03*
D25*
X145250000Y-88270000D03*
X142710000Y-85730000D03*
%TD*%
D14*
%TO.C,C11*%
X160500000Y-112500000D03*
X160500000Y-107500000D03*
%TD*%
%TO.C,C9*%
X156000000Y-107500000D03*
X156000000Y-112500000D03*
%TD*%
%TO.C,R3*%
X139368555Y-116979736D03*
X146988555Y-116979736D03*
%TD*%
%TO.C,R15*%
X157250000Y-67560000D03*
X157250000Y-59940000D03*
%TD*%
D26*
%TO.C,D4*%
X145750000Y-68580000D03*
D27*
X145750000Y-58420000D03*
%TD*%
D14*
%TO.C,R5*%
X137500000Y-82440000D03*
X137500000Y-90060000D03*
%TD*%
%TO.C,R7*%
X165500000Y-83440000D03*
X165500000Y-91060000D03*
%TD*%
D13*
%TO.C,D3*%
X162000000Y-71690000D03*
D14*
X162000000Y-79310000D03*
%TD*%
D20*
%TO.C,REF\u002A\u002A*%
X132000000Y-50000000D03*
%TD*%
D24*
%TO.C,Q3*%
X173500000Y-51250000D03*
D25*
X170960000Y-53790000D03*
X168420000Y-51250000D03*
%TD*%
D14*
%TO.C,R6*%
X146988555Y-121979736D03*
X139368555Y-121979736D03*
%TD*%
D28*
%TO.C,U1*%
X168690000Y-71190000D03*
D29*
X168690000Y-73730000D03*
X168690000Y-76270000D03*
X168690000Y-78810000D03*
X176310000Y-78810000D03*
X176310000Y-76270000D03*
X176310000Y-73730000D03*
X176310000Y-71190000D03*
%TD*%
D14*
%TO.C,R18*%
X162250000Y-67560000D03*
X162250000Y-59940000D03*
%TD*%
%TO.C,R13*%
X152250000Y-79310000D03*
X152250000Y-71690000D03*
%TD*%
D24*
%TO.C,Q1*%
X133730000Y-107960000D03*
D25*
X136270000Y-110500000D03*
X133730000Y-113040000D03*
%TD*%
D20*
%TO.C,REF\u002A\u002A*%
X132000000Y-127000000D03*
%TD*%
D14*
%TO.C,R22*%
X170440000Y-107000000D03*
X178060000Y-107000000D03*
%TD*%
%TO.C,R1*%
X138500000Y-102560000D03*
X138500000Y-94940000D03*
%TD*%
%TO.C,R20*%
X139810000Y-58500000D03*
X132190000Y-58500000D03*
%TD*%
%TO.C,R17*%
X167250000Y-67560000D03*
X167250000Y-59940000D03*
%TD*%
%TO.C,C5*%
X139500000Y-78000000D03*
X139500000Y-73000000D03*
%TD*%
%TO.C,R2*%
X139440000Y-107250000D03*
X147060000Y-107250000D03*
%TD*%
%TO.C,R4*%
X177250000Y-83690000D03*
X177250000Y-91310000D03*
%TD*%
%TO.C,C13*%
X165000000Y-107500000D03*
X165000000Y-112500000D03*
%TD*%
%TO.C,R16*%
X160440000Y-117000000D03*
X168060000Y-117000000D03*
%TD*%
%LPD*%
M02*
