%TF.GenerationSoftware,KiCad,Pcbnew,9.0.5*%
%TF.CreationDate,2026-03-27T18:59:20+03:00*%
%TF.ProjectId,Boss DS-1,426f7373-2044-4532-9d31-2e6b69636164,rev?*%
%TF.SameCoordinates,Original*%
%TF.FileFunction,Legend,Bot*%
%TF.FilePolarity,Positive*%
%FSLAX46Y46*%
G04 Gerber Fmt 4.6, Leading zero omitted, Abs format (unit mm)*
G04 Created by KiCad (PCBNEW 9.0.5) date 2026-03-27 18:59:20*
%MOMM*%
%LPD*%
G01*
G04 APERTURE LIST*
G04 Aperture macros list*
%AMRoundRect*
0 Rectangle with rounded corners*
0 $1 Rounding radius*
0 $2 $3 $4 $5 $6 $7 $8 $9 X,Y pos of 4 corners*
0 Add a 4 corners polygon primitive as box body*
4,1,4,$2,$3,$4,$5,$6,$7,$8,$9,$2,$3,0*
0 Add four circle primitives for the rounded corners*
1,1,$1+$1,$2,$3*
1,1,$1+$1,$4,$5*
1,1,$1+$1,$6,$7*
1,1,$1+$1,$8,$9*
0 Add four rect primitives between the rounded corners*
20,1,$1+$1,$2,$3,$4,$5,0*
20,1,$1+$1,$4,$5,$6,$7,0*
20,1,$1+$1,$6,$7,$8,$9,0*
20,1,$1+$1,$8,$9,$2,$3,0*%
G04 Aperture macros list end*
%ADD10RoundRect,0.250000X-0.550000X0.550000X-0.550000X-0.550000X0.550000X-0.550000X0.550000X0.550000X0*%
%ADD11C,1.600000*%
%ADD12RoundRect,0.250000X-0.550000X-0.550000X0.550000X-0.550000X0.550000X0.550000X-0.550000X0.550000X0*%
%ADD13RoundRect,0.250000X0.600000X0.750000X-0.600000X0.750000X-0.600000X-0.750000X0.600000X-0.750000X0*%
%ADD14O,1.700000X2.000000*%
%ADD15RoundRect,0.250000X0.550000X-0.550000X0.550000X0.550000X-0.550000X0.550000X-0.550000X-0.550000X0*%
%ADD16RoundRect,0.250000X0.550000X0.550000X-0.550000X0.550000X-0.550000X-0.550000X0.550000X-0.550000X0*%
%ADD17C,2.100000*%
%ADD18R,3.500000X3.500000*%
%ADD19RoundRect,0.750000X-1.000000X0.750000X-1.000000X-0.750000X1.000000X-0.750000X1.000000X0.750000X0*%
%ADD20RoundRect,0.875000X-0.875000X0.875000X-0.875000X-0.875000X0.875000X-0.875000X0.875000X0.875000X0*%
%ADD21R,1.500000X1.500000*%
%ADD22C,1.500000*%
%ADD23RoundRect,0.249999X0.850001X-0.850001X0.850001X0.850001X-0.850001X0.850001X-0.850001X-0.850001X0*%
%ADD24C,2.200000*%
%ADD25RoundRect,0.250000X-0.950000X-0.550000X0.950000X-0.550000X0.950000X0.550000X-0.950000X0.550000X0*%
%ADD26O,2.400000X1.600000*%
G04 APERTURE END LIST*
%LPC*%
D10*
%TO.C,J2*%
X133000000Y-95400000D03*
D11*
X133000000Y-99000000D03*
X133000000Y-102600000D03*
%TD*%
%TO.C,C7*%
X159000000Y-89750000D03*
X159000000Y-84750000D03*
%TD*%
D12*
%TO.C,J1*%
X152000000Y-122000000D03*
%TD*%
D11*
%TO.C,R8*%
X157250000Y-79310000D03*
X157250000Y-71690000D03*
%TD*%
%TO.C,C3*%
X171500000Y-84750000D03*
X171500000Y-89750000D03*
%TD*%
D10*
%TO.C,RV2*%
X155081720Y-94887522D03*
D11*
X155081720Y-98487522D03*
X155081720Y-102087522D03*
%TD*%
D13*
%TO.C,J6*%
X175450000Y-116867500D03*
D14*
X172950000Y-116867500D03*
%TD*%
D10*
%TO.C,RV1*%
X149000000Y-94900000D03*
D11*
X149000000Y-98500000D03*
X149000000Y-102100000D03*
%TD*%
%TO.C,C1*%
X151500000Y-112500000D03*
X151500000Y-107500000D03*
%TD*%
%TO.C,R10*%
X139810000Y-68500000D03*
X132190000Y-68500000D03*
%TD*%
%TO.C,C8*%
X153000000Y-89750000D03*
X153000000Y-84750000D03*
%TD*%
D15*
%TO.C,D2*%
X166500000Y-103310000D03*
D11*
X166500000Y-95690000D03*
%TD*%
D16*
%TO.C,C12*%
X175705113Y-59250000D03*
D11*
X173205113Y-59250000D03*
%TD*%
%TO.C,C6*%
X133250000Y-73000000D03*
X133250000Y-78000000D03*
%TD*%
D10*
%TO.C,C14*%
X144500000Y-50100000D03*
D11*
X144500000Y-52600000D03*
%TD*%
%TO.C,R24*%
X170440000Y-111750000D03*
X178060000Y-111750000D03*
%TD*%
%TO.C,R12*%
X145750000Y-79310000D03*
X145750000Y-71690000D03*
%TD*%
D10*
%TO.C,RV3*%
X161000000Y-94900000D03*
D11*
X161000000Y-98500000D03*
X161000000Y-102100000D03*
%TD*%
D12*
%TO.C,J5*%
X159000000Y-122000000D03*
%TD*%
D17*
%TO.C,REF\u002A\u002A*%
X178000000Y-127000000D03*
%TD*%
D11*
%TO.C,C2*%
X143750000Y-96000000D03*
X143750000Y-101000000D03*
%TD*%
D10*
%TO.C,J3*%
X177000000Y-96700000D03*
D11*
X177000000Y-100300000D03*
%TD*%
%TO.C,R9*%
X139440000Y-112000000D03*
X147060000Y-112000000D03*
%TD*%
%TO.C,R21*%
X157500000Y-117000000D03*
X149880000Y-117000000D03*
%TD*%
D17*
%TO.C,REF\u002A\u002A*%
X178000000Y-50000000D03*
%TD*%
D11*
%TO.C,C10*%
X163250000Y-49250000D03*
X163250000Y-54250000D03*
%TD*%
%TO.C,R23*%
X132190000Y-63500000D03*
X139810000Y-63500000D03*
%TD*%
%TO.C,C4*%
X133678555Y-121979736D03*
X133678555Y-116979736D03*
%TD*%
D10*
%TO.C,D1*%
X171250000Y-95750000D03*
D11*
X171250000Y-103370000D03*
%TD*%
%TO.C,R14*%
X152250000Y-67560000D03*
X152250000Y-59940000D03*
%TD*%
%TO.C,R19*%
X170940000Y-65750000D03*
X178560000Y-65750000D03*
%TD*%
D18*
%TO.C,J4*%
X154914419Y-55664029D03*
D19*
X154914419Y-49664029D03*
D20*
X150214419Y-52664029D03*
%TD*%
D11*
%TO.C,R11*%
X133250000Y-82440000D03*
X133250000Y-90060000D03*
%TD*%
D10*
%TO.C,C15*%
X137500000Y-50300000D03*
D11*
X137500000Y-52800000D03*
%TD*%
D21*
%TO.C,Q2*%
X147790000Y-85730000D03*
D22*
X145250000Y-88270000D03*
X142710000Y-85730000D03*
%TD*%
D11*
%TO.C,C11*%
X160500000Y-112500000D03*
X160500000Y-107500000D03*
%TD*%
%TO.C,C9*%
X156000000Y-107500000D03*
X156000000Y-112500000D03*
%TD*%
%TO.C,R3*%
X139368555Y-116979736D03*
X146988555Y-116979736D03*
%TD*%
%TO.C,R15*%
X157250000Y-67560000D03*
X157250000Y-59940000D03*
%TD*%
D23*
%TO.C,D4*%
X145750000Y-68580000D03*
D24*
X145750000Y-58420000D03*
%TD*%
D11*
%TO.C,R5*%
X137500000Y-82440000D03*
X137500000Y-90060000D03*
%TD*%
%TO.C,R7*%
X165500000Y-83440000D03*
X165500000Y-91060000D03*
%TD*%
D10*
%TO.C,D3*%
X162000000Y-71690000D03*
D11*
X162000000Y-79310000D03*
%TD*%
D17*
%TO.C,REF\u002A\u002A*%
X132000000Y-50000000D03*
%TD*%
D21*
%TO.C,Q3*%
X173500000Y-51250000D03*
D22*
X170960000Y-53790000D03*
X168420000Y-51250000D03*
%TD*%
D11*
%TO.C,R6*%
X146988555Y-121979736D03*
X139368555Y-121979736D03*
%TD*%
D25*
%TO.C,U1*%
X168690000Y-71190000D03*
D26*
X168690000Y-73730000D03*
X168690000Y-76270000D03*
X168690000Y-78810000D03*
X176310000Y-78810000D03*
X176310000Y-76270000D03*
X176310000Y-73730000D03*
X176310000Y-71190000D03*
%TD*%
D11*
%TO.C,R18*%
X162250000Y-67560000D03*
X162250000Y-59940000D03*
%TD*%
%TO.C,R13*%
X152250000Y-79310000D03*
X152250000Y-71690000D03*
%TD*%
D21*
%TO.C,Q1*%
X133730000Y-107960000D03*
D22*
X136270000Y-110500000D03*
X133730000Y-113040000D03*
%TD*%
D17*
%TO.C,REF\u002A\u002A*%
X132000000Y-127000000D03*
%TD*%
D11*
%TO.C,R22*%
X170440000Y-107000000D03*
X178060000Y-107000000D03*
%TD*%
%TO.C,R1*%
X138500000Y-102560000D03*
X138500000Y-94940000D03*
%TD*%
%TO.C,R20*%
X139810000Y-58500000D03*
X132190000Y-58500000D03*
%TD*%
%TO.C,R17*%
X167250000Y-67560000D03*
X167250000Y-59940000D03*
%TD*%
%TO.C,C5*%
X139500000Y-78000000D03*
X139500000Y-73000000D03*
%TD*%
%TO.C,R2*%
X139440000Y-107250000D03*
X147060000Y-107250000D03*
%TD*%
%TO.C,R4*%
X177250000Y-83690000D03*
X177250000Y-91310000D03*
%TD*%
%TO.C,C13*%
X165000000Y-107500000D03*
X165000000Y-112500000D03*
%TD*%
%TO.C,R16*%
X160440000Y-117000000D03*
X168060000Y-117000000D03*
%TD*%
%LPD*%
M02*
